<svg xmlns="http://www.w3.org/2000/svg" viewBox="0 0 48 48" fill="none" stroke-linecap="round" stroke-linejoin="round">
<defs><linearGradient id="scp" x1="0%" y1="0%" x2="100%" y2="100%"><stop offset="0%" stop-color="#3b82f6"/><stop offset="100%" stop-color="#a855f7"/></linearGradient></defs><path d="M4 44 Q14 41 24 43 Q34 45 44 42" stroke="#3b82f6" stroke-width="1" fill="none" opacity="0.12" stroke-linecap="round"/><rect x="10" y="10" width="28" height="28" rx="4" stroke="url(#scp)" stroke-width="2" fill="none"/><rect x="16" y="16" width="16" height="16" rx="2" stroke="url(#scp)" stroke-width="1.5" fill="none" opacity=".4"/><line x1="18" y1="6" x2="18" y2="10" stroke="url(#scp)" stroke-width="1.5" stroke-linecap="round" opacity=".35"/><line x1="24" y1="6" x2="24" y2="10" stroke="url(#scp)" stroke-width="1.5" stroke-linecap="round" opacity=".35"/><line x1="30" y1="6" x2="30" y2="10" stroke="url(#scp)" stroke-width="1.5" stroke-linecap="round" opacity=".35"/><line x1="18" y1="38" x2="18" y2="42" stroke="url(#scp)" stroke-width="1.5" stroke-linecap="round" opacity=".35"/><line x1="24" y1="38" x2="24" y2="42" stroke="url(#scp)" stroke-width="1.5" stroke-linecap="round" opacity=".35"/><line x1="30" y1="38" x2="30" y2="42" stroke="url(#scp)" stroke-width="1.5" stroke-linecap="round" opacity=".35"/><line x1="6" y1="18" x2="10" y2="18" stroke="url(#scp)" stroke-width="1.5" stroke-linecap="round" opacity=".35"/><line x1="6" y1="24" x2="10" y2="24" stroke="url(#scp)" stroke-width="1.5" stroke-linecap="round" opacity=".35"/><line x1="6" y1="30" x2="10" y2="30" stroke="url(#scp)" stroke-width="1.5" stroke-linecap="round" opacity=".35"/><line x1="38" y1="18" x2="42" y2="18" stroke="url(#scp)" stroke-width="1.5" stroke-linecap="round" opacity=".35"/><line x1="38" y1="24" x2="42" y2="24" stroke="url(#scp)" stroke-width="1.5" stroke-linecap="round" opacity=".35"/><line x1="38" y1="30" x2="42" y2="30" stroke="url(#scp)" stroke-width="1.5" stroke-linecap="round" opacity=".35"/>
</svg>