<svg xmlns="http://www.w3.org/2000/svg" viewBox="0 0 48 48" fill="none" stroke-linecap="round" stroke-linejoin="round">
<defs><linearGradient id="smm" x1="0%" y1="0%" x2="100%" y2="100%"><stop offset="0%" stop-color="#036949"/><stop offset="100%" stop-color="#05657c"/></linearGradient><filter id="s3d_memory_r"><feDropShadow dx="1.5" dy="2.5" stdDeviation="2" flood-opacity=".3"/></filter></defs><path d="M4 44 Q14 41 24 43 Q34 45 44 42" stroke="#036949" stroke-width="1" fill="none" opacity="0.18" stroke-linecap="round"/><rect x="4" y="14" width="40" height="20" rx="3" stroke="url(#smm)" stroke-width="2.3" fill="none" fill-opacity="0.09" filter="url(#s3d_memory_r)"/><rect x="10" y="18" width="4" height="12" rx="1" stroke="#036949" stroke-width="1" fill="#036949" fill-opacity="0.18"/><rect x="16" y="18" width="4" height="12" rx="1" stroke="#05657c" stroke-width="1" fill="#05657c" fill-opacity="0.18"/><rect x="22" y="18" width="4" height="12" rx="1" stroke="#036949" stroke-width="1" fill="#036949" fill-opacity="0.18"/><rect x="28" y="18" width="4" height="12" rx="1" stroke="#05657c" stroke-width="1" fill="#05657c" fill-opacity="0.18"/><rect x="34" y="18" width="4" height="12" rx="1" stroke="#036949" stroke-width="1" fill="#036949" fill-opacity="0.18"/><line x1="10" y1="34" x2="10" y2="38" stroke="url(#smm)" stroke-width="1.2" stroke-linecap="round" opacity=".3"/><line x1="16" y1="34" x2="16" y2="38" stroke="url(#smm)" stroke-width="1.2" stroke-linecap="round" opacity=".3"/><line x1="22" y1="34" x2="22" y2="38" stroke="url(#smm)" stroke-width="1.2" stroke-linecap="round" opacity=".3"/><line x1="28" y1="34" x2="28" y2="38" stroke="url(#smm)" stroke-width="1.2" stroke-linecap="round" opacity=".3"/><line x1="34" y1="34" x2="34" y2="38" stroke="url(#smm)" stroke-width="1.2" stroke-linecap="round" opacity=".3"/>
<path d="M12 10c5-4 14-6 22-2" stroke="#d1d5db" stroke-width="0.8" opacity=".15" fill="none"/>
</svg>