<svg xmlns="http://www.w3.org/2000/svg" viewBox="0 0 48 48" fill="none" stroke-linecap="round" stroke-linejoin="round">
<defs><linearGradient id="smm" x1="0%" y1="0%" x2="100%" y2="100%"><stop offset="0%" stop-color="#10b981"/><stop offset="100%" stop-color="#00d4ff"/></linearGradient></defs><path d="M4 44 Q14 41 24 43 Q34 45 44 42" stroke="#10b981" stroke-width="1" fill="none" opacity="0.12" stroke-linecap="round"/><rect x="4" y="14" width="40" height="20" rx="3" stroke="url(#smm)" stroke-width="2" fill="none"/><rect x="10" y="18" width="4" height="12" rx="1" stroke="#10b981" stroke-width="1" fill="#10b981" fill-opacity=".12"/><rect x="16" y="18" width="4" height="12" rx="1" stroke="#00d4ff" stroke-width="1" fill="#00d4ff" fill-opacity=".12"/><rect x="22" y="18" width="4" height="12" rx="1" stroke="#10b981" stroke-width="1" fill="#10b981" fill-opacity=".12"/><rect x="28" y="18" width="4" height="12" rx="1" stroke="#00d4ff" stroke-width="1" fill="#00d4ff" fill-opacity=".12"/><rect x="34" y="18" width="4" height="12" rx="1" stroke="#10b981" stroke-width="1" fill="#10b981" fill-opacity=".12"/><line x1="10" y1="34" x2="10" y2="38" stroke="url(#smm)" stroke-width="1.2" stroke-linecap="round" opacity=".3"/><line x1="16" y1="34" x2="16" y2="38" stroke="url(#smm)" stroke-width="1.2" stroke-linecap="round" opacity=".3"/><line x1="22" y1="34" x2="22" y2="38" stroke="url(#smm)" stroke-width="1.2" stroke-linecap="round" opacity=".3"/><line x1="28" y1="34" x2="28" y2="38" stroke="url(#smm)" stroke-width="1.2" stroke-linecap="round" opacity=".3"/><line x1="34" y1="34" x2="34" y2="38" stroke="url(#smm)" stroke-width="1.2" stroke-linecap="round" opacity=".3"/>
</svg>