<svg xmlns="http://www.w3.org/2000/svg" viewBox="0 0 48 48" fill="none" stroke-linecap="round" stroke-linejoin="round">
<defs><linearGradient id="pro" x1="0%" y1="0%" x2="100%" y2="100%"><stop offset="0%" stop-color="#3b82f6"/><stop offset="100%" stop-color="#a855f7"/></linearGradient></defs><path d="M4 44 Q14 41 24 43 Q34 45 44 42" stroke="#3b82f6" stroke-width="1" fill="none" opacity="0.15"/>
<line x1="24" y1="4" x2="24" y2="38" stroke="url(#pro)" stroke-width="2.5"/>
<line x1="16" y1="38" x2="32" y2="38" stroke="url(#pro)" stroke-width="2.5"/>
<line x1="8" y1="14" x2="40" y2="14" stroke="url(#pro)" stroke-width="2.5"/>
<path d="M4 28c0-2 2-4 4-4s4 2 4 4H4z" stroke="#3b82f6" stroke-width="1.8" fill="#3b82f6" fill-opacity=".08"/>
<path d="M36 24c0-2 2-4 4-4s4 2 4 4h-8z" stroke="#a855f7" stroke-width="1.8" fill="#a855f7" fill-opacity=".08"/>
<line x1="8" y1="14" x2="8" y2="24" stroke="url(#pro)" stroke-width="1.5"/>
<line x1="40" y1="14" x2="40" y2="20" stroke="url(#pro)" stroke-width="1.5"/>

</svg>