<svg xmlns="http://www.w3.org/2000/svg" viewBox="0 0 48 48" fill="none" stroke-linecap="round" stroke-linejoin="round">
<defs><linearGradient id="ci" x1="0%" y1="0%" x2="100%" y2="100%"><stop offset="0%" stop-color="#7c3aed"/><stop offset="100%" stop-color="#475569"/></linearGradient><filter id="s3d_cover_id"><feDropShadow dx="1.5" dy="2.5" stdDeviation="2" flood-opacity=".3"/></filter></defs><path d="M4 44 Q14 41 24 43 Q34 45 44 42" stroke="#7c3aed" stroke-width="1" fill="none" opacity="0.22"/>
<!-- ID card back -->
<rect x="14" y="6" width="22" height="16" rx="2" stroke="#475569" stroke-width="1.7" fill="none" opacity=".35"/>
<circle cx="30" cy="12" r="3" stroke="#475569" stroke-width="1" fill="none" opacity="0.38"/>
<line x1="18" y1="18" x2="28" y2="18" stroke="#475569" stroke-width="1" opacity="0.3"/>
<!-- ID card front (overlapping) -->
<rect x="8" y="14" width="22" height="16" rx="2" stroke="url(#ci)" stroke-width="2.3" fill="#0a0a12" fill-opacity=".8" filter="url(#s3d_cover_id)"/>
<circle cx="16" cy="20" r="3.5" stroke="#7c3aed" stroke-width="1.7" fill="none"/>
<line x1="22" y1="18" x2="28" y2="18" stroke="url(#ci)" stroke-width="1.2" opacity=".4"/>
<line x1="22" y1="22" x2="26" y2="22" stroke="url(#ci)" stroke-width="1.2" opacity=".3"/>
<line x1="22" y1="26" x2="28" y2="26" stroke="url(#ci)" stroke-width="1" opacity="0.3"/>
<!-- mask -->
<path d="M30 32c-4 0-8 2-8 6s4 8 8 8 8-4 8-8-4-6-8-6z" stroke="#7c3aed" stroke-width="2.1" fill="#7c3aed" fill-opacity="0.09"/>
<circle cx="27" cy="37" r="1.5" fill="#7c3aed" opacity=".3"/>
<circle cx="33" cy="37" r="1.5" fill="#7c3aed" opacity=".3"/>

<path d="M12 10c5-4 14-6 22-2" stroke="white" stroke-width="0.8" opacity=".15" fill="none"/>
</svg>