<svg xmlns="http://www.w3.org/2000/svg" viewBox="0 0 48 48" fill="none" stroke-linecap="round" stroke-linejoin="round">
<defs><linearGradient id="cs" x1="0%" y1="0%" x2="100%" y2="100%"><stop offset="0%" stop-color="#0891b2"/><stop offset="100%" stop-color="#7c3aed"/></linearGradient><filter id="s3d_cyber_sp"><feDropShadow dx="1.5" dy="2.5" stdDeviation="2" flood-opacity=".3"/></filter></defs><path d="M4 44 Q14 41 24 43 Q34 45 44 42" stroke="#0891b2" stroke-width="1" fill="none" opacity="0.22"/>
<!-- hood -->
<path d="M12 22c0-10 5-16 12-16s12 6 12 16" stroke="url(#cs)" stroke-width="2.3" fill="url(#cs)" fill-opacity="0.04" filter="url(#s3d_cyber_sp)"/>
<!-- face dark -->
<circle cx="24" cy="18" r="5" stroke="none" fill="#0a0a12" fill-opacity=".5"/>
<!-- glowing eyes -->
<circle cx="21" cy="17" r="1.5" fill="#0891b2" opacity=".7"/>
<circle cx="27" cy="17" r="1.5" fill="#0891b2" opacity=".7"/>
<!-- body -->
<path d="M12 22v20h24V22" stroke="url(#cs)" stroke-width="2.3" fill="none"/>
<!-- screen glow on face -->
<line x1="16" y1="28" x2="22" y2="28" stroke="#0891b2" stroke-width="1" opacity=".4"/>
<line x1="18" y1="32" x2="26" y2="32" stroke="#7c3aed" stroke-width="1" opacity=".3"/>
<line x1="16" y1="36" x2="24" y2="36" stroke="#0891b2" stroke-width="1" opacity="0.38"/>
<!-- binary -->
<text x="32" y="30" font-size="5" fill="#0891b2" font-family="monospace" opacity=".35">01</text>
<text x="30" y="36" font-size="5" fill="#7c3aed" font-family="monospace" opacity="0.38">10</text>

<path d="M12 10c5-4 14-6 22-2" stroke="white" stroke-width="0.8" opacity=".15" fill="none"/>
</svg>