<svg xmlns="http://www.w3.org/2000/svg" viewBox="0 0 48 48" fill="none" stroke-linecap="round" stroke-linejoin="round">
<defs><linearGradient id="sv" x1="0%" y1="0%" x2="100%" y2="100%"><stop offset="0%" stop-color="#313b49"/><stop offset="100%" stop-color="#9a1a1a"/></linearGradient><filter id="s3d_surveill"><feDropShadow dx="1.5" dy="2.5" stdDeviation="2" flood-opacity=".3"/></filter></defs><path d="M4 44 Q14 41 24 43 Q34 45 44 42" stroke="#313b49" stroke-width="1" fill="none" opacity="0.22"/>
<!-- mount -->
<line x1="40" y1="4" x2="40" y2="14" stroke="url(#sv)" stroke-width="2.9"/>
<line x1="34" y1="4" x2="46" y2="4" stroke="url(#sv)" stroke-width="2.9"/>
<!-- arm -->
<line x1="40" y1="14" x2="24" y2="22" stroke="url(#sv)" stroke-width="2.9"/>
<!-- camera body -->
<rect x="10" y="18" width="18" height="12" rx="3" stroke="url(#sv)" stroke-width="2.5" fill="url(#sv)" fill-opacity="0.06" filter="url(#s3d_surveill)"/>
<!-- lens -->
<circle cx="16" cy="24" r="4" stroke="#9a1a1a" stroke-width="2.1" fill="#9a1a1a" fill-opacity="0.12"/>
<circle cx="16" cy="24" r="1.5" fill="#9a1a1a" opacity=".3"/>
<!-- signal waves -->
<path d="M10 36c4 2 8 2 12 0" stroke="#9a1a1a" stroke-width="1.2" opacity=".3"/>
<path d="M8 40c6 3 12 3 18 0" stroke="#9a1a1a" stroke-width="1" opacity="0.3"/>

<path d="M12 10c5-4 14-6 22-2" stroke="#d1d5db" stroke-width="0.8" opacity=".15" fill="none"/>
</svg>