<svg xmlns="http://www.w3.org/2000/svg" viewBox="0 0 48 48" fill="none" stroke-linecap="round" stroke-linejoin="round">
<defs><linearGradient id="pd" x1="0%" y1="0%" x2="100%" y2="100%"><stop offset="0%" stop-color="#ef4444"/><stop offset="100%" stop-color="#f97316"/></linearGradient></defs><path d="M4 44 Q14 41 24 43 Q34 45 44 42" stroke="#ef4444" stroke-width="1" fill="none" opacity="0.15" stroke-linecap="round"/>
<path d="M4 12h10l4 4h22a3 3 0 0 1 3 3v18a3 3 0 0 1-3 3H4a3 3 0 0 1-3-3V15a3 3 0 0 1 3-3z" stroke="url(#pd)" stroke-width="2" fill="none"/>
<line x1="14" y1="24" x2="28" y2="24" stroke="url(#pd)" stroke-width="1.2" opacity=".25"/>
<line x1="14" y1="29" x2="24" y2="29" stroke="url(#pd)" stroke-width="1.2" opacity=".2"/>
<circle cx="36" cy="32" r="8" stroke="#ef4444" stroke-width="2" fill="#0a0a12" fill-opacity=".9"/>
<line x1="32" y1="28" x2="40" y2="36" stroke="#ef4444" stroke-width="2.5"/>
<line x1="40" y1="28" x2="32" y2="36" stroke="#ef4444" stroke-width="2.5"/>

</svg>