<svg xmlns="http://www.w3.org/2000/svg" viewBox="0 0 48 48" fill="none" stroke-linecap="round" stroke-linejoin="round">
<defs><linearGradient id="pe" x1="0%" y1="0%" x2="100%" y2="100%"><stop offset="0%" stop-color="#143697"/><stop offset="100%" stop-color="#5628a5"/></linearGradient><filter id="s3d_project_"><feDropShadow dx="1.5" dy="2.5" stdDeviation="2" flood-opacity=".3"/></filter></defs><path d="M4 44 Q14 41 24 43 Q34 45 44 42" stroke="#5628a5" stroke-width="1" fill="none" opacity="0.22" stroke-linecap="round"/>
<path d="M4 12h10l4 4h22a3 3 0 0 1 3 3v18a3 3 0 0 1-3 3H4a3 3 0 0 1-3-3V15a3 3 0 0 1 3-3z" stroke="url(#pe)" stroke-width="2.3" fill="none" filter="url(#s3d_project_)"/>
<line x1="14" y1="24" x2="28" y2="24" stroke="url(#pe)" stroke-width="1.2" opacity="0.38"/>
<line x1="14" y1="29" x2="24" y2="29" stroke="url(#pe)" stroke-width="1.2" opacity="0.3"/>
<circle cx="36" cy="32" r="8" stroke="#5628a5" stroke-width="2.1" fill="#0a0a12" fill-opacity=".9"/>
<path d="M33 35l-1 3 3-1 6-6-2-2z" stroke="#5628a5" stroke-width="1.7" fill="none"/>
<path d="M39 29l2 2" stroke="#5628a5" stroke-width="1.7"/>

<path d="M12 10c5-4 14-6 22-2" stroke="#d1d5db" stroke-width="0.8" opacity=".15" fill="none"/>
</svg>