<svg xmlns="http://www.w3.org/2000/svg" viewBox="0 0 48 48" fill="none" stroke-linecap="round" stroke-linejoin="round">
<defs><linearGradient id="po" x1="0%" y1="0%" x2="100%" y2="100%"><stop offset="0%" stop-color="#00d4ff"/><stop offset="100%" stop-color="#3b82f6"/></linearGradient></defs><path d="M4 44 Q14 41 24 43 Q34 45 44 42" stroke="#00d4ff" stroke-width="1" fill="none" opacity="0.15" stroke-linecap="round"/>
<path d="M4 12h10l4 4h22a3 3 0 0 1 3 3v18a3 3 0 0 1-3 3H4a3 3 0 0 1-3-3V15a3 3 0 0 1 3-3z" stroke="url(#po)" stroke-width="2" fill="none"/>
<path d="M6 38L12 22h30l-6 16" stroke="url(#po)" stroke-width="1.5" fill="#00d4ff" fill-opacity=".04"/>
<path d="M20 28l4 4 4-4" stroke="#00d4ff" stroke-width="2" fill="none" opacity=".5"/>

</svg>