<svg xmlns="http://www.w3.org/2000/svg" viewBox="0 0 48 48" fill="none" stroke-linecap="round" stroke-linejoin="round">

<defs><linearGradient id="aaf" x1="0%" y1="0%" x2="100%" y2="100%"><stop offset="0%" stop-color="#0891b2"/><stop offset="100%" stop-color="#7c3aed"/></linearGradient><filter id="s3d_audio_fi"><feDropShadow dx="1.5" dy="2.5" stdDeviation="2" flood-opacity=".3"/></filter></defs><path d="M4 44 Q14 41 24 43 Q34 45 44 42" stroke="#0891b2" stroke-width="1" fill="none" opacity="0.22" stroke-linecap="round"/>
<path d="M12 6h16l10 10v22a4 4 0 0 1-4 4H12a4 4 0 0 1-4-4V10a4 4 0 0 1 4-4z" stroke="url(#aaf)" stroke-width="2.3" fill="none" filter="url(#s3d_audio_fi)"/>
<path d="M28 6v10h10" stroke="url(#aaf)" stroke-width="1.7" fill="none" opacity=".4"/>
<circle cx="20" cy="32" r="4" stroke="#0891b2" stroke-width="1.7" fill="none"/>
<line x1="24" y1="32" x2="24" y2="20" stroke="#0891b2" stroke-width="1.7" stroke-linecap="round"/>
<path d="M24 20c2-1 5 0 5 2" stroke="#7c3aed" stroke-width="1.2" fill="none"/>

<path d="M12 10c5-4 14-6 22-2" stroke="white" stroke-width="0.8" opacity=".15" fill="none"/>
</svg>