<svg xmlns="http://www.w3.org/2000/svg" viewBox="0 0 48 48" fill="none" stroke-linecap="round" stroke-linejoin="round">

<defs><linearGradient id="alp" x1="0%" y1="0%" x2="100%" y2="100%"><stop offset="0%" stop-color="#7c3aed"/><stop offset="100%" stop-color="#0891b2"/></linearGradient><filter id="s3d_loop"><feDropShadow dx="1.5" dy="2.5" stdDeviation="2" flood-opacity=".3"/></filter></defs><path d="M4 44 Q14 41 24 43 Q34 45 44 42" stroke="#7c3aed" stroke-width="1" fill="none" opacity="0.22" stroke-linecap="round"/>
<path d="M36 14h4a6 6 0 0 1 6 6v8a6 6 0 0 1-6 6H8a6 6 0 0 1-6-6v-8a6 6 0 0 1 6-6h4" stroke="url(#alp)" stroke-width="2.3" fill="none" filter="url(#s3d_loop)"/>
<path d="M32 10l4 4-4 4" stroke="url(#alp)" stroke-width="2.3" fill="none"/>
<path d="M16 30l-4-4 4-4" stroke="url(#alp)" stroke-width="2.3" fill="none" opacity=".5"/>

<path d="M12 10c5-4 14-6 22-2" stroke="white" stroke-width="0.8" opacity=".15" fill="none"/>
</svg>