<svg xmlns="http://www.w3.org/2000/svg" viewBox="0 0 48 48" fill="none" stroke-linecap="round" stroke-linejoin="round">
<defs><linearGradient id="pol" x1="0%" y1="0%" x2="100%" y2="100%"><stop offset="0%" stop-color="#152860"/><stop offset="100%" stop-color="#143697"/></linearGradient><filter id="s3d_police"><feDropShadow dx="1.5" dy="2.5" stdDeviation="2" flood-opacity=".3"/></filter></defs><path d="M4 44 Q14 41 24 43 Q34 45 44 42" stroke="#143697" stroke-width="1" fill="none" opacity="0.22"/>
<path d="M24 4l8 6v4l-2 10-6 8-6-8-2-10v-4z" stroke="url(#pol)" stroke-width="2.5" fill="url(#pol)" fill-opacity="0.08" filter="url(#s3d_police)"/>
<circle cx="24" cy="20" r="5" stroke="#143697" stroke-width="1.7" fill="#143697" fill-opacity="0.12"/>
<path d="M24 17l1.2 2.4 2.6.4-1.9 1.8.4 2.6-2.3-1.2-2.3 1.2.4-2.6-1.9-1.8 2.6-.4z" stroke="#143697" stroke-width="1" fill="#143697" fill-opacity="0.18"/>
<line x1="24" y1="32" x2="24" y2="42" stroke="url(#pol)" stroke-width="2.3"/>
<line x1="16" y1="42" x2="32" y2="42" stroke="url(#pol)" stroke-width="2.3"/>

<path d="M12 10c5-4 14-6 22-2" stroke="#d1d5db" stroke-width="0.8" opacity=".15" fill="none"/>
</svg>