<svg xmlns="http://www.w3.org/2000/svg" viewBox="0 0 48 48" fill="none" stroke-linecap="round" stroke-linejoin="round">
<defs><linearGradient id="mn" x1="0%" y1="0%" x2="100%" y2="100%"><stop offset="0%" stop-color="#00d4ff"/><stop offset="100%" stop-color="#3b82f6"/></linearGradient></defs><path d="M4 44 Q14 41 24 43 Q34 45 44 42" stroke="#00d4ff" stroke-width="1" fill="none" opacity="0.12" stroke-linecap="round"/><path d="M8 8h24a4 4 0 0 1 4 4v24a4 4 0 0 1-4 4H8z" stroke="url(#mn)" stroke-width="2" fill="none"/><path d="M12 8V4h28a4 4 0 0 1 4 4v28a4 4 0 0 1-4 4H36" stroke="url(#mn)" stroke-width="2" fill="none" opacity=".4"/><line x1="14" y1="16" x2="30" y2="16" stroke="url(#mn)" stroke-width="2"/><line x1="14" y1="22" x2="28" y2="22" stroke="url(#mn)" stroke-width="2"/><line x1="14" y1="28" x2="24" y2="28" stroke="url(#mn)" stroke-width="2"/><line x1="14" y1="34" x2="20" y2="34" stroke="url(#mn)" stroke-width="2" opacity=".5"/>
</svg>