<svg xmlns="http://www.w3.org/2000/svg" viewBox="0 0 48 48" fill="none" stroke-linecap="round" stroke-linejoin="round">
<defs><linearGradient id="mp" x1="0%" y1="0%" x2="100%" y2="100%"><stop offset="0%" stop-color="#05657c"/><stop offset="100%" stop-color="#036949"/></linearGradient><filter id="s3d_map"><feDropShadow dx="1.5" dy="2.5" stdDeviation="2" flood-opacity=".3"/></filter></defs>
<path d="M4 44 Q14 41 24 43 Q34 45 44 42" stroke="#05657c" stroke-width="1" fill="none" opacity="0.22"/>
<!-- folded map -->
<path d="M4 8l14 4v28L4 36z" stroke="url(#mp)" stroke-width="2.3" fill="url(#mp)" fill-opacity="0.06" filter="url(#s3d_map)"/>
<path d="M18 12l12-4v28l-12 4z" stroke="url(#mp)" stroke-width="2.3" fill="url(#mp)" fill-opacity="0.03"/>
<path d="M30 8l14 4v28l-14-4z" stroke="url(#mp)" stroke-width="2.3" fill="url(#mp)" fill-opacity="0.06"/>
<!-- fold lines -->
<line x1="18" y1="12" x2="18" y2="40" stroke="url(#mp)" stroke-width="1.7" opacity=".3"/>
<line x1="30" y1="8" x2="30" y2="36" stroke="url(#mp)" stroke-width="1.7" opacity=".3"/>
<!-- pin marker -->
<path d="M24 14c-3 0-6 2.5-6 6 0 4.5 6 10 6 10s6-5.5 6-10c0-3.5-3-6-6-6z" stroke="#9a1a1a" stroke-width="2.1" fill="#9a1a1a" fill-opacity="0.18"/>
<circle cx="24" cy="20" r="2.5" stroke="#9a1a1a" stroke-width="1.7" fill="#9a1a1a" fill-opacity="0.22"/>
<path d="M12 10c5-4 14-6 22-2" stroke="#d1d5db" stroke-width="0.8" opacity=".15" fill="none"/>
</svg>
