<svg xmlns="http://www.w3.org/2000/svg" viewBox="0 0 48 48" fill="none" stroke-linecap="round" stroke-linejoin="round">
<defs><linearGradient id="me" x1="0%" y1="0%" x2="100%" y2="100%"><stop offset="0%" stop-color="#0891b2"/><stop offset="100%" stop-color="#059669"/></linearGradient><filter id="s3d_map_edit"><feDropShadow dx="1.5" dy="2.5" stdDeviation="2" flood-opacity=".3"/></filter></defs>
<path d="M4 44 Q14 41 24 43 Q34 45 44 42" stroke="#0891b2" stroke-width="1" fill="none" opacity="0.22"/>
<!-- folded map -->
<path d="M4 8l14 4v28L4 36z" stroke="url(#me)" stroke-width="2.3" fill="url(#me)" fill-opacity="0.06" filter="url(#s3d_map_edit)"/>
<path d="M18 12l12-4v28l-12 4z" stroke="url(#me)" stroke-width="2.3" fill="url(#me)" fill-opacity="0.03"/>
<path d="M30 8l14 4v28l-14-4z" stroke="url(#me)" stroke-width="2.3" fill="url(#me)" fill-opacity="0.06"/>
<!-- fold lines -->
<line x1="18" y1="12" x2="18" y2="40" stroke="url(#me)" stroke-width="1.7" opacity=".3"/>
<line x1="30" y1="8" x2="30" y2="36" stroke="url(#me)" stroke-width="1.7" opacity=".3"/>
<!-- path/route on map -->
<path d="M10 18c4 2 6 8 14 6s8-4 12 0" stroke="#0891b2" stroke-width="1.7" stroke-dasharray="3 2" opacity=".4"/>
<!-- pencil badge -->
<circle cx="38" cy="36" r="9" stroke="#7c3aed" stroke-width="2.1" fill="#0a0a12" fill-opacity=".92"/>
<path d="M34 40l-1 3 3-1 8-8-2-2z" stroke="#7c3aed" stroke-width="1.8" fill="none"/>
<path d="M42 30l2 2" stroke="#7c3aed" stroke-width="1.8"/>
<path d="M12 10c5-4 14-6 22-2" stroke="white" stroke-width="0.8" opacity=".15" fill="none"/>
</svg>
