<svg xmlns="http://www.w3.org/2000/svg" viewBox="0 0 48 48" fill="none" stroke-linecap="round" stroke-linejoin="round">
<defs><linearGradient id="me" x1="0%" y1="0%" x2="100%" y2="100%"><stop offset="0%" stop-color="#00d4ff"/><stop offset="100%" stop-color="#10b981"/></linearGradient></defs>
<path d="M4 44 Q14 41 24 43 Q34 45 44 42" stroke="#00d4ff" stroke-width="1" fill="none" opacity=".15"/>
<!-- folded map -->
<path d="M4 8l14 4v28L4 36z" stroke="url(#me)" stroke-width="2" fill="url(#me)" fill-opacity=".04"/>
<path d="M18 12l12-4v28l-12 4z" stroke="url(#me)" stroke-width="2" fill="url(#me)" fill-opacity=".02"/>
<path d="M30 8l14 4v28l-14-4z" stroke="url(#me)" stroke-width="2" fill="url(#me)" fill-opacity=".04"/>
<!-- fold lines -->
<line x1="18" y1="12" x2="18" y2="40" stroke="url(#me)" stroke-width="1.5" opacity=".3"/>
<line x1="30" y1="8" x2="30" y2="36" stroke="url(#me)" stroke-width="1.5" opacity=".3"/>
<!-- path/route on map -->
<path d="M10 18c4 2 6 8 14 6s8-4 12 0" stroke="#00d4ff" stroke-width="1.5" stroke-dasharray="3 2" opacity=".4"/>
<!-- pencil badge -->
<circle cx="38" cy="36" r="9" stroke="#a855f7" stroke-width="1.8" fill="#0a0a12" fill-opacity=".92"/>
<path d="M34 40l-1 3 3-1 8-8-2-2z" stroke="#a855f7" stroke-width="1.6" fill="none"/>
<path d="M42 30l2 2" stroke="#a855f7" stroke-width="1.6"/>
</svg>
