<svg xmlns="http://www.w3.org/2000/svg" viewBox="0 0 48 48" fill="none" stroke-linecap="round" stroke-linejoin="round">
<defs><linearGradient id="cr" x1="0%" y1="0%" x2="100%" y2="100%"><stop offset="0%" stop-color="#9a1a1a"/><stop offset="100%" stop-color="#5628a5"/></linearGradient><filter id="s3d_crisis_c"><feDropShadow dx="1.5" dy="2.5" stdDeviation="2" flood-opacity=".3"/></filter></defs><path d="M4 44 Q14 41 24 43 Q34 45 44 42" stroke="#9a1a1a" stroke-width="1" fill="none" opacity="0.22"/>
<path d="M8 12c0-2 2-4 6-4s6 2 6 6v4c0 2-2 6-6 10-4-4-6-8-6-10z" stroke="url(#cr)" stroke-width="2.3" fill="none" filter="url(#s3d_crisis_c)"/>
<path d="M6 36c2-4 6-6 8-4l2 4 4-2c2-1 4 0 4 2v4c0 2-4 4-8 4s-10-4-10-8z" stroke="url(#cr)" stroke-width="2.3" fill="none"/>
<path d="M28 10c2-4 4-6 7-6s6 3 6 7c0 6-8 13-13 16-5-3-6-7-6-10" stroke="#9a1a1a" stroke-width="2.1" fill="#9a1a1a" fill-opacity="0.12"/>
<path d="M28 10c-1-3 0-6 3-6" stroke="#9a1a1a" stroke-width="2.1" fill="none"/>

<path d="M12 10c5-4 14-6 22-2" stroke="#d1d5db" stroke-width="0.8" opacity=".15" fill="none"/>
</svg>