<svg xmlns="http://www.w3.org/2000/svg" viewBox="0 0 48 48" fill="none" stroke-linecap="round" stroke-linejoin="round">
<defs><linearGradient id="cus" x1="0%" y1="0%" x2="100%" y2="100%"><stop offset="0%" stop-color="#143697"/><stop offset="100%" stop-color="#313b49"/></linearGradient><filter id="s3d_customs"><feDropShadow dx="1.5" dy="2.5" stdDeviation="2" flood-opacity=".3"/></filter></defs><path d="M4 44 Q14 41 24 43 Q34 45 44 42" stroke="#143697" stroke-width="1" fill="none" opacity="0.22"/>
<rect x="8" y="14" width="24" height="18" rx="3" stroke="url(#cus)" stroke-width="2.3" fill="none"/>
<path d="M16 14v-4a2 2 0 0 1 2-2h8a2 2 0 0 1 2 2v4" stroke="url(#cus)" stroke-width="2.3" fill="none"/>
<line x1="8" y1="22" x2="32" y2="22" stroke="url(#cus)" stroke-width="1.2" opacity=".3"/>
<circle cx="36" cy="32" r="9" stroke="#143697" stroke-width="2.3" fill="none" fill-opacity="0.09" filter="url(#s3d_customs)"/>
<line x1="42" y1="38" x2="46" y2="42" stroke="#143697" stroke-width="2.9"/>
<line x1="18" y1="26" x2="26" y2="26" stroke="url(#cus)" stroke-width="1" opacity="0.3"/>

<path d="M12 10c5-4 14-6 22-2" stroke="#d1d5db" stroke-width="0.8" opacity=".15" fill="none"/>
</svg>