<svg xmlns="http://www.w3.org/2000/svg" viewBox="0 0 48 48" fill="none" stroke-linecap="round" stroke-linejoin="round">
<defs><linearGradient id="k9" x1="0%" y1="0%" x2="100%" y2="100%"><stop offset="0%" stop-color="#313b49"/><stop offset="100%" stop-color="#143697"/></linearGradient><filter id="s3d_k9_unit"><feDropShadow dx="1.5" dy="2.5" stdDeviation="2" flood-opacity=".3"/></filter></defs><path d="M4 44 Q14 41 24 43 Q34 45 44 42" stroke="#313b49" stroke-width="1" fill="none" opacity="0.22"/>
<path d="M12 20c-2-4 0-8 2-10l4 2c2-4 6-6 10-4l4 6h6c2 2 2 6 0 8l-2 4v10h-4v-6h-4v6h-4v-6h-6v6h-4v-10z" stroke="url(#k9)" stroke-width="2.3" fill="url(#k9)" fill-opacity="0.06" filter="url(#s3d_k9_unit)"/>
<circle cx="32" cy="16" r="1.5" fill="#143697" opacity=".4"/>
<path d="M36 20h4" stroke="url(#k9)" stroke-width="1.7" opacity=".3"/>

<path d="M12 10c5-4 14-6 22-2" stroke="#d1d5db" stroke-width="0.8" opacity=".15" fill="none"/>
</svg>