<svg xmlns="http://www.w3.org/2000/svg" viewBox="0 0 48 48" fill="none" stroke-linecap="round" stroke-linejoin="round">
<defs><linearGradient id="cmd" x1="0%" y1="0%" x2="100%" y2="100%"><stop offset="0%" stop-color="#8d6002"/><stop offset="100%" stop-color="#a33d08"/></linearGradient><filter id="s3d_command"><feDropShadow dx="1.5" dy="2.5" stdDeviation="2" flood-opacity=".3"/></filter></defs><path d="M4 44 Q14 41 24 43 Q34 45 44 42" stroke="#8d6002" stroke-width="1" fill="none" opacity="0.22"/>
<rect x="6" y="12" width="36" height="28" rx="3" stroke="url(#cmd)" stroke-width="2.3" fill="none" fill-opacity="0.09" filter="url(#s3d_command)"/>
<line x1="6" y1="20" x2="42" y2="20" stroke="url(#cmd)" stroke-width="1.7" opacity=".3"/>
<path d="M24 24l2 4 4 .5-3 3 .7 4.5-3.7-2-3.7 2 .7-4.5-3-3 4-.5z" stroke="#8d6002" stroke-width="1.7" fill="#8d6002" fill-opacity="0.22"/>
<path d="M13 14l1 2 2 .3-1.5 1.5.3 2.2-1.8-1-1.8 1 .3-2.2L10 16.3l2-.3z" stroke="#a33d08" stroke-width="1" fill="#a33d08" fill-opacity="0.15" opacity=".5"/>
<path d="M35 14l1 2 2 .3-1.5 1.5.3 2.2-1.8-1-1.8 1 .3-2.2L32 16.3l2-.3z" stroke="#a33d08" stroke-width="1" fill="#a33d08" fill-opacity="0.15" opacity=".5"/>

<path d="M12 10c5-4 14-6 22-2" stroke="#d1d5db" stroke-width="0.8" opacity=".15" fill="none"/>
</svg>