<svg xmlns="http://www.w3.org/2000/svg" viewBox="0 0 48 48" fill="none" stroke-linecap="round" stroke-linejoin="round">
<defs><linearGradient id="com" x1="0%" y1="0%" x2="100%" y2="100%"><stop offset="0%" stop-color="#05657c"/><stop offset="100%" stop-color="#036949"/></linearGradient><filter id="s3d_comms"><feDropShadow dx="1.5" dy="2.5" stdDeviation="2" flood-opacity=".3"/></filter></defs><path d="M4 44 Q14 41 24 43 Q34 45 44 42" stroke="#05657c" stroke-width="1" fill="none" opacity="0.22"/>
<rect x="14" y="18" width="20" height="24" rx="3" stroke="url(#com)" stroke-width="2.3" fill="none" fill-opacity="0.09" filter="url(#s3d_comms)"/>
<line x1="24" y1="18" x2="24" y2="6" stroke="url(#com)" stroke-width="2.9"/>
<path d="M16 10c2-4 6-6 8-6" stroke="#05657c" stroke-width="1.7" fill="none" opacity=".4"/>
<path d="M32 10c-2-4-6-6-8-6" stroke="#05657c" stroke-width="1.7" fill="none" opacity=".4"/>
<circle cx="24" cy="6" r="2" fill="#05657c" opacity=".3"/>
<line x1="18" y1="26" x2="30" y2="26" stroke="url(#com)" stroke-width="1.2" opacity=".3"/>
<line x1="18" y1="31" x2="28" y2="31" stroke="url(#com)" stroke-width="1.2" opacity="0.38"/>
<circle cx="21" cy="37" r="2" stroke="#036949" stroke-width="1" fill="#036949" fill-opacity="0.22"/>
<circle cx="27" cy="37" r="2" stroke="#05657c" stroke-width="1" fill="#05657c" fill-opacity="0.22"/>

<path d="M12 10c5-4 14-6 22-2" stroke="#d1d5db" stroke-width="0.8" opacity=".15" fill="none"/>
</svg>