<svg xmlns="http://www.w3.org/2000/svg" viewBox="0 0 48 48" fill="none" stroke-linecap="round" stroke-linejoin="round">
<defs><linearGradient id="dr" x1="0%" y1="0%" x2="100%" y2="100%"><stop offset="0%" stop-color="#05657c"/><stop offset="100%" stop-color="#313b49"/></linearGradient><filter id="s3d_drone"><feDropShadow dx="1.5" dy="2.5" stdDeviation="2" flood-opacity=".3"/></filter></defs><path d="M4 44 Q14 41 24 43 Q34 45 44 42" stroke="#05657c" stroke-width="1" fill="none" opacity="0.22"/>
<!-- body -->
<ellipse cx="24" cy="24" rx="6" ry="3" stroke="url(#dr)" stroke-width="2.3" fill="url(#dr)" fill-opacity="0.09" filter="url(#s3d_drone)"/>
<!-- arms -->
<line x1="18" y1="22" x2="8" y2="12" stroke="url(#dr)" stroke-width="2.3"/>
<line x1="30" y1="22" x2="40" y2="12" stroke="url(#dr)" stroke-width="2.3"/>
<line x1="18" y1="26" x2="8" y2="36" stroke="url(#dr)" stroke-width="2.3"/>
<line x1="30" y1="26" x2="40" y2="36" stroke="url(#dr)" stroke-width="2.3"/>
<!-- rotors -->
<ellipse cx="8" cy="12" rx="6" ry="2" stroke="#05657c" stroke-width="1.7" fill="#05657c" fill-opacity="0.09"/>
<ellipse cx="40" cy="12" rx="6" ry="2" stroke="#05657c" stroke-width="1.7" fill="#05657c" fill-opacity="0.09"/>
<ellipse cx="8" cy="36" rx="6" ry="2" stroke="#05657c" stroke-width="1.7" fill="#05657c" fill-opacity="0.09"/>
<ellipse cx="40" cy="36" rx="6" ry="2" stroke="#05657c" stroke-width="1.7" fill="#05657c" fill-opacity="0.09"/>
<!-- rotor centers -->
<circle cx="8" cy="12" r="1.5" fill="#05657c" opacity=".3"/>
<circle cx="40" cy="12" r="1.5" fill="#05657c" opacity=".3"/>
<circle cx="8" cy="36" r="1.5" fill="#05657c" opacity=".3"/>
<circle cx="40" cy="36" r="1.5" fill="#05657c" opacity=".3"/>
<!-- camera -->
<circle cx="24" cy="24" r="2" stroke="#05657c" stroke-width="1" fill="#05657c" fill-opacity="0.22"/>

<path d="M12 10c5-4 14-6 22-2" stroke="#d1d5db" stroke-width="0.8" opacity=".15" fill="none"/>
</svg>