<svg xmlns="http://www.w3.org/2000/svg" viewBox="0 0 48 48" fill="none" stroke-linecap="round" stroke-linejoin="round">
<defs><linearGradient id="ru" x1="0%" y1="0%" x2="100%" y2="100%"><stop offset="0%" stop-color="#152860"/><stop offset="100%" stop-color="#9a1a1a"/></linearGradient><filter id="s3d_specnaz_"><feDropShadow dx="1.5" dy="2.5" stdDeviation="2" flood-opacity=".3"/></filter></defs><path d="M4 44 Q14 41 24 43 Q34 45 44 42" stroke="#152860" stroke-width="1" fill="none" opacity="0.22"/>
<!-- shield -->
<path d="M24 4L8 12v14c0 10 7 14 16 16 9-2 16-6 16-16V12z" stroke="url(#ru)" stroke-width="2.5" fill="none" filter="url(#s3d_specnaz_)"/>
<!-- flag stripes: white, blue, red -->
<line x1="14" y1="14" x2="34" y2="14" stroke="#8e959d" stroke-width="3.4" opacity=".3"/>
<line x1="14" y1="20" x2="34" y2="20" stroke="#152860" stroke-width="3.4" opacity=".4"/>
<line x1="14" y1="26" x2="34" y2="26" stroke="#9a1a1a" stroke-width="3.4" opacity=".35"/>
<!-- star -->
<path d="M24 30l1.8 3.6 4 .6-2.9 2.8.7 4-3.6-1.9-3.6 1.9.7-4-2.9-2.8 4-.6z" stroke="#9a1a1a" stroke-width="1.2" fill="#9a1a1a" fill-opacity="0.22"/>
<!-- crosshair accents -->
<line x1="24" y1="6" x2="24" y2="9" stroke="#8e959d" stroke-width="1" opacity=".3"/>

<path d="M12 10c5-4 14-6 22-2" stroke="#d1d5db" stroke-width="0.8" opacity=".15" fill="none"/>
</svg>