<svg xmlns="http://www.w3.org/2000/svg" viewBox="0 0 48 48" fill="none" stroke-linecap="round" stroke-linejoin="round">
<defs><linearGradient id="ua" x1="0%" y1="0%" x2="100%" y2="100%"><stop offset="0%" stop-color="#2563eb"/><stop offset="100%" stop-color="#eab308"/></linearGradient></defs><path d="M4 44 Q14 41 24 43 Q34 45 44 42" stroke="#2563eb" stroke-width="1" fill="none" opacity="0.15"/>
<!-- shield -->
<path d="M24 4L8 12v14c0 10 7 14 16 16 9-2 16-6 16-16V12z" stroke="url(#ua)" stroke-width="2.2" fill="none"/>
<!-- flag: blue top, yellow bottom -->
<rect x="14" y="13" width="20" height="8" rx="0" stroke="none" fill="#2563eb" fill-opacity=".25"/>
<rect x="14" y="21" width="20" height="6" rx="0" stroke="none" fill="#eab308" fill-opacity=".25"/>
<!-- trident (tryzub) simplified -->
<path d="M24 28v8" stroke="#eab308" stroke-width="2"/>
<path d="M20 30v5" stroke="#eab308" stroke-width="1.5" opacity=".5"/>
<path d="M28 30v5" stroke="#eab308" stroke-width="1.5" opacity=".5"/>
<path d="M20 30c0-3 4-5 4-5s4 2 4 5" stroke="#eab308" stroke-width="1.5" fill="none" opacity=".5"/>
<path d="M18 30h12" stroke="#eab308" stroke-width="1" opacity=".3"/>
<!-- crosshair dot -->
<circle cx="24" cy="10" r="1.5" fill="#2563eb" opacity=".3"/>

</svg>