<svg xmlns="http://www.w3.org/2000/svg" viewBox="0 0 48 48" fill="none" stroke-linecap="round" stroke-linejoin="round">
<defs><linearGradient id="ci" x1="0%" y1="0%" x2="100%" y2="100%"><stop offset="0%" stop-color="#a855f7"/><stop offset="100%" stop-color="#64748b"/></linearGradient></defs><path d="M4 44 Q14 41 24 43 Q34 45 44 42" stroke="#a855f7" stroke-width="1" fill="none" opacity="0.15"/>
<!-- ID card back -->
<rect x="14" y="6" width="22" height="16" rx="2" stroke="#64748b" stroke-width="1.5" fill="none" opacity=".35"/>
<circle cx="30" cy="12" r="3" stroke="#64748b" stroke-width="1" fill="none" opacity=".25"/>
<line x1="18" y1="18" x2="28" y2="18" stroke="#64748b" stroke-width="1" opacity=".2"/>
<!-- ID card front (overlapping) -->
<rect x="8" y="14" width="22" height="16" rx="2" stroke="url(#ci)" stroke-width="2" fill="#0a0a12" fill-opacity=".8"/>
<circle cx="16" cy="20" r="3.5" stroke="#a855f7" stroke-width="1.5" fill="none"/>
<line x1="22" y1="18" x2="28" y2="18" stroke="url(#ci)" stroke-width="1.2" opacity=".4"/>
<line x1="22" y1="22" x2="26" y2="22" stroke="url(#ci)" stroke-width="1.2" opacity=".3"/>
<line x1="22" y1="26" x2="28" y2="26" stroke="url(#ci)" stroke-width="1" opacity=".2"/>
<!-- mask -->
<path d="M30 32c-4 0-8 2-8 6s4 8 8 8 8-4 8-8-4-6-8-6z" stroke="#a855f7" stroke-width="1.8" fill="#a855f7" fill-opacity=".06"/>
<circle cx="27" cy="37" r="1.5" fill="#a855f7" opacity=".3"/>
<circle cx="33" cy="37" r="1.5" fill="#a855f7" opacity=".3"/>

</svg>