<svg xmlns="http://www.w3.org/2000/svg" viewBox="0 0 48 48" fill="none" stroke-linecap="round" stroke-linejoin="round">
<defs><linearGradient id="dd" x1="0%" y1="0%" x2="100%" y2="100%"><stop offset="0%" stop-color="#64748b"/><stop offset="100%" stop-color="#65a30d"/></linearGradient></defs><path d="M4 44 Q14 41 24 43 Q34 45 44 42" stroke="#64748b" stroke-width="1" fill="none" opacity="0.15"/>
<!-- park bench -->
<line x1="6" y1="28" x2="42" y2="28" stroke="url(#dd)" stroke-width="2.5"/>
<line x1="6" y1="34" x2="42" y2="34" stroke="url(#dd)" stroke-width="2.5"/>
<line x1="10" y1="24" x2="10" y2="40" stroke="url(#dd)" stroke-width="2"/>
<line x1="38" y1="24" x2="38" y2="40" stroke="url(#dd)" stroke-width="2"/>
<!-- hidden package under bench -->
<rect x="18" y="36" width="10" height="7" rx="1.5" stroke="#65a30d" stroke-width="1.8" fill="#65a30d" fill-opacity=".08" stroke-dasharray="3 2"/>
<text x="23" y="42" font-size="7" fill="#65a30d" font-weight="800" opacity=".4">?</text>
<!-- location pin -->
<path d="M24 6c-3 0-5 2-5 5 0 3.5 5 8 5 8s5-4.5 5-8c0-3-2-5-5-5z" stroke="#ef4444" stroke-width="1.5" fill="#ef4444" fill-opacity=".1"/>
<circle cx="24" cy="11" r="1.5" fill="#ef4444" opacity=".3"/>

</svg>