<svg xmlns="http://www.w3.org/2000/svg" viewBox="0 0 48 48" fill="none" stroke-linecap="round" stroke-linejoin="round">
<defs><linearGradient id="ec" x1="0%" y1="0%" x2="100%" y2="100%"><stop offset="0%" stop-color="#10b981"/><stop offset="100%" stop-color="#00d4ff"/></linearGradient></defs><path d="M4 44 Q14 41 24 43 Q34 45 44 42" stroke="#10b981" stroke-width="1" fill="none" opacity="0.15"/>
<!-- chat bubble -->
<path d="M6 8h30a3 3 0 0 1 3 3v16a3 3 0 0 1-3 3H18l-8 6v-6H6a3 3 0 0 1-3-3V11a3 3 0 0 1 3-3z" stroke="url(#ec)" stroke-width="2" fill="none"/>
<!-- lock inside -->
<rect x="17" y="18" width="12" height="10" rx="2" stroke="#10b981" stroke-width="1.8" fill="#10b981" fill-opacity=".08"/>
<path d="M20 18v-4c0-3 2-5 4-5s4 2 4 5v4" stroke="#10b981" stroke-width="1.8" fill="none"/>
<circle cx="23" cy="24" r="1.5" fill="#10b981" opacity=".4"/>
<line x1="23" y1="25" x2="23" y2="27" stroke="#10b981" stroke-width="1.5" opacity=".3"/>
<!-- signal dots -->
<circle cx="40" cy="40" r="2" fill="#00d4ff" opacity=".2"/>
<circle cx="44" cy="36" r="1.5" fill="#00d4ff" opacity=".15"/>

</svg>