<svg xmlns="http://www.w3.org/2000/svg" viewBox="0 0 48 48" fill="none" stroke-linecap="round" stroke-linejoin="round">
<defs><linearGradient id="ec" x1="0%" y1="0%" x2="100%" y2="100%"><stop offset="0%" stop-color="#036949"/><stop offset="100%" stop-color="#05657c"/></linearGradient><filter id="s3d_encrypte"><feDropShadow dx="1.5" dy="2.5" stdDeviation="2" flood-opacity=".3"/></filter></defs><path d="M4 44 Q14 41 24 43 Q34 45 44 42" stroke="#036949" stroke-width="1" fill="none" opacity="0.22"/>
<!-- chat bubble -->
<path d="M6 8h30a3 3 0 0 1 3 3v16a3 3 0 0 1-3 3H18l-8 6v-6H6a3 3 0 0 1-3-3V11a3 3 0 0 1 3-3z" stroke="url(#ec)" stroke-width="2.3" fill="none" filter="url(#s3d_encrypte)"/>
<!-- lock inside -->
<rect x="17" y="18" width="12" height="10" rx="2" stroke="#036949" stroke-width="2.1" fill="#036949" fill-opacity="0.12"/>
<path d="M20 18v-4c0-3 2-5 4-5s4 2 4 5v4" stroke="#036949" stroke-width="2.1" fill="none"/>
<circle cx="23" cy="24" r="1.5" fill="#036949" opacity=".4"/>
<line x1="23" y1="25" x2="23" y2="27" stroke="#036949" stroke-width="1.7" opacity=".3"/>
<!-- signal dots -->
<circle cx="40" cy="40" r="2" fill="#05657c" opacity="0.3"/>
<circle cx="44" cy="36" r="1.5" fill="#05657c" opacity="0.22"/>

<path d="M12 10c5-4 14-6 22-2" stroke="#d1d5db" stroke-width="0.8" opacity=".15" fill="none"/>
</svg>