<svg xmlns="http://www.w3.org/2000/svg" viewBox="0 0 48 48" fill="none" stroke-linecap="round" stroke-linejoin="round">
<defs><linearGradient id="ho" x1="0%" y1="0%" x2="100%" y2="100%"><stop offset="0%" stop-color="#64748b"/><stop offset="100%" stop-color="#00d4ff"/></linearGradient></defs><path d="M4 44 Q14 41 24 43 Q34 45 44 42" stroke="#64748b" stroke-width="1" fill="none" opacity="0.15"/>
<!-- left hand -->
<path d="M4 26c4-2 8-2 10 0l2 4" stroke="url(#ho)" stroke-width="2.2" fill="none"/>
<path d="M4 22v8" stroke="url(#ho)" stroke-width="2"/>
<!-- right hand -->
<path d="M44 26c-4-2-8-2-10 0l-2 4" stroke="url(#ho)" stroke-width="2.2" fill="none"/>
<path d="M44 22v8" stroke="url(#ho)" stroke-width="2"/>
<!-- document being passed -->
<rect x="16" y="16" width="16" height="20" rx="2" stroke="#00d4ff" stroke-width="1.8" fill="#00d4ff" fill-opacity=".04"/>
<line x1="20" y1="22" x2="28" y2="22" stroke="#00d4ff" stroke-width="1" opacity=".35"/>
<line x1="20" y1="26" x2="26" y2="26" stroke="#00d4ff" stroke-width="1" opacity=".25"/>
<line x1="20" y1="30" x2="28" y2="30" stroke="#00d4ff" stroke-width="1" opacity=".2"/>
<!-- classified stamp -->
<rect x="18" y="12" width="12" height="5" rx="1" stroke="#ef4444" stroke-width="1" fill="#ef4444" fill-opacity=".06" stroke-dasharray="2 1"/>

</svg>