<svg xmlns="http://www.w3.org/2000/svg" viewBox="0 0 48 48" fill="none" stroke-linecap="round" stroke-linejoin="round">
<defs><linearGradient id="ir" x1="0%" y1="0%" x2="100%" y2="100%"><stop offset="0%" stop-color="#9a1a1a"/><stop offset="100%" stop-color="#a33d08"/></linearGradient><filter id="s3d_intel_re"><feDropShadow dx="1.5" dy="2.5" stdDeviation="2" flood-opacity=".3"/></filter></defs><path d="M4 44 Q14 41 24 43 Q34 45 44 42" stroke="#9a1a1a" stroke-width="1" fill="none" opacity="0.22"/>
<!-- folder -->
<path d="M4 12h12l4 4h20a3 3 0 0 1 3 3v18a3 3 0 0 1-3 3H4a3 3 0 0 1-3-3V15a3 3 0 0 1 3-3z" stroke="url(#ir)" stroke-width="2.3" fill="none" filter="url(#s3d_intel_re)"/>
<!-- document peeking out -->
<rect x="12" y="6" width="20" height="10" rx="2" stroke="url(#ir)" stroke-width="1.2" fill="none" opacity=".3"/>
<line x1="16" y1="10" x2="28" y2="10" stroke="url(#ir)" stroke-width="1" opacity="0.3"/>
<!-- TOP SECRET stamp -->
<rect x="10" y="24" width="28" height="10" rx="2" stroke="#9a1a1a" stroke-width="2.1" stroke-dasharray="3 2" fill="#9a1a1a" fill-opacity="0.06" transform="rotate(-8 24 29)"/>
<text x="24" y="31" text-anchor="middle" font-size="6.5" fill="#9a1a1a" font-weight="900" font-family="sans-serif" opacity=".5" transform="rotate(-8 24 29)">TOP SECRET</text>

<path d="M12 10c5-4 14-6 22-2" stroke="#d1d5db" stroke-width="0.8" opacity=".15" fill="none"/>
</svg>