<svg xmlns="http://www.w3.org/2000/svg" viewBox="0 0 48 48" fill="none" stroke-linecap="round" stroke-linejoin="round">
<defs><linearGradient id="ir" x1="0%" y1="0%" x2="100%" y2="100%"><stop offset="0%" stop-color="#ef4444"/><stop offset="100%" stop-color="#f97316"/></linearGradient></defs><path d="M4 44 Q14 41 24 43 Q34 45 44 42" stroke="#ef4444" stroke-width="1" fill="none" opacity="0.15"/>
<!-- folder -->
<path d="M4 12h12l4 4h20a3 3 0 0 1 3 3v18a3 3 0 0 1-3 3H4a3 3 0 0 1-3-3V15a3 3 0 0 1 3-3z" stroke="url(#ir)" stroke-width="2" fill="none"/>
<!-- document peeking out -->
<rect x="12" y="6" width="20" height="10" rx="2" stroke="url(#ir)" stroke-width="1.2" fill="none" opacity=".3"/>
<line x1="16" y1="10" x2="28" y2="10" stroke="url(#ir)" stroke-width="1" opacity=".2"/>
<!-- TOP SECRET stamp -->
<rect x="10" y="24" width="28" height="10" rx="2" stroke="#ef4444" stroke-width="1.8" stroke-dasharray="3 2" fill="#ef4444" fill-opacity=".04" transform="rotate(-8 24 29)"/>
<text x="24" y="31" text-anchor="middle" font-size="6.5" fill="#ef4444" font-weight="900" font-family="sans-serif" opacity=".5" transform="rotate(-8 24 29)">TOP SECRET</text>

</svg>