<svg xmlns="http://www.w3.org/2000/svg" viewBox="0 0 48 48" fill="none" stroke-linecap="round" stroke-linejoin="round">
<defs><linearGradient id="lp" x1="0%" y1="0%" x2="100%" y2="100%"><stop offset="0%" stop-color="#00d4ff"/><stop offset="100%" stop-color="#a855f7"/></linearGradient></defs><path d="M4 44 Q14 41 24 43 Q34 45 44 42" stroke="#00d4ff" stroke-width="1" fill="none" opacity="0.15"/>
<!-- dish -->
<path d="M8 32c0-14 7-26 16-26s16 12 16 26" stroke="url(#lp)" stroke-width="2.2" fill="url(#lp)" fill-opacity=".03"/>
<path d="M14 32c0-10 4-18 10-18s10 8 10 18" stroke="url(#lp)" stroke-width="1.5" fill="none" opacity=".4"/>
<!-- feed horn -->
<circle cx="24" cy="32" r="3" stroke="#00d4ff" stroke-width="1.8" fill="#00d4ff" fill-opacity=".1"/>
<line x1="24" y1="32" x2="24" y2="14" stroke="#00d4ff" stroke-width="1.5" opacity=".3"/>
<!-- base -->
<line x1="24" y1="32" x2="24" y2="44" stroke="url(#lp)" stroke-width="2.5"/>
<line x1="14" y1="44" x2="34" y2="44" stroke="url(#lp)" stroke-width="2.5"/>
<!-- signal waves -->
<path d="M36 10c2-2 4-2 6 0" stroke="#a855f7" stroke-width="1.2" opacity=".35"/>
<path d="M38 6c2-2 5-2 7 0" stroke="#a855f7" stroke-width="1" opacity=".25"/>
<path d="M40 2c2-1 4-1 6 0" stroke="#a855f7" stroke-width="0.8" opacity=".15"/>

</svg>