<svg xmlns="http://www.w3.org/2000/svg" viewBox="0 0 48 48" fill="none" stroke-linecap="round" stroke-linejoin="round">
<defs><linearGradient id="ms" x1="0%" y1="0%" x2="100%" y2="100%"><stop offset="0%" stop-color="#65a30d"/><stop offset="100%" stop-color="#64748b"/></linearGradient></defs><path d="M4 44 Q14 41 24 43 Q34 45 44 42" stroke="#65a30d" stroke-width="1" fill="none" opacity="0.15"/>
<!-- head -->
<circle cx="24" cy="10" r="6" stroke="url(#ms)" stroke-width="2" fill="none"/>
<!-- beret -->
<path d="M16 8c0-3 4-5 8-5s8 2 8 5" stroke="#65a30d" stroke-width="2" fill="#65a30d" fill-opacity=".1"/>
<line x1="16" y1="8" x2="34" y2="8" stroke="#65a30d" stroke-width="2"/>
<!-- body -->
<path d="M12 42v-12c0-6 5-10 12-10s12 4 12 10v12" stroke="url(#ms)" stroke-width="2" fill="none"/>
<!-- epaulets -->
<line x1="12" y1="22" x2="16" y2="20" stroke="#65a30d" stroke-width="2.5"/>
<line x1="36" y1="22" x2="32" y2="20" stroke="#65a30d" stroke-width="2.5"/>
<!-- binoculars held up -->
<circle cx="20" cy="30" r="4" stroke="#64748b" stroke-width="1.5" fill="none" opacity=".5"/>
<circle cx="30" cy="30" r="4" stroke="#64748b" stroke-width="1.5" fill="none" opacity=".5"/>
<line x1="24" y1="28" x2="24" y2="32" stroke="#64748b" stroke-width="1.5" opacity=".4"/>

</svg>