<svg xmlns="http://www.w3.org/2000/svg" viewBox="0 0 48 48" fill="none" stroke-linecap="round" stroke-linejoin="round">
<defs><linearGradient id="sh" x1="0%" y1="0%" x2="100%" y2="100%"><stop offset="0%" stop-color="#10b981"/><stop offset="100%" stop-color="#64748b"/></linearGradient></defs><path d="M4 44 Q14 41 24 43 Q34 45 44 42" stroke="#10b981" stroke-width="1" fill="none" opacity="0.15"/>
<!-- house -->
<path d="M24 6L6 20v20a2 2 0 0 0 2 2h32a2 2 0 0 0 2-2V20z" stroke="url(#sh)" stroke-width="2" fill="none"/>
<rect x="18" y="28" width="12" height="14" rx="1" stroke="url(#sh)" stroke-width="1.5" fill="none"/>
<!-- window -->
<rect x="10" y="24" width="6" height="6" rx="1" stroke="url(#sh)" stroke-width="1.2" fill="none" opacity=".3"/>
<rect x="32" y="24" width="6" height="6" rx="1" stroke="url(#sh)" stroke-width="1.2" fill="none" opacity=".3"/>
<!-- shield overlay -->
<path d="M24 14l-8 4v6c0 4 3 7 8 8 5-1 8-4 8-8v-6z" stroke="#10b981" stroke-width="1.8" fill="#10b981" fill-opacity=".06"/>
<path d="M22 22l2 2 4-4" stroke="#10b981" stroke-width="1.5" fill="none" opacity=".5"/>

</svg>