<svg xmlns="http://www.w3.org/2000/svg" viewBox="0 0 48 48" fill="none" stroke-linecap="round" stroke-linejoin="round">
<defs><linearGradient id="sp" x1="0%" y1="0%" x2="100%" y2="100%"><stop offset="0%" stop-color="#313b49"/><stop offset="100%" stop-color="#5628a5"/></linearGradient><filter id="s3d_spy"><feDropShadow dx="1.5" dy="2.5" stdDeviation="2" flood-opacity=".3"/></filter></defs><path d="M4 44 Q14 41 24 43 Q34 45 44 42" stroke="#313b49" stroke-width="1" fill="none" opacity="0.22"/>
<!-- hat -->
<ellipse cx="24" cy="12" rx="14" ry="3" stroke="url(#sp)" stroke-width="2.3" fill="url(#sp)" fill-opacity="0.08" filter="url(#s3d_spy)"/>
<path d="M14 12c0-6 4-10 10-10s10 4 10 10" stroke="url(#sp)" stroke-width="2.3" fill="url(#sp)" fill-opacity="0.06"/>
<!-- face shadow -->
<circle cx="24" cy="18" r="6" stroke="url(#sp)" stroke-width="1.7" fill="none" opacity=".3"/>
<!-- eyes only -->
<circle cx="21" cy="17" r="1.2" fill="#5628a5" opacity=".5"/>
<circle cx="27" cy="17" r="1.2" fill="#5628a5" opacity=".5"/>
<!-- coat/collar -->
<path d="M14 24l10 6 10-6" stroke="url(#sp)" stroke-width="2.3" fill="none"/>
<path d="M14 24v18" stroke="url(#sp)" stroke-width="2.3"/>
<path d="M34 24v18" stroke="url(#sp)" stroke-width="2.3"/>
<line x1="24" y1="30" x2="24" y2="42" stroke="url(#sp)" stroke-width="1.7" opacity=".3"/>

<path d="M12 10c5-4 14-6 22-2" stroke="#d1d5db" stroke-width="0.8" opacity=".15" fill="none"/>
</svg>