<svg xmlns="http://www.w3.org/2000/svg" viewBox="0 0 48 48" fill="none" stroke-linecap="round" stroke-linejoin="round">
<defs><linearGradient id="tr" x1="0%" y1="0%" x2="100%" y2="100%"><stop offset="0%" stop-color="#00d4ff"/><stop offset="100%" stop-color="#10b981"/></linearGradient></defs><path d="M4 44 Q14 41 24 43 Q34 45 44 42" stroke="#00d4ff" stroke-width="1" fill="none" opacity="0.15"/>
<!-- map grid background -->
<line x1="4" y1="16" x2="44" y2="16" stroke="url(#tr)" stroke-width="0.8" opacity=".1"/>
<line x1="4" y1="28" x2="44" y2="28" stroke="url(#tr)" stroke-width="0.8" opacity=".1"/>
<line x1="16" y1="4" x2="16" y2="44" stroke="url(#tr)" stroke-width="0.8" opacity=".1"/>
<line x1="32" y1="4" x2="32" y2="44" stroke="url(#tr)" stroke-width="0.8" opacity=".1"/>
<!-- trail/path -->
<path d="M8 40c4-4 8-2 12-8s4-8 8-12 6-2 10-6" stroke="#10b981" stroke-width="2" stroke-dasharray="4 2" fill="none" opacity=".4"/>
<!-- dots along trail -->
<circle cx="8" cy="40" r="2" fill="#10b981" opacity=".2"/>
<circle cx="20" cy="32" r="2" fill="#10b981" opacity=".25"/>
<circle cx="28" cy="20" r="2" fill="#10b981" opacity=".3"/>
<!-- target reticle -->
<circle cx="38" cy="14" r="7" stroke="#00d4ff" stroke-width="2" fill="none"/>
<circle cx="38" cy="14" r="3" stroke="#00d4ff" stroke-width="1.5" fill="none" opacity=".5"/>
<circle cx="38" cy="14" r="1" fill="#00d4ff" opacity=".5"/>
<line x1="38" y1="5" x2="38" y2="9" stroke="#00d4ff" stroke-width="1.5" opacity=".4"/>
<line x1="38" y1="19" x2="38" y2="23" stroke="#00d4ff" stroke-width="1.5" opacity=".4"/>
<line x1="29" y1="14" x2="33" y2="14" stroke="#00d4ff" stroke-width="1.5" opacity=".4"/>
<line x1="43" y1="14" x2="47" y2="14" stroke="#00d4ff" stroke-width="1.5" opacity=".4"/>

</svg>