<svg xmlns="http://www.w3.org/2000/svg" viewBox="0 0 48 48" fill="none" stroke-linecap="round" stroke-linejoin="round">
<defs><linearGradient id="tr" x1="0%" y1="0%" x2="100%" y2="100%"><stop offset="0%" stop-color="#05657c"/><stop offset="100%" stop-color="#036949"/></linearGradient><filter id="s3d_tracking"><feDropShadow dx="1.5" dy="2.5" stdDeviation="2" flood-opacity=".3"/></filter></defs><path d="M4 44 Q14 41 24 43 Q34 45 44 42" stroke="#05657c" stroke-width="1" fill="none" opacity="0.22"/>
<!-- map grid background -->
<line x1="4" y1="16" x2="44" y2="16" stroke="url(#tr)" stroke-width="0.8" opacity="0.15"/>
<line x1="4" y1="28" x2="44" y2="28" stroke="url(#tr)" stroke-width="0.8" opacity="0.15"/>
<line x1="16" y1="4" x2="16" y2="44" stroke="url(#tr)" stroke-width="0.8" opacity="0.15"/>
<line x1="32" y1="4" x2="32" y2="44" stroke="url(#tr)" stroke-width="0.8" opacity="0.15"/>
<!-- trail/path -->
<path d="M8 40c4-4 8-2 12-8s4-8 8-12 6-2 10-6" stroke="#036949" stroke-width="2.3" stroke-dasharray="4 2" fill="none" opacity=".4"/>
<!-- dots along trail -->
<circle cx="8" cy="40" r="2" fill="#036949" opacity="0.3"/>
<circle cx="20" cy="32" r="2" fill="#036949" opacity="0.38"/>
<circle cx="28" cy="20" r="2" fill="#036949" opacity=".3"/>
<!-- target reticle -->
<circle cx="38" cy="14" r="7" stroke="#05657c" stroke-width="2.3" fill="none" fill-opacity="0.09" filter="url(#s3d_tracking)"/>
<circle cx="38" cy="14" r="3" stroke="#05657c" stroke-width="1.7" fill="none" opacity=".5"/>
<circle cx="38" cy="14" r="1" fill="#05657c" opacity=".5"/>
<line x1="38" y1="5" x2="38" y2="9" stroke="#05657c" stroke-width="1.7" opacity=".4"/>
<line x1="38" y1="19" x2="38" y2="23" stroke="#05657c" stroke-width="1.7" opacity=".4"/>
<line x1="29" y1="14" x2="33" y2="14" stroke="#05657c" stroke-width="1.7" opacity=".4"/>
<line x1="43" y1="14" x2="47" y2="14" stroke="#05657c" stroke-width="1.7" opacity=".4"/>

<path d="M12 10c5-4 14-6 22-2" stroke="#d1d5db" stroke-width="0.8" opacity=".15" fill="none"/>
</svg>