<svg xmlns="http://www.w3.org/2000/svg" viewBox="0 0 48 48" fill="none" stroke-linecap="round" stroke-linejoin="round">
<defs><linearGradient id="ppl" x1="0%" y1="0%" x2="100%" y2="100%"><stop offset="0%" stop-color="#ef4444"/><stop offset="100%" stop-color="#a855f7"/></linearGradient></defs><path d="M4 44 Q14 41 24 43 Q34 45 44 42" stroke="#ef4444" stroke-width="1" fill="none" opacity="0.15" stroke-linecap="round"/>
<!-- text lines (background) -->
<line x1="4" y1="10" x2="32" y2="10" stroke="url(#ppl)" stroke-width="2" opacity=".25"/>
<line x1="4" y1="18" x2="28" y2="18" stroke="url(#ppl)" stroke-width="2" opacity=".2"/>
<line x1="4" y1="26" x2="30" y2="26" stroke="url(#ppl)" stroke-width="2" opacity=".2"/>
<line x1="4" y1="34" x2="24" y2="34" stroke="url(#ppl)" stroke-width="2" opacity=".15"/>
<!-- correction: strikethrough on line 2 -->
<line x1="8" y1="18" x2="20" y2="18" stroke="#ef4444" stroke-width="1.5" opacity=".5"/>
<!-- correction: caret insert on line 3 -->
<path d="M12 30l2-3 2 3" stroke="#10b981" stroke-width="1.5" fill="none" opacity=".5"/>
<!-- magnifying glass -->
<circle cx="28" cy="22" r="10" stroke="url(#ppl)" stroke-width="2.2" fill="none"/>
<circle cx="28" cy="22" r="10" stroke="none" fill="#0a0a12" fill-opacity=".5"/>
<line x1="35" y1="29" x2="42" y2="36" stroke="url(#ppl)" stroke-width="3"/>
<!-- text visible inside magnifier (enlarged) -->
<line x1="22" y1="20" x2="34" y2="20" stroke="#a855f7" stroke-width="1.5" opacity=".5"/>
<line x1="22" y1="24" x2="32" y2="24" stroke="#a855f7" stroke-width="1.5" opacity=".4"/>
<!-- PL badge -->
<rect x="34" y="36" width="13" height="10" rx="3" stroke="#ef4444" stroke-width="1.8" fill="#0a0a12" fill-opacity=".92"/>
<text x="40.5" y="44" text-anchor="middle" font-size="7.5" fill="#ef4444" font-weight="800" opacity=".75">PL</text>

</svg>