<svg xmlns="http://www.w3.org/2000/svg" viewBox="0 0 48 48" fill="none" stroke-linecap="round" stroke-linejoin="round">
<defs><linearGradient id="ppl" x1="0%" y1="0%" x2="100%" y2="100%"><stop offset="0%" stop-color="#dc2626"/><stop offset="100%" stop-color="#7c3aed"/></linearGradient><filter id="s3d_proofrea"><feDropShadow dx="1.5" dy="2.5" stdDeviation="2" flood-opacity=".3"/></filter></defs>
<path d="M4 44 Q14 41 24 43 Q34 45 44 42" stroke="#dc2626" stroke-width="1" fill="none" opacity="0.22"/>
<!-- text lines -->
<line x1="4" y1="10" x2="32" y2="10" stroke="url(#ppl)" stroke-width="2.3" opacity="0.38"/>
<line x1="4" y1="18" x2="28" y2="18" stroke="url(#ppl)" stroke-width="2.3" opacity="0.3"/>
<line x1="4" y1="26" x2="30" y2="26" stroke="url(#ppl)" stroke-width="2.3" opacity="0.3"/>
<line x1="4" y1="34" x2="24" y2="34" stroke="url(#ppl)" stroke-width="2.3" opacity="0.22"/>
<!-- correction marks -->
<line x1="8" y1="18" x2="20" y2="18" stroke="#dc2626" stroke-width="1.7" opacity=".5"/>
<path d="M12 30l2-3 2 3" stroke="#059669" stroke-width="1.7" fill="none" opacity=".5"/>
<!-- magnifying glass -->
<circle cx="26" cy="20" r="9" stroke="url(#ppl)" stroke-width="2.5" fill="none" fill-opacity="0.09" filter="url(#s3d_proofrea)"/>
<circle cx="26" cy="20" r="9" fill="#0a0a12" fill-opacity=".5"/>
<line x1="32.5" y1="26.5" x2="39" y2="33" stroke="url(#ppl)" stroke-width="3.4"/>
<!-- text inside magnifier -->
<line x1="20" y1="18" x2="32" y2="18" stroke="#7c3aed" stroke-width="1.7" opacity=".5"/>
<line x1="20" y1="22" x2="30" y2="22" stroke="#7c3aed" stroke-width="1.7" opacity=".4"/>
<!-- PL — bold, no border -->
<text x="38" y="44" text-anchor="middle" font-size="13" fill="#dc2626" font-weight="900" font-family="sans-serif">PL</text>
<path d="M12 10c5-4 14-6 22-2" stroke="white" stroke-width="0.8" opacity=".15" fill="none"/>
</svg>
