<svg xmlns="http://www.w3.org/2000/svg" viewBox="0 0 48 48" fill="none" stroke-linecap="round" stroke-linejoin="round">
<defs><linearGradient id="dn" x1="0%" y1="0%" x2="100%" y2="100%"><stop offset="0%" stop-color="#ca8a04"/><stop offset="100%" stop-color="#ea580c"/></linearGradient><filter id="s3d_notes"><feDropShadow dx="1.5" dy="2.5" stdDeviation="2" flood-opacity=".3"/></filter></defs><path d="M4 44 Q14 41 24 43 Q34 45 44 42" stroke="#ca8a04" stroke-width="1" fill="none" opacity="0.22" stroke-linecap="round"/>
<path d="M8 6h32a2 2 0 0 1 2 2v24l-10 10H8a2 2 0 0 1-2-2V8a2 2 0 0 1 2-2z" stroke="url(#dn)" stroke-width="2.3" fill="#ca8a04" fill-opacity="0.06" filter="url(#s3d_notes)"/>
<path d="M32 32v10l10-10H32z" stroke="url(#dn)" stroke-width="1.7" fill="#ca8a04" fill-opacity="0.12"/>
<line x1="14" y1="16" x2="34" y2="16" stroke="url(#dn)" stroke-width="1.7" stroke-linecap="round" opacity=".35"/>
<line x1="14" y1="22" x2="30" y2="22" stroke="url(#dn)" stroke-width="1.7" stroke-linecap="round" opacity=".3"/>
<line x1="14" y1="28" x2="26" y2="28" stroke="url(#dn)" stroke-width="1.7" stroke-linecap="round" opacity="0.38"/>
<line x1="14" y1="34" x2="22" y2="34" stroke="url(#dn)" stroke-width="1.7" stroke-linecap="round" opacity="0.3"/>

<path d="M12 10c5-4 14-6 22-2" stroke="white" stroke-width="0.8" opacity=".15" fill="none"/>
</svg>