<svg xmlns="http://www.w3.org/2000/svg" viewBox="0 0 48 48" fill="none" stroke-linecap="round" stroke-linejoin="round">
<defs><linearGradient id="sfp" x1="0%" y1="0%" x2="100%" y2="100%"><stop offset="0%" stop-color="#05657c"/><stop offset="100%" stop-color="#5628a5"/></linearGradient><filter id="s3d_fingerpr"><feDropShadow dx="1.5" dy="2.5" stdDeviation="2" flood-opacity=".3"/></filter></defs><path d="M4 44 Q14 41 24 43 Q34 45 44 42" stroke="#05657c" stroke-width="1" fill="none" opacity="0.18" stroke-linecap="round"/><path d="M14 34a16 16 0 0 1-2-8 12 12 0 0 1 24 0" stroke="url(#sfp)" stroke-width="2.3" fill="none" filter="url(#s3d_fingerpr)"/><path d="M18 34a10 10 0 0 1-2-8 8 8 0 0 1 16 0" stroke="url(#sfp)" stroke-width="2.1" fill="none" opacity=".6"/><path d="M22 34a4 4 0 0 1-2-4 4 4 0 0 1 8 0" stroke="url(#sfp)" stroke-width="1.7" fill="none" opacity=".4"/><line x1="24" y1="30" x2="24" y2="40" stroke="#05657c" stroke-width="1.7" stroke-linecap="round" opacity=".3"/>
<path d="M12 10c5-4 14-6 22-2" stroke="#d1d5db" stroke-width="0.8" opacity=".15" fill="none"/>
</svg>