<svg xmlns="http://www.w3.org/2000/svg" viewBox="0 0 48 48" fill="none" stroke-linecap="round" stroke-linejoin="round">
<defs><linearGradient id="sfp" x1="0%" y1="0%" x2="100%" y2="100%"><stop offset="0%" stop-color="#00d4ff"/><stop offset="100%" stop-color="#a855f7"/></linearGradient></defs><path d="M4 44 Q14 41 24 43 Q34 45 44 42" stroke="#00d4ff" stroke-width="1" fill="none" opacity="0.12" stroke-linecap="round"/><path d="M14 34a16 16 0 0 1-2-8 12 12 0 0 1 24 0" stroke="url(#sfp)" stroke-width="2" fill="none"/><path d="M18 34a10 10 0 0 1-2-8 8 8 0 0 1 16 0" stroke="url(#sfp)" stroke-width="1.8" fill="none" opacity=".6"/><path d="M22 34a4 4 0 0 1-2-4 4 4 0 0 1 8 0" stroke="url(#sfp)" stroke-width="1.5" fill="none" opacity=".4"/><line x1="24" y1="30" x2="24" y2="40" stroke="#00d4ff" stroke-width="1.5" stroke-linecap="round" opacity=".3"/>
</svg>