<svg xmlns="http://www.w3.org/2000/svg" viewBox="0 0 48 48" fill="none" stroke-linecap="round" stroke-linejoin="round">
<defs><linearGradient id="for" x1="0%" y1="0%" x2="100%" y2="100%"><stop offset="0%" stop-color="#a855f7"/><stop offset="100%" stop-color="#3b82f6"/></linearGradient></defs><path d="M4 44 Q14 41 24 43 Q34 45 44 42" stroke="#a855f7" stroke-width="1" fill="none" opacity="0.15"/>
<path d="M14 34c0-10 4-18 10-18s10 8 10 18" stroke="url(#for)" stroke-width="2" fill="none"/>
<path d="M18 34c0-7 2.5-12 6-12s6 5 6 12" stroke="url(#for)" stroke-width="1.8" fill="none" opacity=".6"/>
<path d="M22 34c0-4 1-6 2-6s2 2 2 6" stroke="url(#for)" stroke-width="1.5" fill="none" opacity=".35"/>
<path d="M10 38c0-14 6-26 14-26s14 12 14 26" stroke="url(#for)" stroke-width="1.5" fill="none" opacity=".3"/>
<circle cx="38" cy="10" r="6" stroke="#a855f7" stroke-width="1.5" fill="#0a0a12" fill-opacity=".9"/>
<circle cx="38" cy="10" r="3" stroke="#a855f7" stroke-width="1" fill="none" opacity=".5"/>
<line x1="40.5" y1="12.5" x2="43" y2="15" stroke="#a855f7" stroke-width="1.5"/>

</svg>