<svg xmlns="http://www.w3.org/2000/svg" viewBox="0 0 48 48" fill="none" stroke-linecap="round" stroke-linejoin="round">
<defs><linearGradient id="sw" x1="0%" y1="0%" x2="100%" y2="100%"><stop offset="0%" stop-color="#152860"/><stop offset="100%" stop-color="#313b49"/></linearGradient><filter id="s3d_swat"><feDropShadow dx="1.5" dy="2.5" stdDeviation="2" flood-opacity=".3"/></filter></defs><path d="M4 44 Q14 41 24 43 Q34 45 44 42" stroke="#152860" stroke-width="1" fill="none" opacity="0.22"/>
<path d="M8 6h24v30c0 4-6 8-12 8s-12-4-12-8z" stroke="url(#sw)" stroke-width="2.5" fill="url(#sw)" fill-opacity="0.06" filter="url(#s3d_swat)"/>
<rect x="14" y="18" width="12" height="6" rx="1" stroke="#143697" stroke-width="1.7" fill="#143697" fill-opacity="0.12"/>
<text x="20" y="23" font-size="5" fill="#143697" font-weight="800" font-family="sans-serif" opacity=".5">SWAT</text>
<path d="M36 10c0-4 4-6 8-4v8c-4 2-8 0-8-4z" stroke="#313b49" stroke-width="2.1" fill="#313b49" fill-opacity="0.12"/>
<line x1="36" y1="10" x2="44" y2="10" stroke="#313b49" stroke-width="1.2" opacity=".3"/>

<path d="M12 10c5-4 14-6 22-2" stroke="#d1d5db" stroke-width="0.8" opacity=".15" fill="none"/>
</svg>