<svg xmlns="http://www.w3.org/2000/svg" viewBox="0 0 48 48" fill="none" stroke-linecap="round" stroke-linejoin="round">
<defs><linearGradient id="ab" x1="0%" y1="0%" x2="100%" y2="100%"><stop offset="0%" stop-color="#a855f7"/><stop offset="100%" stop-color="#00d4ff"/></linearGradient></defs><path d="M4 44 Q14 41 24 43 Q34 45 44 42" stroke="#a855f7" stroke-width="1" fill="none" opacity="0.15" stroke-linecap="round"/><path d="M24 4c-8 0-14 6-14 14 0 4 2 8 5 10l2 12h14l2-12c3-2 5-6 5-10 0-8-6-14-14-14z" stroke="url(#ab)" stroke-width="2" fill="none"/><path d="M24 4v36" stroke="url(#ab)" stroke-width="1" opacity=".2"/><path d="M16 14c2-2 4-2 8-2s6 0 8 2" stroke="#00d4ff" stroke-width="1.2" stroke-linecap="round" opacity=".35"/><path d="M14 20c3 1.5 5 2.5 10 2.5s7-1 10-2.5" stroke="#a855f7" stroke-width="1" stroke-linecap="round" opacity=".3"/>
</svg>