<svg xmlns="http://www.w3.org/2000/svg" viewBox="0 0 48 48" fill="none" stroke-linecap="round" stroke-linejoin="round">
<defs><linearGradient id="ab" x1="0%" y1="0%" x2="100%" y2="100%"><stop offset="0%" stop-color="#5628a5"/><stop offset="100%" stop-color="#05657c"/></linearGradient><filter id="s3d_ai_brain"><feDropShadow dx="1.5" dy="2.5" stdDeviation="2" flood-opacity=".3"/></filter></defs><path d="M4 44 Q14 41 24 43 Q34 45 44 42" stroke="#5628a5" stroke-width="1" fill="none" opacity="0.22" stroke-linecap="round"/><path d="M24 4c-8 0-14 6-14 14 0 4 2 8 5 10l2 12h14l2-12c3-2 5-6 5-10 0-8-6-14-14-14z" stroke="url(#ab)" stroke-width="2.3" fill="none" filter="url(#s3d_ai_brain)"/><path d="M24 4v36" stroke="url(#ab)" stroke-width="1" opacity="0.3"/><path d="M16 14c2-2 4-2 8-2s6 0 8 2" stroke="#05657c" stroke-width="1.2" stroke-linecap="round" opacity=".35"/><path d="M14 20c3 1.5 5 2.5 10 2.5s7-1 10-2.5" stroke="#5628a5" stroke-width="1" stroke-linecap="round" opacity=".3"/>
<path d="M12 10c5-4 14-6 22-2" stroke="#d1d5db" stroke-width="0.8" opacity=".15" fill="none"/>
</svg>