<svg xmlns="http://www.w3.org/2000/svg" viewBox="0 0 48 48" fill="none" stroke-linecap="round" stroke-linejoin="round">
<defs><linearGradient id="aq" x1="0%" y1="0%" x2="100%" y2="100%"><stop offset="0%" stop-color="#0891b2"/><stop offset="100%" stop-color="#059669"/></linearGradient><filter id="s3d_analysis"><feDropShadow dx="1.5" dy="2.5" stdDeviation="2" flood-opacity=".3"/></filter></defs><path d="M4 44 Q14 41 24 43 Q34 45 44 42" stroke="#0891b2" stroke-width="1" fill="none" opacity="0.22" stroke-linecap="round"/>
<rect x="4" y="4" width="28" height="28" rx="4" stroke="url(#aq)" stroke-width="2.3" fill="none" fill-opacity="0.09" filter="url(#s3d_analysis)"/>
<polyline points="10 26 16 18 22 22 28 12" stroke="url(#aq)" stroke-width="2.9" fill="none"/>
<circle cx="28" cy="12" r="2" fill="#059669" opacity=".5"/>
<!-- lightning = speed -->
<polygon points="38,8 34,20 37,20 33,30 42,17 39,17 41,8" stroke="#059669" stroke-width="1.3" fill="#059669" fill-opacity="0.22" stroke-linejoin="round"/>
<!-- speed lines -->
<line x1="8" y1="36" x2="18" y2="36" stroke="#0891b2" stroke-width="1.7" opacity=".3"/>
<line x1="10" y1="40" x2="24" y2="40" stroke="#0891b2" stroke-width="1.7" opacity="0.3"/>

<path d="M12 10c5-4 14-6 22-2" stroke="white" stroke-width="0.8" opacity=".15" fill="none"/>
</svg>