<svg xmlns="http://www.w3.org/2000/svg" viewBox="0 0 48 48" fill="none" stroke-linecap="round" stroke-linejoin="round">
<defs><linearGradient id="cg" x1="0%" y1="0%" x2="100%" y2="100%"><stop offset="0%" stop-color="#3b82f6"/><stop offset="100%" stop-color="#00d4ff"/></linearGradient></defs><path d="M4 44 Q14 41 24 43 Q34 45 44 42" stroke="#3b82f6" stroke-width="1" fill="none" opacity="0.15"/>
<circle cx="24" cy="10" r="4" stroke="url(#cg)" stroke-width="2" fill="none"/>
<line x1="24" y1="14" x2="24" y2="34" stroke="url(#cg)" stroke-width="2.5"/>
<line x1="16" y1="20" x2="32" y2="20" stroke="url(#cg)" stroke-width="2"/>
<path d="M16 34c-4 4-6 4-8 0" stroke="url(#cg)" stroke-width="2" fill="none"/>
<path d="M32 34c4 4 6 4 8 0" stroke="url(#cg)" stroke-width="2" fill="none"/>
<path d="M4 40c4-3 10-3 14 0s10 3 14 0s10 3 14 0" stroke="#00d4ff" stroke-width="1.5" opacity=".3"/>
<path d="M4 44c4-3 10-3 14 0s10 3 14 0s10 3 14 0" stroke="#00d4ff" stroke-width="1.2" opacity=".2"/>

</svg>