<svg xmlns="http://www.w3.org/2000/svg" viewBox="0 0 48 48" fill="none" stroke-linecap="round" stroke-linejoin="round">
<defs><linearGradient id="cr" x1="0%" y1="0%" x2="100%" y2="100%"><stop offset="0%" stop-color="#ef4444"/><stop offset="100%" stop-color="#a855f7"/></linearGradient></defs><path d="M4 44 Q14 41 24 43 Q34 45 44 42" stroke="#ef4444" stroke-width="1" fill="none" opacity="0.15"/>
<path d="M8 12c0-2 2-4 6-4s6 2 6 6v4c0 2-2 6-6 10-4-4-6-8-6-10z" stroke="url(#cr)" stroke-width="2" fill="none"/>
<path d="M6 36c2-4 6-6 8-4l2 4 4-2c2-1 4 0 4 2v4c0 2-4 4-8 4s-10-4-10-8z" stroke="url(#cr)" stroke-width="2" fill="none"/>
<path d="M28 10c2-4 4-6 7-6s6 3 6 7c0 6-8 13-13 16-5-3-6-7-6-10" stroke="#ef4444" stroke-width="1.8" fill="#ef4444" fill-opacity=".08"/>
<path d="M28 10c-1-3 0-6 3-6" stroke="#ef4444" stroke-width="1.8" fill="none"/>

</svg>