<svg xmlns="http://www.w3.org/2000/svg" viewBox="0 0 48 48" fill="none" stroke-linecap="round" stroke-linejoin="round">
<defs><linearGradient id="ccm" x1="0%" y1="0%" x2="100%" y2="100%"><stop offset="0%" stop-color="#5628a5"/><stop offset="100%" stop-color="#05657c"/></linearGradient><filter id="s3d_comment"><feDropShadow dx="1.5" dy="2.5" stdDeviation="2" flood-opacity=".3"/></filter></defs><path d="M4 44 Q14 41 24 43 Q34 45 44 42" stroke="#5628a5" stroke-width="1" fill="none" opacity="0.18" stroke-linecap="round"/><path d="M8 6h32a4 4 0 0 1 4 4v16a4 4 0 0 1-4 4H18l-8 8V30H8a4 4 0 0 1-4-4V10a4 4 0 0 1 4-4z" stroke="url(#ccm)" stroke-width="2.3" fill="none" filter="url(#s3d_comment)"/><line x1="14" y1="16" x2="34" y2="16" stroke="url(#ccm)" stroke-width="1.2" stroke-linecap="round" opacity=".3"/><line x1="14" y1="22" x2="28" y2="22" stroke="url(#ccm)" stroke-width="1.2" stroke-linecap="round" opacity="0.38"/>
<path d="M12 10c5-4 14-6 22-2" stroke="#d1d5db" stroke-width="0.8" opacity=".15" fill="none"/>
</svg>