<svg xmlns="http://www.w3.org/2000/svg" viewBox="0 0 48 48" fill="none" stroke-linecap="round" stroke-linejoin="round">
<defs><linearGradient id="ccm" x1="0%" y1="0%" x2="100%" y2="100%"><stop offset="0%" stop-color="#a855f7"/><stop offset="100%" stop-color="#00d4ff"/></linearGradient></defs><path d="M4 44 Q14 41 24 43 Q34 45 44 42" stroke="#a855f7" stroke-width="1" fill="none" opacity="0.12" stroke-linecap="round"/><path d="M8 6h32a4 4 0 0 1 4 4v16a4 4 0 0 1-4 4H18l-8 8V30H8a4 4 0 0 1-4-4V10a4 4 0 0 1 4-4z" stroke="url(#ccm)" stroke-width="2" fill="none"/><line x1="14" y1="16" x2="34" y2="16" stroke="url(#ccm)" stroke-width="1.2" stroke-linecap="round" opacity=".3"/><line x1="14" y1="22" x2="28" y2="22" stroke="url(#ccm)" stroke-width="1.2" stroke-linecap="round" opacity=".25"/>
</svg>