<svg xmlns="http://www.w3.org/2000/svg" viewBox="0 0 48 48" fill="none" stroke-linecap="round" stroke-linejoin="round">
<defs><linearGradient id="mat" x1="0%" y1="0%" x2="100%" y2="100%"><stop offset="0%" stop-color="#35560a"/><stop offset="100%" stop-color="#143697"/></linearGradient><filter id="s3d_military"><feDropShadow dx="1.5" dy="2.5" stdDeviation="2" flood-opacity=".3"/></filter></defs><path d="M4 44 Q14 41 24 43 Q34 45 44 42" stroke="#35560a" stroke-width="1" fill="none" opacity="0.22"/>
<circle cx="24" cy="12" r="7" stroke="url(#mat)" stroke-width="2.3" fill="none" fill-opacity="0.09" filter="url(#s3d_military)"/>
<path d="M10 42v-6c0-6 6-10 14-10s14 4 14 10v6" stroke="url(#mat)" stroke-width="2.3" fill="none"/>
<line x1="12" y1="30" x2="18" y2="26" stroke="#35560a" stroke-width="2.9"/>
<line x1="36" y1="30" x2="30" y2="26" stroke="#35560a" stroke-width="2.9"/>
<path d="M20 28h8v6h-8z" stroke="url(#mat)" stroke-width="1" fill="none" opacity=".3"/>
<path d="M38 6h6v4h-6z" stroke="#9a1a1a" stroke-width="1.2" fill="#9a1a1a" fill-opacity="0.3"/>
<line x1="38" y1="4" x2="38" y2="10" stroke="url(#mat)" stroke-width="1.7"/>

<path d="M12 10c5-4 14-6 22-2" stroke="#d1d5db" stroke-width="0.8" opacity=".15" fill="none"/>
</svg>