<svg xmlns="http://www.w3.org/2000/svg" viewBox="0 0 48 48" fill="none" stroke-linecap="round" stroke-linejoin="round">
<defs><linearGradient id="ad" x1="0%" y1="0%" x2="100%" y2="100%"><stop offset="0%" stop-color="#143697"/><stop offset="100%" stop-color="#05657c"/></linearGradient><filter id="s3d_air_defe"><feDropShadow dx="1.5" dy="2.5" stdDeviation="2" flood-opacity=".3"/></filter></defs><path d="M4 44 Q14 41 24 43 Q34 45 44 42" stroke="#143697" stroke-width="1" fill="none" opacity="0.22"/>
<line x1="24" y1="44" x2="24" y2="24" stroke="url(#ad)" stroke-width="2.9"/>
<line x1="16" y1="44" x2="32" y2="44" stroke="url(#ad)" stroke-width="2.9"/>
<path d="M8 24c0-10 7-18 16-18s16 8 16 18" stroke="url(#ad)" stroke-width="2.5" fill="none" filter="url(#s3d_air_defe)"/>
<path d="M14 24c0-6 4-12 10-12s10 6 10 12" stroke="url(#ad)" stroke-width="1.7" fill="none" opacity=".4"/>
<circle cx="24" cy="24" r="3" stroke="#05657c" stroke-width="1.7" fill="#05657c" fill-opacity="0.22"/>
<path d="M24 18v-8" stroke="#05657c" stroke-width="1.7" opacity=".3"/>

<path d="M12 10c5-4 14-6 22-2" stroke="#d1d5db" stroke-width="0.8" opacity=".15" fill="none"/>
</svg>