<svg xmlns="http://www.w3.org/2000/svg" viewBox="0 0 48 48" fill="none" stroke-linecap="round" stroke-linejoin="round">
<defs><linearGradient id="cmd" x1="0%" y1="0%" x2="100%" y2="100%"><stop offset="0%" stop-color="#eab308"/><stop offset="100%" stop-color="#f97316"/></linearGradient></defs><path d="M4 44 Q14 41 24 43 Q34 45 44 42" stroke="#eab308" stroke-width="1" fill="none" opacity="0.15"/>
<rect x="6" y="12" width="36" height="28" rx="3" stroke="url(#cmd)" stroke-width="2" fill="none"/>
<line x1="6" y1="20" x2="42" y2="20" stroke="url(#cmd)" stroke-width="1.5" opacity=".3"/>
<path d="M24 24l2 4 4 .5-3 3 .7 4.5-3.7-2-3.7 2 .7-4.5-3-3 4-.5z" stroke="#eab308" stroke-width="1.5" fill="#eab308" fill-opacity=".15"/>
<path d="M13 14l1 2 2 .3-1.5 1.5.3 2.2-1.8-1-1.8 1 .3-2.2L10 16.3l2-.3z" stroke="#f97316" stroke-width="1" fill="#f97316" fill-opacity=".1" opacity=".5"/>
<path d="M35 14l1 2 2 .3-1.5 1.5.3 2.2-1.8-1-1.8 1 .3-2.2L32 16.3l2-.3z" stroke="#f97316" stroke-width="1" fill="#f97316" fill-opacity=".1" opacity=".5"/>

</svg>