<svg xmlns="http://www.w3.org/2000/svg" viewBox="0 0 48 48" fill="none" stroke-linecap="round" stroke-linejoin="round">
<defs><linearGradient id="nv" x1="0%" y1="0%" x2="100%" y2="100%"><stop offset="0%" stop-color="#143697"/><stop offset="100%" stop-color="#05657c"/></linearGradient><filter id="s3d_navy"><feDropShadow dx="1.5" dy="2.5" stdDeviation="2" flood-opacity=".3"/></filter></defs><path d="M4 44 Q14 41 24 43 Q34 45 44 42" stroke="#143697" stroke-width="1" fill="none" opacity="0.22"/>
<path d="M6 30l4-14h28l4 14" stroke="url(#nv)" stroke-width="2.3" fill="none" filter="url(#s3d_navy)"/>
<path d="M4 30c4 4 12 4 20 0s16-4 20 0" stroke="url(#nv)" stroke-width="2.3" fill="none"/>
<line x1="24" y1="16" x2="24" y2="6" stroke="url(#nv)" stroke-width="2.3"/>
<path d="M24 6h10l-10 5z" stroke="#05657c" stroke-width="1.7" fill="#05657c" fill-opacity="0.15"/>
<line x1="16" y1="22" x2="16" y2="16" stroke="url(#nv)" stroke-width="1.7" opacity=".4"/>
<line x1="32" y1="22" x2="32" y2="16" stroke="url(#nv)" stroke-width="1.7" opacity=".4"/>
<path d="M4 38c4-3 12-3 20 0s16 3 20 0" stroke="#05657c" stroke-width="1.7" opacity="0.38"/>

<path d="M12 10c5-4 14-6 22-2" stroke="#d1d5db" stroke-width="0.8" opacity=".15" fill="none"/>
</svg>