<svg xmlns="http://www.w3.org/2000/svg" viewBox="0 0 48 48" fill="none" stroke-linecap="round" stroke-linejoin="round">
<defs><linearGradient id="pro" x1="0%" y1="0%" x2="100%" y2="100%"><stop offset="0%" stop-color="#1d4ed8"/><stop offset="100%" stop-color="#7c3aed"/></linearGradient><filter id="s3d_prosecut"><feDropShadow dx="1.5" dy="2.5" stdDeviation="2" flood-opacity=".3"/></filter></defs><path d="M4 44 Q14 41 24 43 Q34 45 44 42" stroke="#1d4ed8" stroke-width="1" fill="none" opacity="0.22"/>
<line x1="24" y1="4" x2="24" y2="38" stroke="url(#pro)" stroke-width="2.9"/>
<line x1="16" y1="38" x2="32" y2="38" stroke="url(#pro)" stroke-width="2.9"/>
<line x1="8" y1="14" x2="40" y2="14" stroke="url(#pro)" stroke-width="2.9"/>
<path d="M4 28c0-2 2-4 4-4s4 2 4 4H4z" stroke="#1d4ed8" stroke-width="2.1" fill="#1d4ed8" fill-opacity="0.12"/>
<path d="M36 24c0-2 2-4 4-4s4 2 4 4h-8z" stroke="#7c3aed" stroke-width="2.1" fill="#7c3aed" fill-opacity="0.12"/>
<line x1="8" y1="14" x2="8" y2="24" stroke="url(#pro)" stroke-width="1.7"/>
<line x1="40" y1="14" x2="40" y2="20" stroke="url(#pro)" stroke-width="1.7"/>

<path d="M12 10c5-4 14-6 22-2" stroke="white" stroke-width="0.8" opacity=".15" fill="none"/>
</svg>