<svg xmlns="http://www.w3.org/2000/svg" viewBox="0 0 48 48" fill="none" stroke-linecap="round" stroke-linejoin="round">
<defs><linearGradient id="aex" x1="0%" y1="0%" x2="100%" y2="100%"><stop offset="0%" stop-color="#00d4ff"/><stop offset="100%" stop-color="#a855f7"/></linearGradient></defs>
<path d="M4 44 Q14 41 24 43 Q34 45 44 42" stroke="#00d4ff" stroke-width="1" fill="none" opacity=".15"/>
<!-- box/tray -->
<path d="M6 30v10a3 3 0 0 0 3 3h30a3 3 0 0 0 3-3V30" stroke="url(#aex)" stroke-width="2.2" fill="none"/>
<line x1="6" y1="30" x2="14" y2="30" stroke="url(#aex)" stroke-width="2"/>
<line x1="34" y1="30" x2="42" y2="30" stroke="url(#aex)" stroke-width="2"/>
<!-- file shape flying out -->
<path d="M16 4h8l6 6v12H16z" stroke="#00d4ff" stroke-width="2" fill="none"/>
<path d="M24 4v6h6" stroke="#00d4ff" stroke-width="1.5" fill="none" opacity=".4"/>
<!-- text lines on file -->
<line x1="19" y1="14" x2="27" y2="14" stroke="#00d4ff" stroke-width="1.2" opacity=".3"/>
<line x1="19" y1="18" x2="25" y2="18" stroke="#00d4ff" stroke-width="1.2" opacity=".25"/>
<!-- arrow up -->
<path d="M24 34v-12" stroke="#a855f7" stroke-width="2.5"/>
<path d="M19 27l5-5 5 5" stroke="#a855f7" stroke-width="2.5" fill="none"/>
</svg>
