<svg xmlns="http://www.w3.org/2000/svg" viewBox="0 0 48 48" fill="none" stroke-linecap="round" stroke-linejoin="round">
<defs><linearGradient id="afs" x1="0%" y1="0%" x2="100%" y2="100%"><stop offset="0%" stop-color="#05657c"/><stop offset="100%" stop-color="#5628a5"/></linearGradient><filter id="s3d_fullscre"><feDropShadow dx="1.5" dy="2.5" stdDeviation="2" flood-opacity=".3"/></filter></defs><path d="M4 44 Q14 41 24 43 Q34 45 44 42" stroke="#05657c" stroke-width="1" fill="none" opacity="0.18" stroke-linecap="round"/><path d="M6 16V8a2 2 0 0 1 2-2h8" stroke="url(#afs)" stroke-width="2.9" fill="none" filter="url(#s3d_fullscre)"/><path d="M32 6h8a2 2 0 0 1 2 2v8" stroke="url(#afs)" stroke-width="2.9" fill="none"/><path d="M42 32v8a2 2 0 0 1-2 2h-8" stroke="url(#afs)" stroke-width="2.9" fill="none"/><path d="M16 42H8a2 2 0 0 1-2-2v-8" stroke="url(#afs)" stroke-width="2.9" fill="none"/>
<path d="M12 10c5-4 14-6 22-2" stroke="#d1d5db" stroke-width="0.8" opacity=".15" fill="none"/>
</svg>