<svg xmlns="http://www.w3.org/2000/svg" viewBox="0 0 48 48" fill="none" stroke-linecap="round" stroke-linejoin="round">
<defs><linearGradient id="gen" x1="0%" y1="0%" x2="100%" y2="100%"><stop offset="0%" stop-color="#5628a5"/><stop offset="100%" stop-color="#05657c"/></linearGradient><filter id="s3d_generate"><feDropShadow dx="1.5" dy="2.5" stdDeviation="2" flood-opacity=".3"/></filter></defs><path d="M4 44 Q14 41 24 43 Q34 45 44 42" stroke="#5628a5" stroke-width="1" fill="none" opacity="0.22" stroke-linecap="round"/>
<line x1="8" y1="40" x2="32" y2="16" stroke="url(#gen)" stroke-width="2.9"/>
<path d="M30 14l4-4 4 4-4 4z" stroke="url(#gen)" stroke-width="2.3" fill="#5628a5" fill-opacity="0.22" filter="url(#s3d_generate)"/>
<circle cx="18" cy="10" r="1.5" fill="#05657c" opacity=".6"/>
<path d="M18 6v8M14 10h8" stroke="#05657c" stroke-width="1.2" opacity=".4"/>
<circle cx="40" cy="28" r="1.2" fill="#05657c" opacity=".5"/>
<path d="M40 25v6M37 28h6" stroke="#05657c" stroke-width="1" opacity=".35"/>
<circle cx="10" cy="22" r="1" fill="#5628a5" opacity=".5"/>
<path d="M10 20v4M8 22h4" stroke="#5628a5" stroke-width="1" opacity=".3"/>

<path d="M12 10c5-4 14-6 22-2" stroke="#d1d5db" stroke-width="0.8" opacity=".15" fill="none"/>
</svg>