<svg xmlns="http://www.w3.org/2000/svg" viewBox="0 0 48 48" fill="none" stroke-linecap="round" stroke-linejoin="round">
<defs><linearGradient id="gai" x1="0%" y1="0%" x2="100%" y2="100%"><stop offset="0%" stop-color="#05657c"/><stop offset="100%" stop-color="#6623a3"/></linearGradient><filter id="s3d_generate"><feDropShadow dx="1.5" dy="2.5" stdDeviation="2" flood-opacity=".3"/></filter></defs>
<path d="M4 44 Q14 41 24 43 Q34 45 44 42" stroke="#05657c" stroke-width="1" fill="none" opacity="0.22"/>
<!-- chip body -->
<rect x="12" y="12" width="24" height="24" rx="4" stroke="url(#gai)" stroke-width="2.5" fill="none" fill-opacity="0.09" filter="url(#s3d_generate)"/>
<!-- legs top (rectangles) -->
<rect x="16" y="4" width="2.5" height="8" rx="0.8" stroke="url(#gai)" stroke-width="1" fill="url(#gai)" fill-opacity="0.22"/>
<rect x="22.5" y="4" width="2.5" height="8" rx="0.8" stroke="url(#gai)" stroke-width="1" fill="url(#gai)" fill-opacity="0.22"/>
<rect x="29" y="4" width="2.5" height="8" rx="0.8" stroke="url(#gai)" stroke-width="1" fill="url(#gai)" fill-opacity="0.22"/>
<!-- legs bottom -->
<rect x="16" y="36" width="2.5" height="8" rx="0.8" stroke="url(#gai)" stroke-width="1" fill="url(#gai)" fill-opacity="0.22"/>
<rect x="22.5" y="36" width="2.5" height="8" rx="0.8" stroke="url(#gai)" stroke-width="1" fill="url(#gai)" fill-opacity="0.22"/>
<rect x="29" y="36" width="2.5" height="8" rx="0.8" stroke="url(#gai)" stroke-width="1" fill="url(#gai)" fill-opacity="0.22"/>
<!-- legs left -->
<rect x="4" y="16" width="8" height="2.5" rx="0.8" stroke="url(#gai)" stroke-width="1" fill="url(#gai)" fill-opacity="0.22"/>
<rect x="4" y="22.5" width="8" height="2.5" rx="0.8" stroke="url(#gai)" stroke-width="1" fill="url(#gai)" fill-opacity="0.22"/>
<rect x="4" y="29" width="8" height="2.5" rx="0.8" stroke="url(#gai)" stroke-width="1" fill="url(#gai)" fill-opacity="0.22"/>
<!-- legs right -->
<rect x="36" y="16" width="8" height="2.5" rx="0.8" stroke="url(#gai)" stroke-width="1" fill="url(#gai)" fill-opacity="0.22"/>
<rect x="36" y="22.5" width="8" height="2.5" rx="0.8" stroke="url(#gai)" stroke-width="1" fill="url(#gai)" fill-opacity="0.22"/>
<rect x="36" y="29" width="8" height="2.5" rx="0.8" stroke="url(#gai)" stroke-width="1" fill="url(#gai)" fill-opacity="0.22"/>
<!-- inner die -->
<rect x="16" y="16" width="16" height="16" rx="2.5" stroke="url(#gai)" stroke-width="0.8" opacity="0.38" fill="url(#gai)" fill-opacity="0.08"/>
<!-- lightning bolt ⚡ -->
<polygon points="26,14 18,26 23,26 20,35 30,22 25,22 28,14" stroke="#05657c" stroke-width="1.7" fill="#05657c" fill-opacity="0.3" stroke-linejoin="round"/>
<path d="M12 10c5-4 14-6 22-2" stroke="#d1d5db" stroke-width="0.8" opacity=".15" fill="none"/>
</svg>
