<svg xmlns="http://www.w3.org/2000/svg" viewBox="0 0 48 48" fill="none" stroke-linecap="round" stroke-linejoin="round">
<defs><linearGradient id="aim" x1="0%" y1="0%" x2="100%" y2="100%"><stop offset="0%" stop-color="#059669"/><stop offset="100%" stop-color="#0891b2"/></linearGradient><filter id="s3d_import"><feDropShadow dx="1.5" dy="2.5" stdDeviation="2" flood-opacity=".3"/></filter></defs>
<path d="M4 44 Q14 41 24 43 Q34 45 44 42" stroke="#059669" stroke-width="1" fill="none" opacity="0.22"/>
<!-- box/tray -->
<path d="M6 30v10a3 3 0 0 0 3 3h30a3 3 0 0 0 3-3V30" stroke="url(#aim)" stroke-width="2.5" fill="none" filter="url(#s3d_import)"/>
<line x1="6" y1="30" x2="14" y2="30" stroke="url(#aim)" stroke-width="2.3"/>
<line x1="34" y1="30" x2="42" y2="30" stroke="url(#aim)" stroke-width="2.3"/>
<!-- file shape falling in -->
<path d="M16 4h8l6 6v12H16z" stroke="#059669" stroke-width="2.3" fill="none"/>
<path d="M24 4v6h6" stroke="#059669" stroke-width="1.7" fill="none" opacity=".4"/>
<!-- text lines on file -->
<line x1="19" y1="14" x2="27" y2="14" stroke="#059669" stroke-width="1.2" opacity=".3"/>
<line x1="19" y1="18" x2="25" y2="18" stroke="#059669" stroke-width="1.2" opacity="0.38"/>
<!-- arrow down -->
<path d="M24 22v12" stroke="#0891b2" stroke-width="2.9"/>
<path d="M19 29l5 5 5-5" stroke="#0891b2" stroke-width="2.9" fill="none"/>
<path d="M12 10c5-4 14-6 22-2" stroke="white" stroke-width="0.8" opacity=".15" fill="none"/>
</svg>
