<svg xmlns="http://www.w3.org/2000/svg" viewBox="0 0 48 48" fill="none" stroke-linecap="round" stroke-linejoin="round">
<defs><linearGradient id="sr" x1="0%" y1="0%" x2="100%" y2="100%"><stop offset="0%" stop-color="#05657c"/><stop offset="100%" stop-color="#5628a5"/></linearGradient><filter id="s3d_select_r"><feDropShadow dx="1.5" dy="2.5" stdDeviation="2" flood-opacity=".3"/></filter></defs>
<path d="M4 44 Q14 41 24 43 Q34 45 44 42" stroke="#05657c" stroke-width="1" fill="none" opacity="0.22"/>
<!-- dashed selection rectangle -->
<rect x="8" y="8" width="32" height="32" rx="2" stroke="url(#sr)" stroke-width="2.5" stroke-dasharray="5 3" fill="url(#sr)" fill-opacity="0.04" filter="url(#s3d_select_r)"/>
<!-- corner handles -->
<rect x="5" y="5" width="6" height="6" rx="1" stroke="#05657c" stroke-width="1.7" fill="#05657c" fill-opacity="0.22"/>
<rect x="37" y="5" width="6" height="6" rx="1" stroke="#05657c" stroke-width="1.7" fill="#05657c" fill-opacity="0.22"/>
<rect x="5" y="37" width="6" height="6" rx="1" stroke="#05657c" stroke-width="1.7" fill="#05657c" fill-opacity="0.22"/>
<rect x="37" y="37" width="6" height="6" rx="1" stroke="#05657c" stroke-width="1.7" fill="#05657c" fill-opacity="0.22"/>
<!-- mid handles -->
<rect x="21" y="5" width="6" height="4" rx="1" stroke="#5628a5" stroke-width="1" fill="#5628a5" fill-opacity="0.15"/>
<rect x="21" y="39" width="6" height="4" rx="1" stroke="#5628a5" stroke-width="1" fill="#5628a5" fill-opacity="0.15"/>
<rect x="5" y="21" width="4" height="6" rx="1" stroke="#5628a5" stroke-width="1" fill="#5628a5" fill-opacity="0.15"/>
<rect x="39" y="21" width="4" height="6" rx="1" stroke="#5628a5" stroke-width="1" fill="#5628a5" fill-opacity="0.15"/>
<path d="M12 10c5-4 14-6 22-2" stroke="#d1d5db" stroke-width="0.8" opacity=".15" fill="none"/>
</svg>
