<svg xmlns="http://www.w3.org/2000/svg" viewBox="0 0 48 48">

<defs><linearGradient id="aat2" x1="50%" y1="0%" x2="50%" y2="100%"><stop offset="0%" stop-color="#1f2937"/><stop offset="100%" stop-color="#0a0e14"/></linearGradient></defs>
<circle cx="24" cy="24" r="23" fill="url(#aat2)" stroke="#6b7280" stroke-width="1.5"/>
<!-- body (main hull) -->
<rect x="12" y="14" width="22" height="10" rx="2" stroke="#d1d5db" stroke-width="1" fill="#d1d5db" fill-opacity="0.21" opacity="0.95"/>
<!-- head -->
<path d="M34 14h6v6h-6z" stroke="#ffffff" stroke-width=".8" fill="#ffffff" fill-opacity="0.21" opacity="0.95"/>
<!-- neck -->
<line x1="34" y1="17" x2="38" y2="17" stroke="#d1d5db" stroke-width="1.5" opacity="0.95"/>
<!-- chin guns -->
<line x1="40" y1="18" x2="44" y2="16" stroke="#d1d5db" stroke-width=".8" opacity="0.88"/>
<line x1="40" y1="19" x2="44" y2="18" stroke="#d1d5db" stroke-width=".8" opacity="0.78"/>
<!-- viewport -->
<rect x="36" y="15" width="3" height="1.5" rx=".5" fill="#fffdfd" opacity="0.78"/>
<!-- front legs -->
<line x1="28" y1="24" x2="32" y2="30" stroke="#d1d5db" stroke-width="1.5" opacity="0.95"/>
<line x1="32" y1="30" x2="28" y2="36" stroke="#d1d5db" stroke-width="1.5" opacity="0.95"/>
<line x1="32" y1="24" x2="36" y2="30" stroke="#d1d5db" stroke-width="1.2" opacity="0.88"/>
<line x1="36" y1="30" x2="32" y2="36" stroke="#d1d5db" stroke-width="1.2" opacity="0.88"/>
<!-- rear legs -->
<line x1="16" y1="24" x2="12" y2="30" stroke="#d1d5db" stroke-width="1.5" opacity="0.95"/>
<line x1="12" y1="30" x2="16" y2="36" stroke="#d1d5db" stroke-width="1.5" opacity="0.95"/>
<line x1="20" y1="24" x2="16" y2="30" stroke="#d1d5db" stroke-width="1.2" opacity="0.88"/>
<line x1="16" y1="30" x2="20" y2="36" stroke="#d1d5db" stroke-width="1.2" opacity="0.88"/>
<!-- feet -->
<line x1="26" y1="36" x2="30" y2="36" stroke="#d1d5db" stroke-width="1.5" opacity="0.95"/>
<line x1="30" y1="36" x2="34" y2="36" stroke="#d1d5db" stroke-width="1.2" opacity="0.78"/>
<line x1="14" y1="36" x2="18" y2="36" stroke="#d1d5db" stroke-width="1.5" opacity="0.95"/>
<line x1="18" y1="36" x2="22" y2="36" stroke="#d1d5db" stroke-width="1.2" opacity="0.78"/>
<!-- hull details -->
<line x1="14" y1="18" x2="32" y2="18" stroke="#ffffff" stroke-width=".4" opacity="0.49"/>
<line x1="14" y1="21" x2="32" y2="21" stroke="#ffffff" stroke-width=".4" opacity="0.39"/>
<!-- snow/ground -->
<path d="M4 40c8-2 16-1 20 0s12-1 16 0" stroke="#ffffff" stroke-width=".5" opacity="0.39"/>

</svg>