<svg xmlns="http://www.w3.org/2000/svg" viewBox="0 0 48 48">
<defs><radialGradient id="cbg" cx="50%" cy="50%"><stop offset="0%" stop-color="#1a1a2e"/><stop offset="100%" stop-color="#06060e"/></radialGradient></defs>
<circle cx="24" cy="24" r="23" fill="url(#cbg)" stroke="#3b82f6" stroke-width="1.5"/>
<circle cx="6" cy="12" r=".5" fill="#ffffff" opacity="0.35"/><circle cx="42" cy="8" r=".5" fill="#ffffff" opacity="0.35"/><circle cx="8" cy="38" r=".5" fill="#ffffff" opacity="0.35"/><circle cx="40" cy="40" r=".5" fill="#ffffff" opacity="0.35"/><circle cx="20" cy="6" r=".5" fill="#ffffff" opacity="0.35"/><circle cx="36" cy="44" r=".5" fill="#ffffff" opacity="0.35"/>
<line x1="8" y1="16" x2="16" y2="14" stroke="#dcffff" stroke-width=".6" opacity="0.56"/><line x1="16" y1="14" x2="20" y2="20" stroke="#dcffff" stroke-width=".6" opacity="0.56"/><line x1="20" y1="20" x2="14" y2="26" stroke="#dcffff" stroke-width=".6" opacity="0.56"/>
<line x1="14" y1="26" x2="8" y2="16" stroke="#dcffff" stroke-width=".6" opacity="0.56"/>
<line x1="20" y1="20" x2="28" y2="22" stroke="#dcffff" stroke-width=".6" opacity="0.56"/><line x1="28" y1="22" x2="36" y2="18" stroke="#dcffff" stroke-width=".6" opacity="0.56"/><line x1="36" y1="18" x2="40" y2="26" stroke="#dcffff" stroke-width=".6" opacity="0.56"/>
<circle cx="8" cy="16" r="1.8" fill="#ffffff" opacity="0.95"/><circle cx="8" cy="16" r="2.8" fill="#ffffff" opacity="0.11"/><circle cx="16" cy="14" r="1.8" fill="#ffffff" opacity="0.95"/><circle cx="16" cy="14" r="2.8" fill="#ffffff" opacity="0.11"/><circle cx="20" cy="20" r="1.8" fill="#ffffff" opacity="0.95"/><circle cx="20" cy="20" r="2.8" fill="#ffffff" opacity="0.11"/><circle cx="14" cy="26" r="1.8" fill="#ffffff" opacity="0.95"/><circle cx="14" cy="26" r="2.8" fill="#ffffff" opacity="0.11"/>
<circle cx="28" cy="22" r="1.8" fill="#ffffff" opacity="0.95"/><circle cx="28" cy="22" r="2.8" fill="#ffffff" opacity="0.11"/><circle cx="36" cy="18" r="1.8" fill="#ffffff" opacity="0.95"/><circle cx="36" cy="18" r="2.8" fill="#ffffff" opacity="0.11"/><circle cx="40" cy="26" r="1.8" fill="#ffffff" opacity="0.95"/><circle cx="40" cy="26" r="2.8" fill="#ffffff" opacity="0.11"/>
<text x="24" y="40" text-anchor="middle" font-size="5" fill="#dcffff" font-family="sans-serif" opacity="0.49">URSA MAJOR</text>

</svg>