<svg xmlns="http://www.w3.org/2000/svg" viewBox="0 0 48 48">

<defs><radialGradient id="zsa" cx="50%" cy="50%"><stop offset="0%" stop-color="#5b21b6"/><stop offset="100%" stop-color="#1e1b4b"/></radialGradient></defs>
<circle cx="24" cy="24" r="23" fill="url(#zsa)" stroke="#a855f7" stroke-width="1.5"/>
<circle cx="8" cy="8" r=".7" fill="#ffffff" opacity="0.56"/>
<circle cx="40" cy="10" r=".5" fill="#ffffff" opacity="0.49"/>
<circle cx="6" cy="34" r=".6" fill="#ffffff" opacity="0.42"/>
<circle cx="42" cy="38" r=".5" fill="#ffffff" opacity="0.35"/>
<circle cx="18" cy="6" r=".4" fill="#ffffff" opacity="0.35"/>
<circle cx="36" cy="6" r=".4" fill="#ffffff" opacity="0.28"/>
<circle cx="44" cy="24" r=".5" fill="#ffffff" opacity="0.28"/>
<circle cx="4" cy="20" r=".4" fill="#ffffff" opacity="0.28"/>
<!-- main arrow diagonal -->
<line x1="8" y1="40" x2="40" y2="8" stroke="#ffffff" stroke-width="2" opacity="0.95"/>
<!-- arrowhead -->
<path d="M40 8 L32 8" stroke="#ffffff" stroke-width="2" fill="none" opacity="0.95"/>
<path d="M40 8 L40 16" stroke="#ffffff" stroke-width="2" fill="none" opacity="0.95"/>
<!-- cross bar -->
<line x1="14" y1="24" x2="28" y2="18" stroke="#ffffff" stroke-width="1.8" opacity="0.77"/>
<line x1="18" y1="32" x2="32" y2="26" stroke="#ffffff" stroke-width="1.2" opacity="0.49"/>
<!-- feathering on arrow -->
<path d="M12 36 L16 38" stroke="#ffffff" stroke-width="1" fill="none" opacity="0.49"/>
<path d="M10 38 L14 40" stroke="#ffffff" stroke-width="1" fill="none" opacity="0.42"/>
<circle cx="24" cy="24" r="14" fill="#fc7fff" opacity="0.04"/>

</svg>