<svg xmlns="http://www.w3.org/2000/svg" viewBox="0 0 48 48">
<defs><radialGradient id="cbg" cx="50%" cy="50%"><stop offset="0%" stop-color="#1a1a2e"/><stop offset="100%" stop-color="#06060e"/></radialGradient></defs>
<circle cx="24" cy="24" r="23" fill="url(#cbg)" stroke="#0891b2" stroke-width="1.5"/>
<circle cx="6" cy="8" r=".5" fill="#ffffff" opacity="0.35"/><circle cx="44" cy="12" r=".5" fill="#ffffff" opacity="0.35"/><circle cx="8" cy="40" r=".5" fill="#ffffff" opacity="0.35"/><circle cx="40" cy="42" r=".5" fill="#ffffff" opacity="0.35"/><circle cx="30" cy="4" r=".5" fill="#ffffff" opacity="0.35"/><circle cx="14" cy="44" r=".5" fill="#ffffff" opacity="0.35"/>
<line x1="20" y1="8" x2="24" y2="16" stroke="#dcffff" stroke-width=".6" opacity="0.56"/><line x1="24" y1="16" x2="22" y2="24" stroke="#dcffff" stroke-width=".6" opacity="0.56"/><line x1="22" y1="24" x2="18" y2="30" stroke="#dcffff" stroke-width=".6" opacity="0.56"/><line x1="18" y1="30" x2="12" y2="36" stroke="#dcffff" stroke-width=".6" opacity="0.56"/>
<line x1="22" y1="24" x2="30" y2="22" stroke="#dcffff" stroke-width=".6" opacity="0.56"/><line x1="30" y1="22" x2="36" y2="26" stroke="#dcffff" stroke-width=".6" opacity="0.56"/><line x1="36" y1="26" x2="40" y2="32" stroke="#dcffff" stroke-width=".6" opacity="0.56"/>
<line x1="24" y1="16" x2="32" y2="14" stroke="#dcffff" stroke-width=".6" opacity="0.56"/><line x1="22" y1="24" x2="14" y2="28" stroke="#dcffff" stroke-width=".6" opacity="0.56"/>
<circle cx="20" cy="8" r="2.8" fill="#ffffff" opacity="0.95"/><circle cx="20" cy="8" r="3.8" fill="#ffffff" opacity="0.11"/><circle cx="24" cy="16" r="1.8" fill="#ffffff" opacity="0.95"/><circle cx="24" cy="16" r="2.8" fill="#ffffff" opacity="0.11"/><circle cx="22" cy="24" r="1.8" fill="#ffffff" opacity="0.95"/><circle cx="22" cy="24" r="2.8" fill="#ffffff" opacity="0.11"/><circle cx="18" cy="30" r="1.8" fill="#ffffff" opacity="0.95"/><circle cx="18" cy="30" r="2.8" fill="#ffffff" opacity="0.11"/><circle cx="12" cy="36" r="1.8" fill="#ffffff" opacity="0.95"/><circle cx="12" cy="36" r="2.8" fill="#ffffff" opacity="0.11"/>
<circle cx="30" cy="22" r="1.8" fill="#ffffff" opacity="0.95"/><circle cx="30" cy="22" r="2.8" fill="#ffffff" opacity="0.11"/><circle cx="36" cy="26" r="1.8" fill="#ffffff" opacity="0.95"/><circle cx="36" cy="26" r="2.8" fill="#ffffff" opacity="0.11"/><circle cx="40" cy="32" r="1.8" fill="#ffffff" opacity="0.95"/><circle cx="40" cy="32" r="2.8" fill="#ffffff" opacity="0.11"/><circle cx="32" cy="14" r="1.3" fill="#ffffff" opacity="0.95"/><circle cx="32" cy="14" r="2.3" fill="#ffffff" opacity="0.11"/><circle cx="14" cy="28" r="1.3" fill="#ffffff" opacity="0.95"/><circle cx="14" cy="28" r="2.3" fill="#ffffff" opacity="0.11"/>
<text x="16" y="10" font-size="3.5" fill="#9affff" font-family="sans-serif" opacity="0.63">Sirius</text>
<text x="24" y="44" text-anchor="middle" font-size="4.5" fill="#9affff" font-family="sans-serif" opacity="0.49">CANIS MAJOR</text>

</svg>