<svg xmlns="http://www.w3.org/2000/svg" viewBox="0 0 48 48">
<defs><radialGradient id="cbg" cx="50%" cy="50%"><stop offset="0%" stop-color="#1a1a2e"/><stop offset="100%" stop-color="#06060e"/></radialGradient></defs>
<circle cx="24" cy="24" r="23" fill="url(#cbg)" stroke="#6366f1" stroke-width="1.5"/>
<circle cx="6" cy="8" r=".5" fill="#ffffff" opacity="0.35"/><circle cx="40" cy="12" r=".5" fill="#ffffff" opacity="0.35"/><circle cx="10" cy="40" r=".5" fill="#ffffff" opacity="0.35"/><circle cx="38" cy="42" r=".5" fill="#ffffff" opacity="0.35"/><circle cx="44" cy="20" r=".5" fill="#ffffff" opacity="0.35"/><circle cx="4" cy="28" r=".5" fill="#ffffff" opacity="0.35"/>
<line x1="14" y1="8" x2="18" y2="14" stroke="#dcffff" stroke-width=".6" opacity="0.56"/><line x1="18" y1="14" x2="14" y2="20" stroke="#dcffff" stroke-width=".6" opacity="0.56"/><line x1="14" y1="20" x2="10" y2="26" stroke="#dcffff" stroke-width=".6" opacity="0.56"/>
<line x1="18" y1="14" x2="30" y2="14" stroke="#dcffff" stroke-width=".6" opacity="0.56"/><line x1="30" y1="14" x2="34" y2="8" stroke="#dcffff" stroke-width=".6" opacity="0.56"/><line x1="30" y1="14" x2="34" y2="20" stroke="#dcffff" stroke-width=".6" opacity="0.56"/><line x1="34" y1="20" x2="38" y2="26" stroke="#dcffff" stroke-width=".6" opacity="0.56"/>
<line x1="14" y1="20" x2="18" y2="24" stroke="#dcffff" stroke-width=".6" opacity="0.56"/><line x1="18" y1="24" x2="24" y2="24" stroke="#dcffff" stroke-width=".6" opacity="0.56"/><line x1="24" y1="24" x2="30" y2="24" stroke="#dcffff" stroke-width=".6" opacity="0.56"/><line x1="30" y1="24" x2="34" y2="20" stroke="#dcffff" stroke-width=".6" opacity="0.56"/>
<line x1="14" y1="20" x2="16" y2="30" stroke="#dcffff" stroke-width=".6" opacity="0.56"/><line x1="16" y1="30" x2="14" y2="38" stroke="#dcffff" stroke-width=".6" opacity="0.56"/><line x1="34" y1="20" x2="32" y2="30" stroke="#dcffff" stroke-width=".6" opacity="0.56"/><line x1="32" y1="30" x2="36" y2="38" stroke="#dcffff" stroke-width=".6" opacity="0.56"/>
<circle cx="14" cy="8" r="1.8" fill="#ffffff" opacity="0.95"/><circle cx="14" cy="8" r="2.8" fill="#ffffff" opacity="0.11"/><circle cx="34" cy="8" r="1.8" fill="#ffffff" opacity="0.95"/><circle cx="34" cy="8" r="2.8" fill="#ffffff" opacity="0.11"/><circle cx="18" cy="14" r="1.8" fill="#ffffff" opacity="0.95"/><circle cx="18" cy="14" r="2.8" fill="#ffffff" opacity="0.11"/><circle cx="30" cy="14" r="1.8" fill="#ffffff" opacity="0.95"/><circle cx="30" cy="14" r="2.8" fill="#ffffff" opacity="0.11"/><circle cx="14" cy="20" r="1.8" fill="#ffffff" opacity="0.95"/><circle cx="14" cy="20" r="2.8" fill="#ffffff" opacity="0.11"/><circle cx="34" cy="20" r="1.8" fill="#ffffff" opacity="0.95"/><circle cx="34" cy="20" r="2.8" fill="#ffffff" opacity="0.11"/>
<circle cx="18" cy="24" r="1.5" fill="#ffffff" opacity="0.95"/><circle cx="18" cy="24" r="2.5" fill="#ffffff" opacity="0.11"/><circle cx="24" cy="24" r="1.5" fill="#ffffff" opacity="0.95"/><circle cx="24" cy="24" r="2.5" fill="#ffffff" opacity="0.11"/><circle cx="30" cy="24" r="1.5" fill="#ffffff" opacity="0.95"/><circle cx="30" cy="24" r="2.5" fill="#ffffff" opacity="0.11"/>
<circle cx="16" cy="30" r="1.3" fill="#ffffff" opacity="0.95"/><circle cx="16" cy="30" r="2.3" fill="#ffffff" opacity="0.11"/><circle cx="32" cy="30" r="1.3" fill="#ffffff" opacity="0.95"/><circle cx="32" cy="30" r="2.3" fill="#ffffff" opacity="0.11"/><circle cx="14" cy="38" r="1.5" fill="#ffffff" opacity="0.95"/><circle cx="14" cy="38" r="2.5" fill="#ffffff" opacity="0.11"/><circle cx="36" cy="38" r="1.5" fill="#ffffff" opacity="0.95"/><circle cx="36" cy="38" r="2.5" fill="#ffffff" opacity="0.11"/>
<circle cx="10" cy="26" r="1.2" fill="#ffffff" opacity="0.95"/><circle cx="10" cy="26" r="2.2" fill="#ffffff" opacity="0.11"/><circle cx="38" cy="26" r="1.2" fill="#ffffff" opacity="0.95"/><circle cx="38" cy="26" r="2.2" fill="#ffffff" opacity="0.11"/>

</svg>