<svg xmlns="http://www.w3.org/2000/svg" viewBox="0 0 48 48">

<defs><radialGradient id="zlb" cx="50%" cy="50%"><stop offset="0%" stop-color="#1e3a8a"/><stop offset="100%" stop-color="#0a1628"/></radialGradient></defs>
<circle cx="24" cy="24" r="23" fill="url(#zlb)" stroke="#3b82f6" stroke-width="1.5"/>
<circle cx="8" cy="8" r=".7" fill="#ffffff" opacity="0.56"/>
<circle cx="40" cy="10" r=".5" fill="#ffffff" opacity="0.49"/>
<circle cx="6" cy="34" r=".6" fill="#ffffff" opacity="0.42"/>
<circle cx="42" cy="38" r=".5" fill="#ffffff" opacity="0.35"/>
<circle cx="18" cy="6" r=".4" fill="#ffffff" opacity="0.35"/>
<circle cx="36" cy="6" r=".4" fill="#ffffff" opacity="0.28"/>
<circle cx="44" cy="24" r=".5" fill="#ffffff" opacity="0.28"/>
<circle cx="4" cy="20" r=".4" fill="#ffffff" opacity="0.28"/>
<!-- base line -->
<line x1="8" y1="36" x2="40" y2="36" stroke="#dcffff" stroke-width="2" opacity="0.95"/>
<!-- upper arc (horizon) -->
<path d="M8 28 C8 18 16 12 24 12 C32 12 40 18 40 28" stroke="#ffffff" stroke-width="2" fill="none" opacity="0.95"/>
<!-- middle line -->
<line x1="8" y1="28" x2="40" y2="28" stroke="#dcffff" stroke-width="1.8" opacity="0.84"/>
<!-- scale pans hanging -->
<path d="M12 28 L10 24 L18 24 L16 28" stroke="#90f7ff" stroke-width="1" fill="none" opacity="0.56"/>
<path d="M32 28 L30 24 L38 24 L36 28" stroke="#90f7ff" stroke-width="1" fill="none" opacity="0.56"/>
<!-- center pillar -->
<line x1="24" y1="12" x2="24" y2="8" stroke="#dcffff" stroke-width="1.2" opacity="0.63"/>
<circle cx="24" cy="24" r="14" fill="#58c3ff" opacity="0.04"/>

</svg>