<svg xmlns="http://www.w3.org/2000/svg" viewBox="0 0 48 48">
<defs><radialGradient id="cbg" cx="50%" cy="50%"><stop offset="0%" stop-color="#1a1a2e"/><stop offset="100%" stop-color="#06060e"/></radialGradient></defs>
<circle cx="24" cy="24" r="23" fill="url(#cbg)" stroke="#d97706" stroke-width="1.5"/>
<circle cx="6" cy="8" r=".5" fill="#ffffff" opacity="0.35"/><circle cx="44" cy="10" r=".5" fill="#ffffff" opacity="0.35"/><circle cx="8" cy="38" r=".5" fill="#ffffff" opacity="0.35"/><circle cx="42" cy="40" r=".5" fill="#ffffff" opacity="0.35"/><circle cx="20" cy="4" r=".5" fill="#ffffff" opacity="0.35"/><circle cx="32" cy="44" r=".5" fill="#ffffff" opacity="0.35"/>
<line x1="8" y1="14" x2="16" y2="18" stroke="#dcffff" stroke-width=".6" opacity="0.56"/><line x1="16" y1="18" x2="24" y2="12" stroke="#dcffff" stroke-width=".6" opacity="0.56"/><line x1="24" y1="12" x2="32" y2="18" stroke="#dcffff" stroke-width=".6" opacity="0.56"/><line x1="32" y1="18" x2="40" y2="14" stroke="#dcffff" stroke-width=".6" opacity="0.56"/>
<line x1="24" y1="12" x2="24" y2="22" stroke="#dcffff" stroke-width=".6" opacity="0.56"/><line x1="24" y1="22" x2="20" y2="30" stroke="#dcffff" stroke-width=".6" opacity="0.56"/><line x1="24" y1="22" x2="28" y2="30" stroke="#dcffff" stroke-width=".6" opacity="0.56"/>
<line x1="20" y1="30" x2="16" y2="38" stroke="#dcffff" stroke-width=".6" opacity="0.56"/><line x1="28" y1="30" x2="32" y2="38" stroke="#dcffff" stroke-width=".6" opacity="0.56"/>
<circle cx="24" cy="12" r="2.5" fill="#ffffff" opacity="0.95"/><circle cx="24" cy="12" r="3.5" fill="#ffffff" opacity="0.11"/><circle cx="8" cy="14" r="1.8" fill="#ffffff" opacity="0.95"/><circle cx="8" cy="14" r="2.8" fill="#ffffff" opacity="0.11"/><circle cx="16" cy="18" r="1.8" fill="#ffffff" opacity="0.95"/><circle cx="16" cy="18" r="2.8" fill="#ffffff" opacity="0.11"/><circle cx="32" cy="18" r="1.8" fill="#ffffff" opacity="0.95"/><circle cx="32" cy="18" r="2.8" fill="#ffffff" opacity="0.11"/><circle cx="40" cy="14" r="1.8" fill="#ffffff" opacity="0.95"/><circle cx="40" cy="14" r="2.8" fill="#ffffff" opacity="0.11"/>
<circle cx="24" cy="22" r="1.8" fill="#ffffff" opacity="0.95"/><circle cx="24" cy="22" r="2.8" fill="#ffffff" opacity="0.11"/><circle cx="20" cy="30" r="1.8" fill="#ffffff" opacity="0.95"/><circle cx="20" cy="30" r="2.8" fill="#ffffff" opacity="0.11"/><circle cx="28" cy="30" r="1.8" fill="#ffffff" opacity="0.95"/><circle cx="28" cy="30" r="2.8" fill="#ffffff" opacity="0.11"/><circle cx="16" cy="38" r="1.3" fill="#ffffff" opacity="0.95"/><circle cx="16" cy="38" r="2.3" fill="#ffffff" opacity="0.11"/><circle cx="32" cy="38" r="1.3" fill="#ffffff" opacity="0.95"/><circle cx="32" cy="38" r="2.3" fill="#ffffff" opacity="0.11"/>
<text x="20" y="14" font-size="4" fill="#ffff73" font-family="sans-serif" opacity="0.56">Altair</text>
<text x="24" y="46" text-anchor="middle" font-size="5" fill="#ffff36" font-family="sans-serif" opacity="0.49">AQUILA</text>

</svg>