<svg xmlns="http://www.w3.org/2000/svg" viewBox="0 0 48 48">

<defs><radialGradient id="zl" cx="50%" cy="50%"><stop offset="0%" stop-color="#92400e"/><stop offset="100%" stop-color="#1c0806"/></radialGradient></defs>
<circle cx="24" cy="24" r="23" fill="url(#zl)" stroke="#f59e0b" stroke-width="1.5"/>
<circle cx="8" cy="8" r=".7" fill="#ffffff" opacity="0.56"/>
<circle cx="40" cy="10" r=".5" fill="#ffffff" opacity="0.49"/>
<circle cx="6" cy="34" r=".6" fill="#ffffff" opacity="0.42"/>
<circle cx="42" cy="38" r=".5" fill="#ffffff" opacity="0.35"/>
<circle cx="18" cy="6" r=".4" fill="#ffffff" opacity="0.35"/>
<circle cx="36" cy="6" r=".4" fill="#ffffff" opacity="0.28"/>
<circle cx="44" cy="24" r=".5" fill="#ffffff" opacity="0.28"/>
<circle cx="4" cy="20" r=".4" fill="#ffffff" opacity="0.28"/>
<!-- mane circle -->
<circle cx="18" cy="18" r="8" stroke="#ffff73" stroke-width="2" fill="none" opacity="0.95"/>
<!-- body curve -->
<path d="M26 18 C32 18 36 22 36 28 C36 32 34 34 30 34" stroke="#ffff73" stroke-width="2" fill="none" opacity="0.91"/>
<!-- tail with curl -->
<path d="M30 34 C26 34 24 36 24 38 C24 42 28 42 30 40 C32 38 30 36 28 37" stroke="#ffff36" stroke-width="1.8" fill="none" opacity="0.84"/>
<!-- mane detail -->
<path d="M12 12 C14 10 18 10 22 12" stroke="#ffed10" stroke-width="1" fill="none" opacity="0.49"/>
<path d="M10 18 C10 14 12 12 14 11" stroke="#ffed10" stroke-width="1" fill="none" opacity="0.42"/>
<circle cx="24" cy="24" r="14" fill="#ffed10" opacity="0.04"/>

</svg>