<svg xmlns="http://www.w3.org/2000/svg" viewBox="0 0 48 48">

<defs><radialGradient id="zc" cx="50%" cy="50%"><stop offset="0%" stop-color="#1f2937"/><stop offset="100%" stop-color="#0a0e14"/></radialGradient></defs>
<circle cx="24" cy="24" r="23" fill="url(#zc)" stroke="#9ca3af" stroke-width="1.5"/>
<circle cx="8" cy="8" r=".7" fill="#ffffff" opacity="0.56"/>
<circle cx="40" cy="10" r=".5" fill="#ffffff" opacity="0.49"/>
<circle cx="6" cy="34" r=".6" fill="#ffffff" opacity="0.42"/>
<circle cx="42" cy="38" r=".5" fill="#ffffff" opacity="0.35"/>
<circle cx="18" cy="6" r=".4" fill="#ffffff" opacity="0.35"/>
<circle cx="36" cy="6" r=".4" fill="#ffffff" opacity="0.28"/>
<circle cx="44" cy="24" r=".5" fill="#ffffff" opacity="0.28"/>
<circle cx="4" cy="20" r=".4" fill="#ffffff" opacity="0.28"/>
<!-- upper spiral -->
<path d="M34 16 C40 16 40 24 34 24 C28 24 28 18 32 16" stroke="#ffffff" stroke-width="2" fill="none" opacity="0.95"/>
<circle cx="34" cy="16" r="3.5" stroke="#d1d5db" stroke-width="1.5" fill="#d1d5db" fill-opacity="0.15" opacity="0.84"/>
<!-- bridge -->
<path d="M28 18 C24 14 20 14 16 18" stroke="#d1d5db" stroke-width="1.5" fill="none" opacity="0.63"/>
<path d="M20 30 C24 34 28 34 32 30" stroke="#d1d5db" stroke-width="1.5" fill="none" opacity="0.63"/>
<!-- lower spiral (mirrored) -->
<path d="M14 32 C8 32 8 24 14 24 C20 24 20 30 16 32" stroke="#ffffff" stroke-width="2" fill="none" opacity="0.95"/>
<circle cx="14" cy="32" r="3.5" stroke="#d1d5db" stroke-width="1.5" fill="#d1d5db" fill-opacity="0.15" opacity="0.84"/>
<circle cx="24" cy="24" r="14" fill="#eaf4ff" opacity="0.04"/>

</svg>