<svg xmlns="http://www.w3.org/2000/svg" viewBox="0 0 48 48">

<defs><linearGradient id="aw1" x1="0%" y1="0%" x2="100%" y2="100%"><stop offset="0%" stop-color="#0c4a6e"/><stop offset="100%" stop-color="#172554"/></linearGradient></defs>
<circle cx="24" cy="24" r="23" fill="url(#aw1)" stroke="#0891b2" stroke-width="1.5"/>
<path d="M6 24c2-6 4-10 6-4s4 14 6 4 4-12 6-2 4 10 6 2 4-8 6-2 4 6 6 2" stroke="#a5f3fc" stroke-width="1.2" fill="none" opacity="0.72"/>
<path d="M8 20c3-3 5-5 8-1s5 8 8 2 5-6 8-1 5 4 8 1" stroke="#a5f3fc" stroke-width="0.7" fill="none" opacity="0.32"/>
<path d="M8 30c3 2 5 4 8 1s5-6 8-1 5 4 8 1 5-2 8-1" stroke="#a5f3fc" stroke-width="0.7" fill="none" opacity="0.32"/>

</svg>