<svg xmlns="http://www.w3.org/2000/svg" viewBox="0 0 48 48">

<defs><radialGradient id="zcp" cx="50%" cy="50%"><stop offset="0%" stop-color="#1f2937"/><stop offset="100%" stop-color="#0a0e14"/></radialGradient></defs>
<circle cx="24" cy="24" r="23" fill="url(#zcp)" stroke="#64748b" stroke-width="1.5"/>
<circle cx="8" cy="8" r=".7" fill="#ffffff" opacity="0.56"/>
<circle cx="40" cy="10" r=".5" fill="#ffffff" opacity="0.49"/>
<circle cx="6" cy="34" r=".6" fill="#ffffff" opacity="0.42"/>
<circle cx="42" cy="38" r=".5" fill="#ffffff" opacity="0.35"/>
<circle cx="18" cy="6" r=".4" fill="#ffffff" opacity="0.35"/>
<circle cx="36" cy="6" r=".4" fill="#ffffff" opacity="0.28"/>
<circle cx="44" cy="24" r=".5" fill="#ffffff" opacity="0.28"/>
<circle cx="4" cy="20" r=".4" fill="#ffffff" opacity="0.28"/>
<!-- horn/head curve -->
<path d="M10 12 C10 8 14 6 18 8 C22 10 20 16 16 18 L16 34" stroke="#ffffff" stroke-width="2" fill="none" opacity="0.95"/>
<!-- body bridge -->
<path d="M16 24 C20 22 24 22 28 24" stroke="#d1d5db" stroke-width="1.5" fill="none" opacity="0.7"/>
<!-- fish tail -->
<path d="M28 24 L28 30 C28 34 32 38 36 38 C40 38 40 34 38 32 C36 30 32 30 32 34" stroke="#d1d5db" stroke-width="1.8" fill="none" opacity="0.91"/>
<!-- tail fin loop -->
<path d="M32 34 C34 38 38 36 36 32" stroke="#ffffff" stroke-width="1.2" fill="none" opacity="0.7"/>
<!-- small detail -->
<circle cx="12" cy="10" r="1.5" stroke="#d1d5db" stroke-width=".8" fill="none" opacity="0.49"/>
<circle cx="24" cy="24" r="14" fill="#96aed0" opacity="0.04"/>

</svg>