<svg xmlns="http://www.w3.org/2000/svg" viewBox="0 0 48 48">
<defs><radialGradient id="cbg" cx="50%" cy="50%"><stop offset="0%" stop-color="#1a1a2e"/><stop offset="100%" stop-color="#06060e"/></radialGradient></defs>
<circle cx="24" cy="24" r="23" fill="url(#cbg)" stroke="#6366f1" stroke-width="1.5"/>
<circle cx="8" cy="8" r=".5" fill="#ffffff" opacity="0.35"/><circle cx="40" cy="10" r=".5" fill="#ffffff" opacity="0.35"/><circle cx="6" cy="36" r=".5" fill="#ffffff" opacity="0.35"/><circle cx="42" cy="38" r=".5" fill="#ffffff" opacity="0.35"/><circle cx="28" cy="6" r=".5" fill="#ffffff" opacity="0.35"/><circle cx="12" cy="44" r=".5" fill="#ffffff" opacity="0.35"/>
<line x1="24" y1="8" x2="18" y2="18" stroke="#dcffff" stroke-width=".6" opacity="0.56"/><line x1="24" y1="8" x2="30" y2="18" stroke="#dcffff" stroke-width=".6" opacity="0.56"/><line x1="18" y1="18" x2="16" y2="28" stroke="#dcffff" stroke-width=".6" opacity="0.56"/><line x1="30" y1="18" x2="32" y2="28" stroke="#dcffff" stroke-width=".6" opacity="0.56"/>
<line x1="16" y1="28" x2="20" y2="36" stroke="#dcffff" stroke-width=".6" opacity="0.56"/><line x1="32" y1="28" x2="28" y2="36" stroke="#dcffff" stroke-width=".6" opacity="0.56"/><line x1="20" y1="36" x2="28" y2="36" stroke="#dcffff" stroke-width=".6" opacity="0.56"/>
<circle cx="24" cy="8" r="2.5" fill="#ffffff" opacity="0.95"/><circle cx="24" cy="8" r="3.5" fill="#ffffff" opacity="0.11"/><circle cx="18" cy="18" r="1.8" fill="#ffffff" opacity="0.95"/><circle cx="18" cy="18" r="2.8" fill="#ffffff" opacity="0.11"/><circle cx="30" cy="18" r="1.8" fill="#ffffff" opacity="0.95"/><circle cx="30" cy="18" r="2.8" fill="#ffffff" opacity="0.11"/><circle cx="16" cy="28" r="1.8" fill="#ffffff" opacity="0.95"/><circle cx="16" cy="28" r="2.8" fill="#ffffff" opacity="0.11"/><circle cx="32" cy="28" r="1.8" fill="#ffffff" opacity="0.95"/><circle cx="32" cy="28" r="2.8" fill="#ffffff" opacity="0.11"/>
<circle cx="20" cy="36" r="1.3" fill="#ffffff" opacity="0.95"/><circle cx="20" cy="36" r="2.3" fill="#ffffff" opacity="0.11"/><circle cx="28" cy="36" r="1.3" fill="#ffffff" opacity="0.95"/><circle cx="28" cy="36" r="2.3" fill="#ffffff" opacity="0.11"/>
<text x="20" y="10" font-size="4" fill="#ffffff" font-family="sans-serif" opacity="0.56">Vega</text>
<text x="24" y="44" text-anchor="middle" font-size="5" fill="#f7ffff" font-family="sans-serif" opacity="0.49">LYRA</text>

</svg>