<svg xmlns="http://www.w3.org/2000/svg" viewBox="0 0 48 48">

<defs><radialGradient id="af1" cx="50%" cy="60%"><stop offset="0%" stop-color="#7c2d12"/><stop offset="100%" stop-color="#1c0806"/></radialGradient></defs>
<circle cx="24" cy="24" r="23" fill="url(#af1)" stroke="#dc2626" stroke-width="1.5"/>
<path d="M24 38c-8 0-12-8-10-16 1 4 4 6 6 4s0-8 4-12c2 4 6 8 4 12s5 0 6-4c2 8-2 16-10 16z" stroke="#ffffff" stroke-width="0.8" fill="#ffffff" fill-opacity="0.6"/>
<path d="M24 36c-4 0-6-4-5-8 .5 2 2 3 3 2s0-4 2-6c1 2 3 4 2 6s2.5 0 3-2c1 4-1 8-5 8z" stroke="#ffffff" stroke-width="0.6" fill="#ffffff" fill-opacity="0.6"/>

</svg>