<svg xmlns="http://www.w3.org/2000/svg" viewBox="0 0 48 48">

<defs><radialGradient id="zpi" cx="50%" cy="50%"><stop offset="0%" stop-color="#312e81"/><stop offset="100%" stop-color="#0a0920"/></radialGradient></defs>
<circle cx="24" cy="24" r="23" fill="url(#zpi)" stroke="#6366f1" stroke-width="1.5"/>
<circle cx="8" cy="8" r=".7" fill="#ffffff" opacity="0.56"/>
<circle cx="40" cy="10" r=".5" fill="#ffffff" opacity="0.49"/>
<circle cx="6" cy="34" r=".6" fill="#ffffff" opacity="0.42"/>
<circle cx="42" cy="38" r=".5" fill="#ffffff" opacity="0.35"/>
<circle cx="18" cy="6" r=".4" fill="#ffffff" opacity="0.35"/>
<circle cx="36" cy="6" r=".4" fill="#ffffff" opacity="0.28"/>
<circle cx="44" cy="24" r=".5" fill="#ffffff" opacity="0.28"/>
<circle cx="4" cy="20" r=".4" fill="#ffffff" opacity="0.28"/>
<!-- left fish arc -->
<path d="M14 8 C6 14 6 22 14 28 C6 28 6 36 14 42" stroke="#ffffff" stroke-width="2" fill="none" opacity="0.95"/>
<!-- right fish arc (mirrored) -->
<path d="M34 8 C42 14 42 22 34 28 C42 28 42 36 34 42" stroke="#ffffff" stroke-width="2" fill="none" opacity="0.95"/>
<!-- connecting line (the tie/band) -->
<line x1="10" y1="24" x2="38" y2="24" stroke="#f7ffff" stroke-width="2" opacity="0.84"/>
<!-- fish eye dots -->
<circle cx="12" cy="18" r="1.2" fill="#ffffff" opacity="0.7"/>
<circle cx="36" cy="18" r="1.2" fill="#ffffff" opacity="0.7"/>
<!-- tail details -->
<path d="M14 8 L18 10" stroke="#c1d2ff" stroke-width="1" fill="none" opacity="0.49"/>
<path d="M14 42 L18 40" stroke="#c1d2ff" stroke-width="1" fill="none" opacity="0.49"/>
<path d="M34 8 L30 10" stroke="#c1d2ff" stroke-width="1" fill="none" opacity="0.49"/>
<path d="M34 42 L30 40" stroke="#c1d2ff" stroke-width="1" fill="none" opacity="0.49"/>
<circle cx="24" cy="24" r="14" fill="#9499ff" opacity="0.04"/>

</svg>