<svg xmlns="http://www.w3.org/2000/svg" viewBox="0 0 48 48">

<defs><radialGradient id="za" cx="50%" cy="50%"><stop offset="0%" stop-color="#7c2d12"/><stop offset="100%" stop-color="#1c0806"/></radialGradient></defs>
<circle cx="24" cy="24" r="23" fill="url(#za)" stroke="#dc2626" stroke-width="1.5"/>
<circle cx="8" cy="8" r=".7" fill="#ffffff" opacity="0.56"/>
<circle cx="40" cy="10" r=".5" fill="#ffffff" opacity="0.49"/>
<circle cx="6" cy="34" r=".6" fill="#ffffff" opacity="0.42"/>
<circle cx="42" cy="38" r=".5" fill="#ffffff" opacity="0.35"/>
<circle cx="18" cy="6" r=".4" fill="#ffffff" opacity="0.35"/>
<circle cx="36" cy="6" r=".4" fill="#ffffff" opacity="0.28"/>
<circle cx="44" cy="24" r=".5" fill="#ffffff" opacity="0.28"/>
<circle cx="4" cy="20" r=".4" fill="#ffffff" opacity="0.28"/>
<!-- detailed ram horns glyph -->
<path d="M14 32 C14 18 14 12 20 10 C24 8 26 12 26 16" stroke="#fff7f7" stroke-width="2" fill="none" opacity="0.95"/>
<path d="M34 32 C34 18 34 12 28 10 C24 8 22 12 22 16" stroke="#fff7f7" stroke-width="2" fill="none" opacity="0.95"/>
<!-- horn curls at top -->
<path d="M20 10 C18 8 15 8 14 10" stroke="#ffa9a9" stroke-width="1.8" fill="none" opacity="0.91"/>
<path d="M28 10 C30 8 33 8 34 10" stroke="#ffa9a9" stroke-width="1.8" fill="none" opacity="0.91"/>
<!-- center line -->
<line x1="24" y1="16" x2="24" y2="38" stroke="#fff7f7" stroke-width="1.8" opacity="0.84"/>
<!-- subtle glow -->
<circle cx="24" cy="24" r="12" fill="#ff3939" opacity="0.06"/>

</svg>