<svg xmlns="http://www.w3.org/2000/svg" viewBox="0 0 48 48">
<defs><radialGradient id="cbg" cx="50%" cy="50%"><stop offset="0%" stop-color="#1a1a2e"/><stop offset="100%" stop-color="#06060e"/></radialGradient></defs>
<circle cx="24" cy="24" r="23" fill="url(#cbg)" stroke="#059669" stroke-width="1.5"/>
<circle cx="6" cy="10" r=".5" fill="#ffffff" opacity="0.35"/><circle cx="44" cy="8" r=".5" fill="#ffffff" opacity="0.35"/><circle cx="8" cy="42" r=".5" fill="#ffffff" opacity="0.35"/><circle cx="40" cy="44" r=".5" fill="#ffffff" opacity="0.35"/><circle cx="24" cy="4" r=".5" fill="#ffffff" opacity="0.35"/><circle cx="36" cy="4" r=".5" fill="#ffffff" opacity="0.35"/>
<line x1="10" y1="10" x2="14" y2="16" stroke="#dcffff" stroke-width=".6" opacity="0.56"/><line x1="14" y1="16" x2="20" y2="14" stroke="#dcffff" stroke-width=".6" opacity="0.56"/><line x1="20" y1="14" x2="26" y2="18" stroke="#dcffff" stroke-width=".6" opacity="0.56"/><line x1="26" y1="18" x2="30" y2="14" stroke="#dcffff" stroke-width=".6" opacity="0.56"/>
<line x1="30" y1="14" x2="34" y2="20" stroke="#dcffff" stroke-width=".6" opacity="0.56"/><line x1="34" y1="20" x2="30" y2="28" stroke="#dcffff" stroke-width=".6" opacity="0.56"/><line x1="30" y1="28" x2="24" y2="32" stroke="#dcffff" stroke-width=".6" opacity="0.56"/><line x1="24" y1="32" x2="18" y2="28" stroke="#dcffff" stroke-width=".6" opacity="0.56"/>
<line x1="18" y1="28" x2="14" y2="34" stroke="#dcffff" stroke-width=".6" opacity="0.56"/><line x1="14" y1="34" x2="18" y2="40" stroke="#dcffff" stroke-width=".6" opacity="0.56"/><line x1="18" y1="40" x2="24" y2="38" stroke="#dcffff" stroke-width=".6" opacity="0.56"/><line x1="24" y1="38" x2="28" y2="42" stroke="#dcffff" stroke-width=".6" opacity="0.56"/>
<circle cx="10" cy="10" r="1.8" fill="#ffffff" opacity="0.95"/><circle cx="10" cy="10" r="2.8" fill="#ffffff" opacity="0.11"/><circle cx="14" cy="16" r="1.8" fill="#ffffff" opacity="0.95"/><circle cx="14" cy="16" r="2.8" fill="#ffffff" opacity="0.11"/><circle cx="20" cy="14" r="1.8" fill="#ffffff" opacity="0.95"/><circle cx="20" cy="14" r="2.8" fill="#ffffff" opacity="0.11"/><circle cx="26" cy="18" r="1.8" fill="#ffffff" opacity="0.95"/><circle cx="26" cy="18" r="2.8" fill="#ffffff" opacity="0.11"/><circle cx="30" cy="14" r="1.8" fill="#ffffff" opacity="0.95"/><circle cx="30" cy="14" r="2.8" fill="#ffffff" opacity="0.11"/><circle cx="34" cy="20" r="1.8" fill="#ffffff" opacity="0.95"/><circle cx="34" cy="20" r="2.8" fill="#ffffff" opacity="0.11"/>
<circle cx="30" cy="28" r="1.8" fill="#ffffff" opacity="0.95"/><circle cx="30" cy="28" r="2.8" fill="#ffffff" opacity="0.11"/><circle cx="24" cy="32" r="1.8" fill="#ffffff" opacity="0.95"/><circle cx="24" cy="32" r="2.8" fill="#ffffff" opacity="0.11"/><circle cx="18" cy="28" r="1.8" fill="#ffffff" opacity="0.95"/><circle cx="18" cy="28" r="2.8" fill="#ffffff" opacity="0.11"/><circle cx="14" cy="34" r="1.8" fill="#ffffff" opacity="0.95"/><circle cx="14" cy="34" r="2.8" fill="#ffffff" opacity="0.11"/><circle cx="18" cy="40" r="1.8" fill="#ffffff" opacity="0.95"/><circle cx="18" cy="40" r="2.8" fill="#ffffff" opacity="0.11"/><circle cx="24" cy="38" r="1.8" fill="#ffffff" opacity="0.95"/><circle cx="24" cy="38" r="2.8" fill="#ffffff" opacity="0.11"/><circle cx="28" cy="42" r="1.8" fill="#ffffff" opacity="0.95"/><circle cx="28" cy="42" r="2.8" fill="#ffffff" opacity="0.11"/>
<text x="36" y="40" font-size="5" fill="#a5ffff" font-family="sans-serif" opacity="0.49">DRACO</text>

</svg>