<svg xmlns="http://www.w3.org/2000/svg" viewBox="0 0 48 48">

<defs><radialGradient id="zsc" cx="50%" cy="50%"><stop offset="0%" stop-color="#7c2d12"/><stop offset="100%" stop-color="#1c0806"/></radialGradient></defs>
<circle cx="24" cy="24" r="23" fill="url(#zsc)" stroke="#dc2626" stroke-width="1.5"/>
<circle cx="8" cy="8" r=".7" fill="#ffffff" opacity="0.56"/>
<circle cx="40" cy="10" r=".5" fill="#ffffff" opacity="0.49"/>
<circle cx="6" cy="34" r=".6" fill="#ffffff" opacity="0.42"/>
<circle cx="42" cy="38" r=".5" fill="#ffffff" opacity="0.35"/>
<circle cx="18" cy="6" r=".4" fill="#ffffff" opacity="0.35"/>
<circle cx="36" cy="6" r=".4" fill="#ffffff" opacity="0.28"/>
<circle cx="44" cy="24" r=".5" fill="#ffffff" opacity="0.28"/>
<circle cx="4" cy="20" r=".4" fill="#ffffff" opacity="0.28"/>
<!-- M shape -->
<path d="M8 34 L8 14 C8 10 12 10 12 14 L12 34" stroke="#fff7f7" stroke-width="1.8" fill="none" opacity="0.95"/>
<path d="M12 14 C12 10 16 10 16 14 L16 34" stroke="#fff7f7" stroke-width="1.8" fill="none" opacity="0.95"/>
<path d="M16 14 C16 10 20 10 20 14 L20 30" stroke="#fff7f7" stroke-width="1.8" fill="none" opacity="0.95"/>
<!-- scorpion tail with arrow -->
<path d="M20 30 C22 36 26 38 30 36 C34 34 36 30 38 28" stroke="#ffa9a9" stroke-width="2" fill="none" opacity="0.95"/>
<!-- arrow tip (stinger) -->
<path d="M38 28 L40 24" stroke="#ffa9a9" stroke-width="2" fill="none" opacity="0.95"/>
<path d="M38 28 L42 28" stroke="#ffa9a9" stroke-width="2" fill="none" opacity="0.91"/>
<path d="M40 24 L42 28" stroke="#ffa9a9" stroke-width="1.5" fill="none" opacity="0.77"/>
<circle cx="24" cy="24" r="14" fill="#ff3939" opacity="0.04"/>

</svg>