<svg xmlns="http://www.w3.org/2000/svg" viewBox="0 0 48 48">

<defs><linearGradient id="asm" x1="50%" y1="0%" x2="50%" y2="100%"><stop offset="0%" stop-color="#1c1917"/><stop offset="100%" stop-color="#0a0908"/></linearGradient></defs>
<circle cx="24" cy="24" r="23" fill="url(#asm)" stroke="#dc2626" stroke-width="1.5"/>
<path d="M8 18c4-4 10-6 16-6s12 2 16 6" stroke="#fca5a5" stroke-width="1" fill="none" opacity="0.64"/>
<line x1="8" y1="18" x2="40" y2="18" stroke="#fca5a5" stroke-width="1.2" opacity="0.8"/>
<path d="M12 18v4c0 2 2 3 4 3" stroke="#fca5a5" stroke-width=".6" fill="none" opacity="0.48"/>
<path d="M36 18v4c0 2-2 3-4 3" stroke="#fca5a5" stroke-width=".6" fill="none" opacity="0.48"/>
<rect x="10" y="22" width="28" height="4" rx="2" stroke="#d1d5db" stroke-width=".6" fill="none" opacity="0.32"/>
<circle cx="20" cy="24" r="1.5" fill="#fca5a5" opacity="0.64"/>
<circle cx="28" cy="24" r="1.5" fill="#fca5a5" opacity="0.64"/>
<path d="M20 32c2 2 6 2 8 0" stroke="#d1d5db" stroke-width=".6" fill="none" opacity="0.4"/>

</svg>