<svg xmlns="http://www.w3.org/2000/svg" viewBox="0 0 48 48">

<defs><radialGradient id="zt" cx="50%" cy="50%"><stop offset="0%" stop-color="#064e3b"/><stop offset="100%" stop-color="#022c22"/></radialGradient></defs>
<circle cx="24" cy="24" r="23" fill="url(#zt)" stroke="#059669" stroke-width="1.5"/>
<circle cx="8" cy="8" r=".7" fill="#ffffff" opacity="0.56"/>
<circle cx="40" cy="10" r=".5" fill="#ffffff" opacity="0.49"/>
<circle cx="6" cy="34" r=".6" fill="#ffffff" opacity="0.42"/>
<circle cx="42" cy="38" r=".5" fill="#ffffff" opacity="0.35"/>
<circle cx="18" cy="6" r=".4" fill="#ffffff" opacity="0.35"/>
<circle cx="36" cy="6" r=".4" fill="#ffffff" opacity="0.28"/>
<circle cx="44" cy="24" r=".5" fill="#ffffff" opacity="0.28"/>
<circle cx="4" cy="20" r=".4" fill="#ffffff" opacity="0.28"/>
<!-- circle (bull face) -->
<circle cx="24" cy="28" r="10" stroke="#a5ffff" stroke-width="2" fill="none" opacity="0.95"/>
<!-- horns curving up from circle -->
<path d="M14 28 C14 22 12 14 10 10" stroke="#a5ffff" stroke-width="2" fill="none" opacity="0.91"/>
<path d="M34 28 C34 22 36 14 38 10" stroke="#a5ffff" stroke-width="2" fill="none" opacity="0.91"/>
<!-- horn tips curve inward -->
<path d="M10 10 C12 8 14 9 15 11" stroke="#4effe5" stroke-width="1.5" fill="none" opacity="0.77"/>
<path d="M38 10 C36 8 34 9 33 11" stroke="#4effe5" stroke-width="1.5" fill="none" opacity="0.77"/>
<circle cx="24" cy="24" r="14" fill="#07e19d" opacity="0.04"/>

</svg>