<svg xmlns="http://www.w3.org/2000/svg" viewBox="0 0 48 48">
<defs><radialGradient id="cbg" cx="50%" cy="50%"><stop offset="0%" stop-color="#1a1a2e"/><stop offset="100%" stop-color="#06060e"/></radialGradient></defs>
<circle cx="24" cy="24" r="23" fill="url(#cbg)" stroke="#dc2626" stroke-width="1.5"/>
<circle cx="6" cy="8" r=".5" fill="#ffffff" opacity="0.35"/><circle cx="42" cy="10" r=".5" fill="#ffffff" opacity="0.35"/><circle cx="8" cy="42" r=".5" fill="#ffffff" opacity="0.35"/><circle cx="44" cy="36" r=".5" fill="#ffffff" opacity="0.35"/><circle cx="26" cy="6" r=".5" fill="#ffffff" opacity="0.35"/><circle cx="38" cy="44" r=".5" fill="#ffffff" opacity="0.35"/>
<line x1="10" y1="10" x2="16" y2="14" stroke="#dcffff" stroke-width=".6" opacity="0.56"/><line x1="16" y1="14" x2="20" y2="12" stroke="#dcffff" stroke-width=".6" opacity="0.56"/><line x1="20" y1="12" x2="26" y2="14" stroke="#dcffff" stroke-width=".6" opacity="0.56"/><line x1="26" y1="14" x2="30" y2="18" stroke="#dcffff" stroke-width=".6" opacity="0.56"/>
<line x1="30" y1="18" x2="32" y2="24" stroke="#dcffff" stroke-width=".6" opacity="0.56"/><line x1="32" y1="24" x2="30" y2="30" stroke="#dcffff" stroke-width=".6" opacity="0.56"/><line x1="30" y1="30" x2="26" y2="34" stroke="#dcffff" stroke-width=".6" opacity="0.56"/><line x1="26" y1="34" x2="22" y2="36" stroke="#dcffff" stroke-width=".6" opacity="0.56"/>
<line x1="22" y1="36" x2="26" y2="40" stroke="#dcffff" stroke-width=".6" opacity="0.56"/><line x1="26" y1="40" x2="30" y2="38" stroke="#dcffff" stroke-width=".6" opacity="0.56"/>
<circle cx="10" cy="10" r="2.2" fill="#ffffff" opacity="0.95"/><circle cx="10" cy="10" r="3.2" fill="#ffffff" opacity="0.11"/><circle cx="16" cy="14" r="1.8" fill="#ffffff" opacity="0.95"/><circle cx="16" cy="14" r="2.8" fill="#ffffff" opacity="0.11"/><circle cx="20" cy="12" r="1.8" fill="#ffffff" opacity="0.95"/><circle cx="20" cy="12" r="2.8" fill="#ffffff" opacity="0.11"/><circle cx="26" cy="14" r="1.8" fill="#ffffff" opacity="0.95"/><circle cx="26" cy="14" r="2.8" fill="#ffffff" opacity="0.11"/><circle cx="30" cy="18" r="1.8" fill="#ffffff" opacity="0.95"/><circle cx="30" cy="18" r="2.8" fill="#ffffff" opacity="0.11"/>
<circle cx="32" cy="24" r="1.8" fill="#ffffff" opacity="0.95"/><circle cx="32" cy="24" r="2.8" fill="#ffffff" opacity="0.11"/><circle cx="30" cy="30" r="1.8" fill="#ffffff" opacity="0.95"/><circle cx="30" cy="30" r="2.8" fill="#ffffff" opacity="0.11"/><circle cx="26" cy="34" r="1.8" fill="#ffffff" opacity="0.95"/><circle cx="26" cy="34" r="2.8" fill="#ffffff" opacity="0.11"/><circle cx="22" cy="36" r="1.8" fill="#ffffff" opacity="0.95"/><circle cx="22" cy="36" r="2.8" fill="#ffffff" opacity="0.11"/><circle cx="26" cy="40" r="1.3" fill="#ffffff" opacity="0.95"/><circle cx="26" cy="40" r="2.3" fill="#ffffff" opacity="0.11"/><circle cx="30" cy="38" r="1.3" fill="#ffffff" opacity="0.95"/><circle cx="30" cy="38" r="2.3" fill="#ffffff" opacity="0.11"/>
<text x="24" y="46" text-anchor="middle" font-size="4" fill="#fff7f7" font-family="sans-serif" opacity="0.42">SCORPIUS</text>

</svg>