<svg xmlns="http://www.w3.org/2000/svg" viewBox="0 0 48 48">

<defs><radialGradient id="ab1" cx="50%" cy="45%"><stop offset="0%" stop-color="#5b21b6"/><stop offset="100%" stop-color="#1e1b4b"/></radialGradient></defs>
<circle cx="24" cy="24" r="23" fill="url(#ab1)" stroke="#7c3aed" stroke-width="1.5"/>
<!-- brain side profile -->
<path d="M14 30c-3-1-5-4-5-8 0-3 2-6 4-7 0-3 2-6 5-7 3-2 6-2 9-1 3-1 6 0 8 2 3 2 4 5 4 8 0 4-2 7-5 9-2 2-5 3-8 3" stroke="#ffffff" stroke-width="1.2" fill="#ffffff" fill-opacity="0.21" opacity="0.95"/>
<!-- frontal lobe -->
<path d="M32 16c2 2 3 5 3 8" stroke="#ffffff" stroke-width=".8" fill="none" opacity="0.95"/>
<!-- temporal lobe -->
<path d="M10 22c1-2 3-4 5-4" stroke="#ffffff" stroke-width=".8" fill="none" opacity="0.88"/>
<!-- folds/sulci -->
<path d="M16 12c4-1 8 0 10 2" stroke="#ffffff" stroke-width=".7" fill="none" opacity="0.95"/>
<path d="M12 18c3 0 6-1 9-2" stroke="#ffffff" stroke-width=".6" fill="none" opacity="0.88"/>
<path d="M14 24c4-1 8-2 12-1" stroke="#ffffff" stroke-width=".6" fill="none" opacity="0.78"/>
<path d="M16 28c3 0 7-1 10 0" stroke="#ffffff" stroke-width=".5" fill="none" opacity="0.69"/>
<path d="M28 12c2 1 4 3 5 6" stroke="#ffffff" stroke-width=".5" fill="none" opacity="0.69"/>
<!-- cerebellum (back-bottom) -->
<path d="M12 28c-1 2 0 5 3 6s6 0 8-2" stroke="#ffffff" stroke-width=".8" fill="none" opacity="0.88"/>
<path d="M13 31c2 1 4 1 6 0" stroke="#ffffff" stroke-width=".5" fill="none" opacity="0.59"/>
<!-- brain stem -->
<path d="M22 34v4c0 1 1 2 2 2s2-1 2-2v-4" stroke="#ffffff" stroke-width=".8" fill="none" opacity="0.78"/>

</svg>