<svg xmlns="http://www.w3.org/2000/svg" viewBox="0 0 48 48">
<defs><radialGradient id="cbg" cx="50%" cy="50%"><stop offset="0%" stop-color="#1a1a2e"/><stop offset="100%" stop-color="#06060e"/></radialGradient></defs>
<circle cx="24" cy="24" r="23" fill="url(#cbg)" stroke="#0891b2" stroke-width="1.5"/>
<circle cx="6" cy="8" r=".5" fill="#ffffff" opacity="0.35"/><circle cx="42" cy="10" r=".5" fill="#ffffff" opacity="0.35"/><circle cx="8" cy="38" r=".5" fill="#ffffff" opacity="0.35"/><circle cx="44" cy="40" r=".5" fill="#ffffff" opacity="0.35"/><circle cx="20" cy="44" r=".5" fill="#ffffff" opacity="0.35"/><circle cx="36" cy="6" r=".5" fill="#ffffff" opacity="0.35"/>
<line x1="24" y1="6" x2="24" y2="14" stroke="#dcffff" stroke-width=".6" opacity="0.56"/><line x1="24" y1="14" x2="24" y2="28" stroke="#dcffff" stroke-width=".6" opacity="0.56"/><line x1="24" y1="28" x2="24" y2="40" stroke="#dcffff" stroke-width=".6" opacity="0.56"/>
<line x1="10" y1="18" x2="24" y2="28" stroke="#dcffff" stroke-width=".6" opacity="0.56"/><line x1="24" y1="28" x2="38" y2="18" stroke="#dcffff" stroke-width=".6" opacity="0.56"/>
<line x1="24" y1="14" x2="18" y2="10" stroke="#dcffff" stroke-width=".6" opacity="0.56"/><line x1="24" y1="14" x2="30" y2="10" stroke="#dcffff" stroke-width=".6" opacity="0.56"/>
<circle cx="24" cy="6" r="2" fill="#ffffff" opacity="0.95"/><circle cx="24" cy="6" r="3" fill="#ffffff" opacity="0.11"/><circle cx="24" cy="14" r="1.8" fill="#ffffff" opacity="0.95"/><circle cx="24" cy="14" r="2.8" fill="#ffffff" opacity="0.11"/><circle cx="24" cy="28" r="1.8" fill="#ffffff" opacity="0.95"/><circle cx="24" cy="28" r="2.8" fill="#ffffff" opacity="0.11"/><circle cx="24" cy="40" r="1.5" fill="#ffffff" opacity="0.95"/><circle cx="24" cy="40" r="2.5" fill="#ffffff" opacity="0.11"/>
<circle cx="10" cy="18" r="1.8" fill="#ffffff" opacity="0.95"/><circle cx="10" cy="18" r="2.8" fill="#ffffff" opacity="0.11"/><circle cx="38" cy="18" r="1.8" fill="#ffffff" opacity="0.95"/><circle cx="38" cy="18" r="2.8" fill="#ffffff" opacity="0.11"/><circle cx="18" cy="10" r="1.3" fill="#ffffff" opacity="0.95"/><circle cx="18" cy="10" r="2.3" fill="#ffffff" opacity="0.11"/><circle cx="30" cy="10" r="1.3" fill="#ffffff" opacity="0.95"/><circle cx="30" cy="10" r="2.3" fill="#ffffff" opacity="0.11"/>
<text x="24" y="46" text-anchor="middle" font-size="5" fill="#9affff" font-family="sans-serif" opacity="0.49">CYGNUS</text>

</svg>