<svg xmlns="http://www.w3.org/2000/svg" viewBox="0 0 48 48">
<defs><radialGradient id="cbg" cx="50%" cy="50%"><stop offset="0%" stop-color="#1a1a2e"/><stop offset="100%" stop-color="#06060e"/></radialGradient></defs>
<circle cx="24" cy="24" r="23" fill="url(#cbg)" stroke="#a855f7" stroke-width="1.5"/>
<circle cx="8" cy="10" r=".5" fill="#ffffff" opacity="0.35"/><circle cx="42" cy="14" r=".5" fill="#ffffff" opacity="0.35"/><circle cx="6" cy="36" r=".5" fill="#ffffff" opacity="0.35"/><circle cx="40" cy="38" r=".5" fill="#ffffff" opacity="0.35"/><circle cx="24" cy="44" r=".5" fill="#ffffff" opacity="0.35"/><circle cx="14" cy="6" r=".5" fill="#ffffff" opacity="0.35"/>
<line x1="6" y1="24" x2="14" y2="14" stroke="#dcffff" stroke-width=".6" opacity="0.56"/><line x1="14" y1="14" x2="22" y2="28" stroke="#dcffff" stroke-width=".6" opacity="0.56"/><line x1="22" y1="28" x2="30" y2="14" stroke="#dcffff" stroke-width=".6" opacity="0.56"/><line x1="30" y1="14" x2="42" y2="24" stroke="#dcffff" stroke-width=".6" opacity="0.56"/>
<circle cx="6" cy="24" r="1.8" fill="#ffffff" opacity="0.95"/><circle cx="6" cy="24" r="2.8" fill="#ffffff" opacity="0.11"/><circle cx="14" cy="14" r="1.8" fill="#ffffff" opacity="0.95"/><circle cx="14" cy="14" r="2.8" fill="#ffffff" opacity="0.11"/><circle cx="22" cy="28" r="1.8" fill="#ffffff" opacity="0.95"/><circle cx="22" cy="28" r="2.8" fill="#ffffff" opacity="0.11"/><circle cx="30" cy="14" r="1.8" fill="#ffffff" opacity="0.95"/><circle cx="30" cy="14" r="2.8" fill="#ffffff" opacity="0.11"/><circle cx="42" cy="24" r="1.8" fill="#ffffff" opacity="0.95"/><circle cx="42" cy="24" r="2.8" fill="#ffffff" opacity="0.11"/>
<text x="24" y="40" text-anchor="middle" font-size="5" fill="#ffffff" font-family="sans-serif" opacity="0.49">CASSIOPEIA</text>

</svg>