<svg xmlns="http://www.w3.org/2000/svg" viewBox="0 0 48 48" fill="none" stroke-linecap="round" stroke-linejoin="round">
<defs><linearGradient id="fd" x1="0%" y1="0%" x2="100%" y2="100%"><stop offset="0%" stop-color="#dc2626"/><stop offset="100%" stop-color="#ea580c"/></linearGradient><filter id="s3d_fire_dep"><feDropShadow dx="1.5" dy="2.5" stdDeviation="2" flood-opacity=".3"/></filter></defs><path d="M4 44 Q14 41 24 43 Q34 45 44 42" stroke="#dc2626" stroke-width="1" fill="none" opacity="0.22"/>
<path d="M10 22c0-8 6-14 14-14s14 6 14 14v2H10z" stroke="url(#fd)" stroke-width="2.5" fill="url(#fd)" fill-opacity="0.09" filter="url(#s3d_fire_dep)"/>
<line x1="8" y1="24" x2="40" y2="24" stroke="url(#fd)" stroke-width="2.9"/>
<rect x="18" y="14" width="12" height="6" rx="1" stroke="#ea580c" stroke-width="1.2" fill="#ea580c" fill-opacity="0.15"/>
<line x1="6" y1="28" x2="6" y2="42" stroke="url(#fd)" stroke-width="2.9"/>
<path d="M6 28l-2 4h6l-2-4" stroke="url(#fd)" stroke-width="1.7" fill="#dc2626" fill-opacity="0.18"/>
<path d="M24 30v8c-2 2-4 4-4 6h8c0-2-2-4-4-6" stroke="#ea580c" stroke-width="1.7" fill="#ea580c" fill-opacity="0.09" opacity=".5"/>

<path d="M12 10c5-4 14-6 22-2" stroke="white" stroke-width="0.8" opacity=".15" fill="none"/>
</svg>