<svg xmlns="http://www.w3.org/2000/svg" viewBox="0 0 48 48" fill="none" stroke-linecap="round" stroke-linejoin="round">

<defs><linearGradient id="frn" x1="0%" y1="0%" x2="100%" y2="100%"><stop offset="0%" stop-color="#00d4ff"/><stop offset="100%" stop-color="#a855f7"/></linearGradient></defs><path d="M4 44 Q14 41 24 43 Q34 45 44 42" stroke="#a855f7" stroke-width="1" fill="none" opacity="0.15" stroke-linecap="round"/>
<path d="M8 6h32a2 2 0 0 1 2 2v10a2 2 0 0 1-2 2H8a2 2 0 0 1-2-2V8a2 2 0 0 1 2-2z" stroke="url(#frn)" stroke-width="2" fill="none"/>
<text x="24" y="16" text-anchor="middle" font-size="9" fill="#00d4ff" font-weight="700" opacity=".5">abc</text>
<line x1="12" y1="30" x2="28" y2="30" stroke="url(#frn)" stroke-width="2" stroke-linecap="round" opacity=".5"/>
<path d="M32 26l6 4-6 4" stroke="#a855f7" stroke-width="1.5" fill="none" opacity=".4"/>

</svg>