<svg xmlns="http://www.w3.org/2000/svg" viewBox="0 0 48 48" fill="none" stroke-linecap="round" stroke-linejoin="round">
<defs><linearGradient id="faa" x1="0%" y1="0%" x2="100%" y2="100%"><stop offset="0%" stop-color="#00d4ff"/><stop offset="100%" stop-color="#a855f7"/></linearGradient></defs><path d="M4 44 Q14 41 24 43 Q34 45 44 42" stroke="#00d4ff" stroke-width="1" fill="none" opacity="0.15" stroke-linecap="round"/>
<path d="M10 6h14l10 10v22a4 4 0 0 1-4 4H10a4 4 0 0 1-4-4V10a4 4 0 0 1 4-4z" stroke="url(#faa)" stroke-width="2" fill="none"/>
<path d="M24 6v10h10" stroke="url(#faa)" stroke-width="1.5" fill="none" opacity=".4"/>
<circle cx="16" cy="32" r="3.5" stroke="#00d4ff" stroke-width="1.5" fill="none"/>
<line x1="19.5" y1="32" x2="19.5" y2="20" stroke="#00d4ff" stroke-width="1.5" stroke-linecap="round"/>
<path d="M19.5 20c2-1 4.5 0 4.5 2" stroke="#a855f7" stroke-width="1.2" fill="none"/>
<line x1="10" y1="23" x2="10" y2="27" stroke="#a855f7" stroke-width="1.2" stroke-linecap="round" opacity=".3"/>
<line x1="13" y1="21" x2="13" y2="29" stroke="#a855f7" stroke-width="1.2" stroke-linecap="round" opacity=".25"/>
<circle cx="36" cy="34" r="9" stroke="#10b981" stroke-width="2" fill="#0a0a12" fill-opacity=".9"/>
<line x1="36" y1="29" x2="36" y2="39" stroke="#10b981" stroke-width="2.5" stroke-linecap="round"/>
<line x1="31" y1="34" x2="41" y2="34" stroke="#10b981" stroke-width="2.5" stroke-linecap="round"/>

</svg>