<svg xmlns="http://www.w3.org/2000/svg" viewBox="0 0 48 48" fill="none" stroke-linecap="round" stroke-linejoin="round">
<defs><linearGradient id="faa" x1="0%" y1="0%" x2="100%" y2="100%"><stop offset="0%" stop-color="#10b981"/><stop offset="100%" stop-color="#3b82f6"/></linearGradient></defs><path d="M4 44 Q14 41 24 43 Q34 45 44 42" stroke="#10b981" stroke-width="1" fill="none" opacity="0.12" stroke-linecap="round"/>
<path d="M12 6h16l10 10v22a4 4 0 0 1-4 4H12a4 4 0 0 1-4-4V10a4 4 0 0 1 4-4z" stroke="url(#faa)" stroke-width="2" fill="none"/>
<path d="M28 6v10h10" stroke="url(#faa)" stroke-width="1.5" fill="none" opacity=".4"/>
<path d="M24 20v12" stroke="url(#faa)" stroke-width="2.5"/>
<path d="M18 26h12" stroke="url(#faa)" stroke-width="2.5"/>
<path d="M15 36c0 0 2 3 4 3s3-6 5-6 3 6 5 6 4-3 4-3" stroke="url(#faa)" stroke-width="1.2" fill="none" opacity=".35"/>
</svg>
