<svg xmlns="http://www.w3.org/2000/svg" viewBox="0 0 48 48" fill="none" stroke-linecap="round" stroke-linejoin="round">
<defs><linearGradient id="fd" x1="0%" y1="0%" x2="100%" y2="100%"><stop offset="0%" stop-color="#9a1a1a"/><stop offset="100%" stop-color="#a33d08"/></linearGradient><filter id="s3d_file_del"><feDropShadow dx="1.5" dy="2.5" stdDeviation="2" flood-opacity=".3"/></filter></defs>
<path d="M4 44 Q14 41 24 43 Q34 45 44 42" stroke="#9a1a1a" stroke-width="1" fill="none" opacity="0.27"/>
<!-- lid -->
<path d="M6 14h36" stroke="url(#fd)" stroke-width="2.9" filter="url(#s3d_file_del)"/>
<!-- lid handle -->
<path d="M18 14V10a2 2 0 0 1 2-2h8a2 2 0 0 1 2 2v4" stroke="url(#fd)" stroke-width="2.3"/>
<!-- lid knob -->
<line x1="20" y1="8" x2="28" y2="8" stroke="url(#fd)" stroke-width="1.7" opacity=".4"/>
<!-- bin body -->
<path d="M10 14l2 26a3 3 0 0 0 3 3h18a3 3 0 0 0 3-3l2-26" stroke="url(#fd)" stroke-width="2.3" fill="none"/>
<!-- bin ribs/lines -->
<line x1="19" y1="20" x2="19" y2="38" stroke="url(#fd)" stroke-width="2.1" opacity=".45"/>
<line x1="24" y1="20" x2="24" y2="38" stroke="url(#fd)" stroke-width="2.1" opacity=".45"/>
<line x1="29" y1="20" x2="29" y2="38" stroke="url(#fd)" stroke-width="2.1" opacity=".45"/>
<path d="M12 10c5-4 14-6 22-2" stroke="#d1d5db" stroke-width="0.8" opacity=".15" fill="none"/>
</svg>
