<svg xmlns="http://www.w3.org/2000/svg" viewBox="0 0 48 48" fill="none" stroke-linecap="round" stroke-linejoin="round">

<defs><linearGradient id="gf" x1="0%" y1="0%" x2="100%" y2="100%"><stop offset="0%" stop-color="#036949"/><stop offset="100%" stop-color="#05657c"/></linearGradient><filter id="s3d_finance"><feDropShadow dx="1.5" dy="2.5" stdDeviation="2" flood-opacity=".3"/></filter></defs><path d="M4 44 Q14 41 24 43 Q34 45 44 42" stroke="#036949" stroke-width="1" fill="none" opacity="0.3" stroke-linecap="round"/>
<circle cx="24" cy="22" r="15" stroke="url(#gf)" stroke-width="2.5" fill="none" fill-opacity="0.09" filter="url(#s3d_finance)"/>
<circle cx="24" cy="22" r="12" stroke="url(#gf)" stroke-width="0.8" fill="none" opacity="0.3"/>
<path d="M30 13a10 10 0 0 0-8.5 5H29m-8 3H28.5a10 10 0 0 1-7 10" stroke="url(#gf)" stroke-width="2.9" fill="none" stroke-linecap="round"/>
<line x1="14" y1="19" x2="25" y2="19" stroke="url(#gf)" stroke-width="2.3" stroke-linecap="round" opacity=".7"/>
<line x1="14" y1="23" x2="25" y2="23" stroke="url(#gf)" stroke-width="2.3" stroke-linecap="round" opacity=".7"/>
<path d="M34 36L40 30" stroke="#036949" stroke-width="1.7" stroke-linecap="round" opacity=".4"/>
<path d="M37 30L40 30L40 33" stroke="#036949" stroke-width="1.7" fill="none" opacity=".4"/>

<path d="M12 10c5-4 14-6 22-2" stroke="#d1d5db" stroke-width="0.8" opacity=".15" fill="none"/>
</svg>