<svg xmlns="http://www.w3.org/2000/svg" viewBox="0 0 48 48" fill="none" stroke-linecap="round" stroke-linejoin="round">
<defs><linearGradient id="ug" x1="0%" y1="0%" x2="100%" y2="100%"><stop offset="0%" stop-color="#143697"/><stop offset="100%" stop-color="#05657c"/></linearGradient><filter id="s3d_user_gro"><feDropShadow dx="1.5" dy="2.5" stdDeviation="2" flood-opacity=".3"/></filter></defs><path d="M4 44 Q14 41 24 43 Q34 45 44 42" stroke="#143697" stroke-width="1" fill="none" opacity="0.22" stroke-linecap="round"/><circle cx="16" cy="14" r="5" stroke="url(#ug)" stroke-width="2.1" fill="none"/><circle cx="32" cy="14" r="5" stroke="url(#ug)" stroke-width="2.1" fill="none"/><circle cx="24" cy="20" r="5" stroke="url(#ug)" stroke-width="2.1" fill="none"/><path d="M6 38a10 10 0 0 1 10-10" stroke="url(#ug)" stroke-width="2.1" fill="none"/><path d="M42 38a10 10 0 0 0-10-10" stroke="url(#ug)" stroke-width="2.1" fill="none"/><path d="M14 42a10 10 0 0 1 10-10 10 10 0 0 1 10 10" stroke="url(#ug)" stroke-width="2.1" fill="none"/>
<path d="M12 10c5-4 14-6 22-2" stroke="#d1d5db" stroke-width="0.8" opacity=".15" fill="none"/>
</svg>