<svg xmlns="http://www.w3.org/2000/svg" viewBox="0 0 48 48" fill="none" stroke-linecap="round" stroke-linejoin="round">

<defs><linearGradient id="gp" x1="0%" y1="0%" x2="100%" y2="100%"><stop offset="0%" stop-color="#143697"/><stop offset="100%" stop-color="#5628a5"/></linearGradient><filter id="s3d_projects"><feDropShadow dx="1.5" dy="2.5" stdDeviation="2" flood-opacity=".3"/></filter></defs><path d="M4 44 Q14 41 24 43 Q34 45 44 42" stroke="#143697" stroke-width="1" fill="none" opacity="0.3" stroke-linecap="round"/>
<path d="M6 10h12l4 4h18a3 3 0 0 1 3 3v20a3 3 0 0 1-3 3H6a3 3 0 0 1-3-3V13a3 3 0 0 1 3-3z" stroke="url(#gp)" stroke-width="2.5" fill="none" filter="url(#s3d_projects)"/>
<line x1="14" y1="24" x2="34" y2="24" stroke="url(#gp)" stroke-width="1.2" opacity=".3" stroke-linecap="round"/>
<line x1="14" y1="29" x2="28" y2="29" stroke="url(#gp)" stroke-width="1.2" opacity="0.38" stroke-linecap="round"/>

<path d="M12 10c5-4 14-6 22-2" stroke="#d1d5db" stroke-width="0.8" opacity=".15" fill="none"/>
</svg>