<svg xmlns="http://www.w3.org/2000/svg" viewBox="0 0 48 48" fill="none" stroke-linecap="round" stroke-linejoin="round">

<defs><linearGradient id="gllm" x1="0%" y1="0%" x2="100%" y2="100%"><stop offset="0%" stop-color="#5628a5"/><stop offset="100%" stop-color="#05657c"/></linearGradient><filter id="s3d_llm_mode"><feDropShadow dx="1.5" dy="2.5" stdDeviation="2" flood-opacity=".3"/></filter></defs><path d="M4 44 Q14 41 24 43 Q34 45 44 42" stroke="#5628a5" stroke-width="1" fill="none" opacity="0.3" stroke-linecap="round"/>
<rect x="8" y="8" width="32" height="32" rx="6" stroke="url(#gllm)" stroke-width="2.5" fill="none" fill-opacity="0.09" filter="url(#s3d_llm_mode)"/>
<circle cx="18" cy="18" r="3" stroke="#05657c" stroke-width="1.7" fill="#05657c" fill-opacity="0.18"/>
<circle cx="30" cy="18" r="3" stroke="#5628a5" stroke-width="1.7" fill="#5628a5" fill-opacity="0.18"/>
<circle cx="18" cy="30" r="3" stroke="#5628a5" stroke-width="1.7" fill="#5628a5" fill-opacity="0.18"/>
<circle cx="30" cy="30" r="3" stroke="#05657c" stroke-width="1.7" fill="#05657c" fill-opacity="0.18"/>
<circle cx="24" cy="24" r="2.5" stroke="url(#gllm)" stroke-width="1.7" fill="none"/>
<line x1="20.5" y1="19.5" x2="22" y2="22" stroke="#05657c" stroke-width="1" opacity=".4"/>
<line x1="27.5" y1="19.5" x2="26" y2="22" stroke="#5628a5" stroke-width="1" opacity=".4"/>
<line x1="20.5" y1="28.5" x2="22" y2="26" stroke="#5628a5" stroke-width="1" opacity=".4"/>
<line x1="27.5" y1="28.5" x2="26" y2="26" stroke="#05657c" stroke-width="1" opacity=".4"/>
<line x1="4" y1="16" x2="8" y2="16" stroke="url(#gllm)" stroke-width="1.7" opacity=".4" stroke-linecap="round"/>
<line x1="4" y1="24" x2="8" y2="24" stroke="url(#gllm)" stroke-width="1.7" opacity=".4" stroke-linecap="round"/>
<line x1="4" y1="32" x2="8" y2="32" stroke="url(#gllm)" stroke-width="1.7" opacity=".4" stroke-linecap="round"/>
<line x1="40" y1="16" x2="44" y2="16" stroke="url(#gllm)" stroke-width="1.7" opacity=".4" stroke-linecap="round"/>
<line x1="40" y1="24" x2="44" y2="24" stroke="url(#gllm)" stroke-width="1.7" opacity=".4" stroke-linecap="round"/>
<line x1="40" y1="32" x2="44" y2="32" stroke="url(#gllm)" stroke-width="1.7" opacity=".4" stroke-linecap="round"/>

<path d="M12 10c5-4 14-6 22-2" stroke="#d1d5db" stroke-width="0.8" opacity=".15" fill="none"/>
</svg>