<svg xmlns="http://www.w3.org/2000/svg" viewBox="0 0 48 48" fill="none" stroke-linecap="round" stroke-linejoin="round">
<defs><linearGradient id="fa" x1="0%" y1="0%" x2="100%" y2="100%"><stop offset="0%" stop-color="#05657c"/><stop offset="100%" stop-color="#143697"/></linearGradient><filter id="s3d_file_add"><feDropShadow dx="1.5" dy="2.5" stdDeviation="2" flood-opacity=".3"/></filter></defs><path d="M4 44 Q14 41 24 43 Q34 45 44 42" stroke="#05657c" stroke-width="1" fill="none" opacity="0.22" stroke-linecap="round"/>
<path d="M10 6h14l10 10v22a4 4 0 0 1-4 4H10a4 4 0 0 1-4-4V10a4 4 0 0 1 4-4z" stroke="url(#fa)" stroke-width="2.3" fill="none"/>
<path d="M24 6v10h10" stroke="url(#fa)" stroke-width="1.7" fill="none" opacity=".4"/>
<line x1="12" y1="24" x2="24" y2="24" stroke="url(#fa)" stroke-width="1.2" stroke-linecap="round" opacity="0.38"/>
<line x1="12" y1="30" x2="20" y2="30" stroke="url(#fa)" stroke-width="1.2" stroke-linecap="round" opacity="0.3"/>
<circle cx="36" cy="34" r="9" stroke="#036949" stroke-width="2.3" fill="#0a0a12" fill-opacity=".9" filter="url(#s3d_file_add)"/>
<line x1="36" y1="29" x2="36" y2="39" stroke="#036949" stroke-width="2.9" stroke-linecap="round"/>
<line x1="31" y1="34" x2="41" y2="34" stroke="#036949" stroke-width="2.9" stroke-linecap="round"/>

<path d="M12 10c5-4 14-6 22-2" stroke="#d1d5db" stroke-width="0.8" opacity=".15" fill="none"/>
</svg>