<svg xmlns="http://www.w3.org/2000/svg" viewBox="0 0 48 48" fill="none" stroke-linecap="round" stroke-linejoin="round">

<defs><linearGradient id="gt" x1="0%" y1="0%" x2="100%" y2="100%"><stop offset="0%" stop-color="#05657c"/><stop offset="100%" stop-color="#143697"/></linearGradient><filter id="s3d_transcri"><feDropShadow dx="1.5" dy="2.5" stdDeviation="2" flood-opacity=".3"/></filter></defs><path d="M4 44 Q14 41 24 43 Q34 45 44 42" stroke="#05657c" stroke-width="1" fill="none" opacity="0.3" stroke-linecap="round"/>
<rect x="19" y="6" width="10" height="18" rx="5" stroke="url(#gt)" stroke-width="2.5" fill="none" fill-opacity="0.09" filter="url(#s3d_transcri)"/>
<path d="M13 22v2a11 11 0 0 0 22 0v-2" stroke="url(#gt)" stroke-width="2.3" fill="none"/>
<line x1="24" y1="35" x2="24" y2="40" stroke="url(#gt)" stroke-width="2.3" stroke-linecap="round"/>
<line x1="18" y1="40" x2="30" y2="40" stroke="url(#gt)" stroke-width="2.3" stroke-linecap="round"/>
<line x1="7" y1="16" x2="7" y2="22" stroke="#05657c" stroke-width="1.7" stroke-linecap="round" opacity=".35"/>
<line x1="10" y1="13" x2="10" y2="25" stroke="#05657c" stroke-width="1.7" stroke-linecap="round" opacity="0.38"/>
<line x1="38" y1="14" x2="38" y2="24" stroke="#5628a5" stroke-width="1.7" stroke-linecap="round" opacity="0.38"/>
<line x1="41" y1="17" x2="41" y2="21" stroke="#5628a5" stroke-width="1.7" stroke-linecap="round" opacity=".35"/>

<path d="M12 10c5-4 14-6 22-2" stroke="#d1d5db" stroke-width="0.8" opacity=".15" fill="none"/>
</svg>