<svg xmlns="http://www.w3.org/2000/svg" viewBox="0 0 48 48" fill="none" stroke-linecap="round" stroke-linejoin="round">
<defs><linearGradient id="sdb" x1="0%" y1="0%" x2="100%" y2="100%"><stop offset="0%" stop-color="#5628a5"/><stop offset="100%" stop-color="#05657c"/></linearGradient><filter id="s3d_database"><feDropShadow dx="1.5" dy="2.5" stdDeviation="2" flood-opacity=".3"/></filter></defs><path d="M4 44 Q14 41 24 43 Q34 45 44 42" stroke="#5628a5" stroke-width="1" fill="none" opacity="0.18" stroke-linecap="round"/><ellipse cx="24" cy="12" rx="16" ry="6" stroke="url(#sdb)" stroke-width="2.3" fill="none" fill-opacity="0.09" filter="url(#s3d_database)"/><path d="M8 12v24c0 3.3 7.2 6 16 6s16-2.7 16-6V12" stroke="url(#sdb)" stroke-width="2.3" fill="none"/><path d="M8 22c0 3.3 7.2 6 16 6s16-2.7 16-6" stroke="url(#sdb)" stroke-width="1.2" fill="none" opacity=".3"/><path d="M8 32c0 3.3 7.2 6 16 6s16-2.7 16-6" stroke="url(#sdb)" stroke-width="1.2" fill="none" opacity=".3"/>
<path d="M12 10c5-4 14-6 22-2" stroke="#d1d5db" stroke-width="0.8" opacity=".15" fill="none"/>
</svg>