<svg xmlns="http://www.w3.org/2000/svg" viewBox="0 0 48 48" fill="none" stroke-linecap="round" stroke-linejoin="round">

<defs><linearGradient id="gad" x1="0%" y1="0%" x2="100%" y2="100%"><stop offset="0%" stop-color="#05657c"/><stop offset="100%" stop-color="#6623a3"/></linearGradient><filter id="s3d_admin_gp"><feDropShadow dx="1.5" dy="2.5" stdDeviation="2" flood-opacity=".3"/></filter></defs><path d="M4 44 Q14 41 24 43 Q34 45 44 42" stroke="#6623a3" stroke-width="1" fill="none" opacity="0.3" stroke-linecap="round"/>
<rect x="5" y="5" width="38" height="26" rx="3" stroke="url(#gad)" stroke-width="2.5" fill="none" fill-opacity="0.09" filter="url(#s3d_admin_gp)"/>
<rect x="10" y="14" width="4" height="12" rx="1" stroke="#05657c" stroke-width="1" fill="#05657c" fill-opacity="0.22"/>
<rect x="16" y="10" width="4" height="16" rx="1" stroke="#05657c" stroke-width="1" fill="#05657c" fill-opacity="0.3"/>
<rect x="22" y="12" width="4" height="14" rx="1" stroke="#6623a3" stroke-width="1" fill="#6623a3" fill-opacity="0.22"/>
<rect x="28" y="8" width="4" height="18" rx="1" stroke="#6623a3" stroke-width="1" fill="#6623a3" fill-opacity="0.3"/>
<rect x="34" y="15" width="4" height="11" rx="1" stroke="#5628a5" stroke-width="1" fill="#5628a5" fill-opacity="0.18"/>
<line x1="24" y1="31" x2="24" y2="37" stroke="url(#gad)" stroke-width="2.3" stroke-linecap="round"/>
<line x1="16" y1="37" x2="32" y2="37" stroke="url(#gad)" stroke-width="2.3" stroke-linecap="round"/>

<path d="M12 10c5-4 14-6 22-2" stroke="#d1d5db" stroke-width="0.8" opacity=".15" fill="none"/>
</svg>