<svg xmlns="http://www.w3.org/2000/svg" viewBox="0 0 48 48" fill="none" stroke-linecap="round" stroke-linejoin="round">

<defs><linearGradient id="gasr" x1="0%" y1="0%" x2="100%" y2="100%"><stop offset="0%" stop-color="#05657c"/><stop offset="100%" stop-color="#143697"/></linearGradient><filter id="s3d_asr_mode"><feDropShadow dx="1.5" dy="2.5" stdDeviation="2" flood-opacity=".3"/></filter></defs><path d="M4 44 Q14 41 24 43 Q34 45 44 42" stroke="#05657c" stroke-width="1" fill="none" opacity="0.3" stroke-linecap="round"/>
<path d="M8 30V22a16 16 0 0 1 32 0v8" stroke="url(#gasr)" stroke-width="2.5" fill="none"/>
<rect x="4" y="28" width="8" height="12" rx="3" stroke="url(#gasr)" stroke-width="2.3" fill="none" fill-opacity="0.09" filter="url(#s3d_asr_mode)"/>
<rect x="36" y="28" width="8" height="12" rx="3" stroke="url(#gasr)" stroke-width="2.3" fill="none"/>
<line x1="18" y1="24" x2="18" y2="30" stroke="#05657c" stroke-width="1.7" stroke-linecap="round" opacity=".35"/>
<line x1="21" y1="22" x2="21" y2="32" stroke="#05657c" stroke-width="1.7" stroke-linecap="round" opacity=".3"/>
<line x1="24" y1="20" x2="24" y2="34" stroke="#143697" stroke-width="1.7" stroke-linecap="round" opacity=".35"/>
<line x1="27" y1="22" x2="27" y2="32" stroke="#143697" stroke-width="1.7" stroke-linecap="round" opacity=".3"/>
<line x1="30" y1="24" x2="30" y2="30" stroke="#143697" stroke-width="1.7" stroke-linecap="round" opacity=".35"/>

<path d="M12 10c5-4 14-6 22-2" stroke="#d1d5db" stroke-width="0.8" opacity=".15" fill="none"/>
</svg>