<svg xmlns="http://www.w3.org/2000/svg" viewBox="0 0 48 48" fill="none" stroke-linecap="round" stroke-linejoin="round">

<defs><linearGradient id="gs" x1="0%" y1="0%" x2="100%" y2="100%"><stop offset="0%" stop-color="#677280"/><stop offset="100%" stop-color="#05657c"/></linearGradient><filter id="s3d_settings"><feDropShadow dx="1.5" dy="2.5" stdDeviation="2" flood-opacity=".3"/></filter></defs><path d="M4 44 Q14 41 24 43 Q34 45 44 42" stroke="#677280" stroke-width="1" fill="none" opacity="0.3" stroke-linecap="round"/>
<circle cx="24" cy="20" r="5" stroke="url(#gs)" stroke-width="2.3" fill="none" fill-opacity="0.09" filter="url(#s3d_settings)"/>
<path d="M24 6l2.5 3.5a12 12 0 0 1 4.2 1.7L35 9l3 5-3.2 2.5a12 12 0 0 1 0 5L38 24l-3 5-4.3-1.8a12 12 0 0 1-4.2 1.7L24 33l-2.5-3.5a12 12 0 0 1-4.2-1.7L13 30l-3-5 3.2-2.5a12 12 0 0 1 0-5L10 15l3-5 4.3 1.8a12 12 0 0 1 4.2-1.7z" stroke="url(#gs)" stroke-width="2.3" fill="none"/>
<rect x="14" y="37" width="20" height="6" rx="3" stroke="#05657c" stroke-width="1.2" fill="none" opacity=".3"/>
<circle cx="30" cy="40" r="2.5" fill="#05657c" opacity="0.38"/>

<path d="M12 10c5-4 14-6 22-2" stroke="#d1d5db" stroke-width="0.8" opacity=".15" fill="none"/>
</svg>