<svg xmlns="http://www.w3.org/2000/svg" viewBox="0 0 48 48" fill="none" stroke-linecap="round" stroke-linejoin="round">

<defs><linearGradient id="gtts" x1="0%" y1="0%" x2="100%" y2="100%"><stop offset="0%" stop-color="#095164"/><stop offset="100%" stop-color="#5628a5"/></linearGradient><filter id="s3d_tts"><feDropShadow dx="1.5" dy="2.5" stdDeviation="2" flood-opacity=".3"/></filter></defs><path d="M4 44 Q14 41 24 43 Q34 45 44 42" stroke="#095164" stroke-width="1" fill="none" opacity="0.3" stroke-linecap="round"/>
<polygon points="20 14 12 20 4 20 4 30 12 30 20 36" stroke="url(#gtts)" stroke-width="2.5" fill="none"/>
<path d="M26 18a8 8 0 0 1 0 14" stroke="url(#gtts)" stroke-width="2.3" fill="none" stroke-linecap="round" filter="url(#s3d_tts)"/>
<path d="M31 12a14 14 0 0 1 0 26" stroke="url(#gtts)" stroke-width="2.3" fill="none" stroke-linecap="round"/>
<path d="M36 7a20 20 0 0 1 0 36" stroke="url(#gtts)" stroke-width="1.7" fill="none" stroke-linecap="round" opacity=".4"/>

<path d="M12 10c5-4 14-6 22-2" stroke="#d1d5db" stroke-width="0.8" opacity=".15" fill="none"/>
</svg>