<svg xmlns="http://www.w3.org/2000/svg" viewBox="0 0 48 48" fill="none" stroke-linecap="round" stroke-linejoin="round">
<defs><linearGradient id="att" x1="0%" y1="0%" x2="100%" y2="100%"><stop offset="0%" stop-color="#475569"/><stop offset="100%" stop-color="#1d4ed8"/></linearGradient><filter id="s3d_attache"><feDropShadow dx="1.5" dy="2.5" stdDeviation="2" flood-opacity=".3"/></filter></defs><path d="M4 44 Q14 41 24 43 Q34 45 44 42" stroke="#475569" stroke-width="1" fill="none" opacity="0.22"/>
<rect x="6" y="18" width="36" height="22" rx="3" stroke="url(#att)" stroke-width="2.3" fill="none" fill-opacity="0.09" filter="url(#s3d_attache)"/>
<path d="M18 18v-6a2 2 0 0 1 2-2h8a2 2 0 0 1 2 2v6" stroke="url(#att)" stroke-width="2.3" fill="none"/>
<line x1="6" y1="28" x2="42" y2="28" stroke="url(#att)" stroke-width="1.7" opacity=".3"/>
<rect x="20" y="25" width="8" height="6" rx="1.5" stroke="#1d4ed8" stroke-width="1.7" fill="#1d4ed8" fill-opacity="0.15"/>
<path d="M36 6h6v4h-6z" stroke="#dc2626" stroke-width="1.2" fill="#dc2626" fill-opacity="0.3"/>
<line x1="36" y1="4" x2="36" y2="10" stroke="#475569" stroke-width="1.7"/>

<path d="M12 10c5-4 14-6 22-2" stroke="white" stroke-width="0.8" opacity=".15" fill="none"/>
</svg>