<svg xmlns="http://www.w3.org/2000/svg" viewBox="0 0 48 48" fill="none" stroke-linecap="round" stroke-linejoin="round">
<defs><linearGradient id="cc" x1="0%" y1="0%" x2="100%" y2="100%"><stop offset="0%" stop-color="#9333ea"/><stop offset="100%" stop-color="#7c3aed"/></linearGradient><filter id="s3d_cultural"><feDropShadow dx="1.5" dy="2.5" stdDeviation="2" flood-opacity=".3"/></filter></defs><path d="M4 44 Q14 41 24 43 Q34 45 44 42" stroke="#9333ea" stroke-width="1" fill="none" opacity="0.22"/>
<rect x="8" y="18" width="32" height="24" rx="2" stroke="url(#cc)" stroke-width="2.3" fill="none" fill-opacity="0.09" filter="url(#s3d_cultural)"/>
<path d="M8 18l16-10 16 10" stroke="url(#cc)" stroke-width="2.3" fill="none"/>
<line x1="16" y1="18" x2="16" y2="42" stroke="url(#cc)" stroke-width="1.7" opacity="0.3"/>
<line x1="24" y1="18" x2="24" y2="42" stroke="url(#cc)" stroke-width="1.7" opacity="0.3"/>
<line x1="32" y1="18" x2="32" y2="42" stroke="url(#cc)" stroke-width="1.7" opacity="0.3"/>
<path d="M18 24c2-3 4-3 6 0s4 3 6 0" stroke="#9333ea" stroke-width="1.7" fill="none" opacity=".4"/>
<circle cx="24" cy="34" r="4" stroke="#7c3aed" stroke-width="1.2" fill="#7c3aed" fill-opacity="0.12"/>

<path d="M12 10c5-4 14-6 22-2" stroke="white" stroke-width="0.8" opacity=".15" fill="none"/>
</svg>