<svg xmlns="http://www.w3.org/2000/svg" viewBox="0 0 48 48" fill="none" stroke-linecap="round" stroke-linejoin="round">
<defs><linearGradient id="di" x1="0%" y1="0%" x2="100%" y2="100%"><stop offset="0%" stop-color="#1d4ed8"/><stop offset="100%" stop-color="#7c3aed"/></linearGradient><filter id="s3d_diplomat"><feDropShadow dx="1.5" dy="2.5" stdDeviation="2" flood-opacity=".3"/></filter></defs><path d="M4 44 Q14 41 24 43 Q34 45 44 42" stroke="#1d4ed8" stroke-width="1" fill="none" opacity="0.22"/>
<path d="M24 4L6 12v14c0 10 8 16 18 18 10-2 18-8 18-18V12z" stroke="url(#di)" stroke-width="2.5" fill="none" filter="url(#s3d_diplomat)"/>
<path d="M24 18l2.5 5 5.5.8-4 3.9.9 5.3-4.9-2.6-4.9 2.6.9-5.3-4-3.9 5.5-.8z" stroke="#1d4ed8" stroke-width="1.7" fill="#1d4ed8" fill-opacity="0.18"/>

<path d="M12 10c5-4 14-6 22-2" stroke="white" stroke-width="0.8" opacity=".15" fill="none"/>
</svg>