<svg xmlns="http://www.w3.org/2000/svg" viewBox="0 0 48 48" fill="none" stroke-linecap="round" stroke-linejoin="round">
<defs><linearGradient id="emb" x1="0%" y1="0%" x2="100%" y2="100%"><stop offset="0%" stop-color="#1d4ed8"/><stop offset="100%" stop-color="#7c3aed"/></linearGradient><filter id="s3d_embassy"><feDropShadow dx="1.5" dy="2.5" stdDeviation="2" flood-opacity=".3"/></filter></defs><path d="M4 44 Q14 41 24 43 Q34 45 44 42" stroke="#1d4ed8" stroke-width="1" fill="none" opacity="0.22"/>
<rect x="8" y="16" width="32" height="26" rx="2" stroke="url(#emb)" stroke-width="2.3" fill="none" fill-opacity="0.09" filter="url(#s3d_embassy)"/>
<path d="M8 16l16-10 16 10" stroke="url(#emb)" stroke-width="2.3" fill="none"/>
<rect x="14" y="24" width="6" height="8" rx="1" stroke="url(#emb)" stroke-width="1.2" fill="none" opacity=".35"/>
<rect x="28" y="24" width="6" height="8" rx="1" stroke="url(#emb)" stroke-width="1.2" fill="none" opacity=".35"/>
<rect x="20" y="30" width="8" height="12" rx="1" stroke="url(#emb)" stroke-width="1.7" fill="none"/>
<line x1="24" y1="4" x2="24" y2="6" stroke="#1d4ed8" stroke-width="1.7"/>
<path d="M24 4h8v4h-8z" stroke="#dc2626" stroke-width="1.2" fill="#dc2626" fill-opacity="0.22"/>
<line x1="8" y1="22" x2="40" y2="22" stroke="url(#emb)" stroke-width="1" opacity="0.3"/>

<path d="M12 10c5-4 14-6 22-2" stroke="white" stroke-width="0.8" opacity=".15" fill="none"/>
</svg>